<svg width="512" height="512" viewBox="0 0 512 512" fill="none" xmlns="http://www.w3.org/2000/svg">
    <g clip-path="url(#clip0_469_57)">
        <path fill-rule="evenodd" clip-rule="evenodd"
            d="M379.392 97.9337C380.666 98.9713 381.32 99.5038 382.001 100C382.719 100.524 383.466 101.007 385.001 102L385.045 100.076C385.12 97.175 385.217 94.2753 385.313 91.3751L385.382 88.3478C385.616 81.9209 386.177 77.1319 390.649 72.172C395.912 67.8384 399.793 65.5174 406.888 65.7579C413.514 66.5173 417.579 68.9536 421.774 74.086C424.684 78.6272 425.248 82.4533 425.228 87.8099L425.229 89.822C425.227 92.0026 425.212 94.1828 425.196 96.3634C425.193 97.8808 425.19 99.3983 425.188 100.916C425.18 104.899 425.16 108.882 425.138 112.866C425.119 116.614 425.11 120.362 425.101 124.11L425.099 125.072C425.077 133.048 425.043 141.024 425.001 149H428.001L428.012 146.517C428.05 138.764 428.107 131.012 428.185 123.259C428.224 119.274 428.256 115.29 428.272 111.305C428.287 107.453 428.322 103.602 428.369 99.7502C428.384 98.2868 428.392 96.8233 428.393 95.3598C428.403 86.2842 428.518 77.8328 435.001 70.8438L437.001 69.5001L439.001 68.0938C443.976 65.3731 449.614 65.3088 455.087 66.4259C460.557 68.1338 463.926 71.2009 467.001 76.0001C468.965 80.0559 469.245 83.3237 469.228 87.8099L469.229 89.822C469.227 92.0026 469.212 94.1828 469.196 96.3634C469.193 97.8808 469.19 99.3983 469.188 100.916C469.18 104.899 469.16 108.882 469.138 112.866C469.119 116.614 469.11 120.362 469.101 124.11L469.099 125.072C469.077 133.048 469.043 141.024 469.001 149H472.001L472.019 146.504C472.077 138.721 472.149 130.938 472.237 123.156C472.281 119.155 472.321 115.154 472.347 111.154C472.373 107.289 472.414 103.425 472.464 99.5604C472.481 98.0898 472.492 96.6191 472.499 95.1483C472.508 93.0802 472.536 91.0131 472.569 88.9452L472.602 85.3855C473.315 79.3362 475.797 74.4509 480.001 70.0001C485.309 66.2844 490.532 65.049 497.001 66.0001C503.564 68.1377 507.37 70.8005 510.93 76.6777C512.743 80.6082 512.692 84.3727 512.635 88.6211L512.632 88.8658L512.654 91.7569C512.671 94.8931 512.651 98.028 512.63 101.164C512.631 103.361 512.633 105.558 512.637 107.755C512.64 112.357 512.625 116.958 512.598 121.559C512.564 127.423 512.57 133.286 512.589 139.15C512.599 143.688 512.59 148.227 512.575 152.765C512.57 154.925 512.57 157.085 512.577 159.245C512.614 179.616 509.867 196.355 495.286 211.715C490.404 216.597 486.011 220.663 479.747 223.699L477.046 225.018L475.001 226C474.602 268.739 475.461 310.042 482.501 352.32L482.87 354.542C483.465 358.059 484.103 361.557 484.843 365.047C486.777 374.264 487.472 383.085 487.392 392.502C487.376 394.763 487.392 397.023 487.411 399.285C487.432 413.109 485.693 424.733 475.962 435.191C467.803 443.018 458.127 446.441 446.88 446.274C436.067 445.247 427.586 441.023 420.259 433.121C412.046 423.009 411.367 412.382 411.251 399.875C411.223 398.331 411.193 396.787 411.161 395.242C411.088 391.495 411.038 387.748 411.001 384L409.814 385.294C393.571 402.958 376.891 417.984 356.001 430L354.169 431.069C335.876 441.646 315.716 448.914 295.001 453L292.532 453.492C242.345 462.977 187.891 452.015 145.406 423.767C135.754 417.148 126.831 409.756 118.188 401.875L116.59 400.424C112.747 396.865 109.336 393.035 106.001 389L105.973 390.997C105.597 412.075 105.465 419.48 102.309 425.223C100.6 428.334 98.0035 430.957 94.001 435C85.5169 442.867 76.6407 445.594 65.2656 445.477C54.165 445.039 45.3575 439.952 37.6767 432.066C31.5129 424.466 29.8508 416.672 29.6924 407.145L29.6464 404.474C29.3498 383.223 30.8094 363.683 35.227 342.941C36.5479 336.457 37.3634 329.894 38.1789 323.332L38.3135 322.25L38.7949 318.483C40.8392 301.955 41.4213 285.455 41.6012 268.818C41.6424 265.048 41.7036 261.279 41.8103 257.51C41.9141 253.824 41.9686 250.142 41.9887 246.455C42.0045 245.061 42.0376 243.668 42.0888 242.275C42.2384 238.007 42.2293 234.107 41.001 230C38.0398 227.101 34.8701 225.704 31.1341 224.059L31.001 224C13.5028 211.206 4.08423 189.902 0.4177 169.109C-3.3701 140.849 1.84044 113.892 19.001 91.0001L20.6416 88.8009C29.6891 77.6233 42.8388 69.57 57.001 67.0001C68.3638 65.9086 79.436 66.421 90.001 71.0001L92.8135 72.2149C105.439 78.4021 114.101 88.7124 122.001 100C122.996 101.337 123.993 102.672 125.001 104L127.72 101.727C136.703 94.3163 145.918 87.8239 156.001 82.0001L158.023 80.8248C197.881 57.946 262.5 49.5271 317 66.4259C342.291 74.2678 357.5 83.0001 379.392 97.9337ZM401.719 89.9128C401.723 89.5057 401.721 89.1218 401.72 88.7572C401.712 85.9569 401.707 84.2945 404.001 82.0001H407.001C409.286 83.8609 409.286 83.8609 409.266 86.7885L409.288 90.39C409.302 91.7487 409.316 93.1074 409.329 94.4661C409.337 96.692 409.345 98.9177 409.365 101.144C409.415 105.885 409.454 110.627 409.485 115.368L409.488 115.821C409.523 121.27 409.558 126.72 409.613 132.169C409.637 134.426 409.657 136.682 409.665 138.939C409.671 140.366 409.68 141.793 409.693 143.22L409.714 145.222C409.741 149.668 410.002 152.998 412.001 157C415.502 161.201 418.746 163.449 424.001 165C430.284 165.249 435.227 164.32 440.001 160C441.62 157.961 442.668 156.641 443.346 155.152C444.593 152.415 444.589 149.109 444.578 139.728C444.576 138.24 444.581 136.753 444.594 135.265C444.635 131.353 444.665 127.442 444.675 123.529C444.691 117.132 444.739 110.736 444.791 104.339C444.809 102.09 444.825 99.8404 444.832 97.5909C444.836 96.1723 444.841 94.7536 444.849 93.3349L444.859 91.3583C444.861 90.886 444.855 90.4313 444.85 89.9901C444.822 87.479 444.799 85.4034 446.001 83.0001C447.209 82.5839 447.816 82.3752 448.439 82.2501C449.065 82.1242 449.709 82.0829 451.001 82.0001C453.286 83.8609 453.286 83.8609 453.266 86.7885L453.288 90.39C453.302 91.7487 453.316 93.1074 453.329 94.4661C453.337 96.692 453.345 98.9177 453.365 101.144C453.415 105.885 453.454 110.627 453.485 115.368L453.488 115.821C453.523 121.27 453.558 126.72 453.613 132.169C453.637 134.426 453.657 136.682 453.665 138.939C453.671 140.366 453.68 141.793 453.693 143.22L453.714 145.222C453.741 149.668 454.002 152.998 456.001 157C459.502 161.201 462.746 163.449 468.001 165C473.463 165.137 478.791 164.729 483.001 161C485.158 158.663 486.506 157.202 487.345 155.491C488.745 152.637 488.728 149.089 488.684 139.622C488.677 138.138 488.678 136.654 488.689 135.171C488.728 131.265 488.751 127.36 488.75 123.454C488.748 117.838 488.78 112.223 488.818 106.608L488.821 106.169C488.84 103.299 488.86 100.43 488.863 97.5604C488.863 96.145 488.865 94.7296 488.869 93.3142L488.875 91.3424C488.875 90.8727 488.869 90.4207 488.863 89.9821L488.863 89.9767C488.828 87.4691 488.8 85.4022 490.001 83.0001C491.043 82.6645 491.549 82.5016 492.063 82.3751C492.549 82.2558 493.042 82.169 494.001 82.0001C496.949 85.0125 497.351 87.4513 497.385 91.6016L497.357 93.8387C497.364 96.3374 497.366 98.8354 497.349 101.334C497.336 103.125 497.328 104.917 497.325 106.708C497.323 110.451 497.318 114.194 497.299 117.937C497.271 122.793 497.247 127.65 497.241 132.507C497.237 137.212 497.228 141.918 497.213 146.623L497.204 149.324C497.199 151.918 497.192 154.512 497.177 157.106L497.162 159.514C497.146 169.973 496.384 180.032 491.751 189.574C485.461 200.736 476.284 208.886 463.938 212.688C462.713 213.004 462.164 213.146 461.63 213.333C461.195 213.486 460.771 213.669 460.001 214C459.001 217 459.001 217 458.867 219.957L458.856 223.629C458.845 225.767 458.836 227.904 458.834 230.042C458.833 231.588 458.831 233.135 458.828 234.682C458.821 237.939 458.815 241.196 458.815 244.453C458.816 247.819 458.816 251.184 458.805 254.55C458.724 274.25 458.773 293.807 460.735 313.435L461.001 316C461.386 319.781 461.805 323.554 462.295 327.324L462.751 330.625C463.695 337.753 464.717 344.839 466.179 351.882C469.138 365.924 471.53 379.416 471.566 393.819L471.563 396L471.565 396.381C471.595 404.41 471.622 411.671 468.001 419C464.494 424.908 459.545 428.13 453.001 430C445.929 431.153 440.577 428.768 434.813 424.813C429.758 419.757 427.56 414.54 427.471 407.405L427.505 405.031C427.502 403.307 427.501 401.583 427.503 399.859C427.534 397.192 427.564 394.526 427.555 391.858C427.504 381.558 428.063 371.856 430.192 361.772C431.259 356.799 432.081 351.8 432.895 346.781L433.501 343C438.222 314.978 439.465 287.158 439.282 258.798C439.259 255.296 439.245 251.793 439.241 248.291C439.237 243.981 439.228 239.672 439.213 235.362L439.204 232.914C439.199 230.579 439.192 228.244 439.177 225.909L439.162 223.788C439.15 221.525 439.109 219.261 439.001 217C438.624 216.247 438.377 215.751 438.03 215.339C437.366 214.548 436.339 214.061 433.341 212.64C427.063 209.702 421.182 206.687 416.001 202C403.469 189.17 401.547 174.205 401.623 157.151C401.633 155.161 401.638 153.171 401.638 151.181C401.635 147.016 401.636 142.852 401.651 138.688C401.674 133.285 401.691 127.883 401.685 122.481C401.68 118.251 401.68 114.021 401.687 109.79C401.692 107.777 401.696 105.764 401.7 103.75C401.698 100.855 401.697 97.9593 401.711 95.0638L401.726 92.422L401.719 89.9128ZM346.97 96.3673C327.5 84.7696 311.14 80.3159 305.217 79.0576C304.332 78.8697 303.689 78.7329 303.313 78.6251C254 69.5001 206.535 73.1406 164.246 96.6424C153.473 102.853 143.439 110.363 134.384 118.891C133.73 119.415 133.385 119.692 132.992 119.838C132.554 120 132.055 120 131.001 120L131.622 122.817L132.438 126.563L133.247 130.254C138.443 156.072 134.396 183.7 120.001 206C117.49 209.482 114.827 212.77 112.001 216L110.321 217.934C105.631 222.971 100.029 226.711 94.001 230H92.001L92.0389 232.005C92.1707 238.982 92.3001 245.96 92.4282 252.937C92.4761 255.53 92.5246 258.123 92.5737 260.716C92.7125 268.057 92.838 275.398 92.9468 282.74C92.9964 285.726 93.0646 288.711 93.1377 291.696C93.1658 293.321 93.1932 294.946 93.2197 296.57L95.5187 316.578L95.5448 316.802L95.5452 316.805C96.7236 326.93 97.9108 337.13 97.9228 337.5L98.3293 340.172L98.751 343C100.254 351.727 102.244 358.089 108.001 365L110.513 368.121C113.264 371.485 116.122 374.746 119.001 378L120.394 379.6C126.702 386.84 133.39 393.114 141.001 399L143.845 401.356C175.006 426.614 215.821 439.537 255.688 439.313L257.796 439.306C269.419 439.249 280.628 438.501 292.001 436L294.678 435.43C325.622 428.655 353.039 414.651 377.001 394L379.931 391.481C391.766 381.084 401.371 369.144 410.001 356L411.97 353.469C418.321 344.535 419.381 333.53 420.414 322.813C420.533 321.577 420.652 320.344 420.778 319.12C420.933 317.645 421.096 316.171 421.265 314.698C423.3 296.775 423.244 278.905 423.138 260.899C423.119 257.304 423.11 253.71 423.101 250.116L423.099 249.049C423.077 241.366 423.044 233.683 423.001 226L420.706 224.768L417.699 223.143L414.716 221.535C401.089 213.83 391.686 199.016 387.491 184.198C385.863 177.763 385.83 171.704 385.974 165.098C385.987 162.803 385.998 160.508 386.007 158.213C386.027 154.633 386.064 151.056 386.148 147.477C387.153 133.807 386.148 123.529 386.148 123.529C383.356 120.947 377.283 116.909 374.001 115C372.448 113.823 370.905 112.633 369.376 111.426C367.923 110.38 366.465 109.343 365.001 108.313L362.671 106.647C357.554 103.016 352.362 99.5791 346.97 96.3673ZM75.7275 271.492C75.8044 282.013 80.7682 344.876 84.1355 354.978C86.8905 367.873 88.5263 380.349 88.4602 393.554L88.4385 395.813C88.4341 396.314 88.4307 396.81 88.4273 397.301C88.3633 406.498 88.3116 413.929 82.79 421.871C79.2744 426.055 75.6167 427.717 70.2197 428.301C63.0513 428.484 57.9457 427.404 52.4128 422.532C48.1938 417.955 46.5493 412.653 46.4708 406.532L46.5049 404.215C46.5019 402.532 46.5013 400.849 46.5029 399.166C46.5344 396.562 46.5635 393.959 46.5549 391.355C46.5049 381.455 47.0008 372.249 49.1921 362.569C50.2995 357.683 51.0985 352.765 51.8955 347.82L52.501 344C57.0694 316.59 58.4864 289.463 58.3371 261.728C58.3186 258.316 58.3121 254.904 58.3166 251.492C58.3219 248.103 58.3222 244.714 58.3147 241.325C58.31 239.721 58.3056 238.116 58.3017 236.512C58.304 234.237 58.3051 231.962 58.2911 229.687L58.2756 227.62C58.2677 225.51 58.2643 224.591 58.216 223.673C58.1787 222.964 58.1146 222.256 58.001 221C57.9443 220.943 57.8887 220.888 57.8351 220.834C57.0302 220.03 56.5623 219.569 56.0471 219.169C55.3868 218.657 54.6489 218.244 53.0244 217.336C38.617 209.62 27.9669 198.862 22.0986 183.246L21.001 180C15.4329 164.099 14.1487 144.295 18.9033 127.996L20.001 125C25.2189 110.672 32.1653 98.7389 44.9775 89.8478C55.2668 83.5599 66.3881 82.1004 78.1533 84.6954C92.7197 89.5577 103.215 100.428 110.001 114C120.106 136.052 120.828 159.751 112.876 182.563C107.344 195.987 99.0921 208.287 85.6885 214.75C84.5264 215.234 83.9357 215.48 83.3591 215.756C82.7632 216.04 82.1823 216.357 81.001 217C77.963 219.545 76.2005 221.026 75.393 224.968L75.4175 228.296C75.413 230.234 75.4101 232.171 75.4417 234.108C75.4658 235.499 75.4809 236.891 75.4876 238.282C75.4948 241.963 75.5195 245.643 75.5688 249.324C75.6093 252.34 75.6374 255.356 75.6509 258.372C75.6655 262.041 75.685 265.711 75.7114 269.38L75.7275 271.492Z"
            fill="black" />
        <path
            d="M401.719 89.9128L401.726 92.422L401.711 95.0638C401.697 97.9593 401.698 100.855 401.7 103.75C401.696 105.764 401.692 107.777 401.687 109.79C401.68 114.021 401.68 118.251 401.685 122.481C401.691 127.883 401.674 133.285 401.651 138.688C401.636 142.852 401.635 147.016 401.638 151.181C401.638 153.171 401.633 155.161 401.623 157.151C401.547 174.205 403.469 189.17 416.001 202C421.182 206.687 427.063 209.702 433.341 212.64C436.339 214.061 437.366 214.548 438.03 215.339C438.377 215.751 438.624 216.247 439.001 217C439.109 219.261 439.15 221.525 439.162 223.788L439.177 225.909C439.192 228.244 439.199 230.579 439.204 232.914L439.213 235.362C439.228 239.672 439.237 243.981 439.241 248.291C439.245 251.793 439.259 255.296 439.282 258.798C439.465 287.158 438.222 314.978 433.501 343L432.895 346.781C432.081 351.8 431.259 356.799 430.192 361.772C428.063 371.856 427.504 381.558 427.555 391.858C427.564 394.526 427.534 397.192 427.503 399.859C427.501 401.583 427.502 403.307 427.505 405.031L427.471 407.405C427.56 414.54 429.758 419.757 434.813 424.813C440.577 428.768 445.929 431.153 453.001 430C459.545 428.13 464.494 424.908 468.001 419C471.622 411.671 471.595 404.41 471.565 396.381L471.563 396L471.566 393.819C471.53 379.416 469.138 365.924 466.179 351.882C464.717 344.839 463.695 337.753 462.751 330.625L462.295 327.324C461.805 323.554 461.386 319.781 461.001 316L460.735 313.435C458.773 293.807 458.724 274.25 458.805 254.55C458.816 251.184 458.816 247.819 458.815 244.453C458.815 241.196 458.821 237.939 458.828 234.682C458.831 233.135 458.833 231.588 458.834 230.042C458.836 227.904 458.845 225.767 458.856 223.629L458.867 219.957C459.001 217 459.001 217 460.001 214C460.771 213.669 461.195 213.486 461.63 213.333C462.164 213.146 462.713 213.004 463.938 212.688C476.284 208.886 485.461 200.736 491.751 189.574C496.384 180.032 497.146 169.973 497.162 159.514L497.177 157.106C497.192 154.512 497.199 151.918 497.204 149.324L497.213 146.623C497.228 141.918 497.237 137.212 497.241 132.507C497.247 127.65 497.271 122.793 497.299 117.937C497.318 114.194 497.323 110.451 497.325 106.708C497.328 104.917 497.336 103.125 497.349 101.334C497.366 98.8354 497.364 96.3374 497.357 93.8387L497.385 91.6016C497.351 87.4513 496.949 85.0125 494.001 82.0001C493.042 82.169 492.549 82.2558 492.063 82.3751C491.549 82.5016 491.043 82.6645 490.001 83.0001C488.8 85.4022 488.828 87.4691 488.863 89.9767L488.863 89.9821C488.869 90.4207 488.875 90.8727 488.875 91.3424L488.869 93.3142C488.865 94.7296 488.863 96.145 488.863 97.5604C488.86 100.43 488.84 103.299 488.821 106.169L488.818 106.608C488.78 112.223 488.748 117.838 488.75 123.454C488.751 127.36 488.728 131.265 488.689 135.171C488.678 136.654 488.677 138.138 488.684 139.622C488.728 149.089 488.745 152.637 487.345 155.491C486.506 157.202 485.158 158.663 483.001 161C478.791 164.729 473.463 165.137 468.001 165C462.746 163.449 459.502 161.201 456.001 157C454.002 152.998 453.741 149.668 453.714 145.222L453.693 143.22C453.68 141.793 453.671 140.366 453.665 138.939C453.657 136.682 453.637 134.426 453.613 132.169C453.558 126.72 453.523 121.27 453.488 115.821L453.485 115.368C453.454 110.627 453.415 105.885 453.365 101.144C453.345 98.9177 453.337 96.692 453.329 94.4661C453.316 93.1074 453.302 91.7487 453.288 90.39L453.266 86.7885C453.286 83.8609 453.286 83.8609 451.001 82.0001C449.709 82.0829 449.065 82.1242 448.439 82.2501C447.816 82.3752 447.209 82.5839 446.001 83.0001C444.799 85.4034 444.822 87.479 444.85 89.9901C444.855 90.4313 444.861 90.886 444.859 91.3583L444.849 93.3349C444.841 94.7536 444.836 96.1723 444.832 97.5909C444.825 99.8404 444.809 102.09 444.791 104.339C444.739 110.736 444.691 117.132 444.675 123.529C444.665 127.442 444.635 131.353 444.594 135.265C444.581 136.753 444.576 138.24 444.578 139.728C444.589 149.109 444.593 152.415 443.346 155.152C442.668 156.641 441.62 157.961 440.001 160C435.227 164.32 430.284 165.249 424.001 165C418.746 163.449 415.502 161.201 412.001 157C410.002 152.998 409.741 149.668 409.714 145.222L409.693 143.22C409.68 141.793 409.671 140.366 409.665 138.939C409.657 136.682 409.637 134.426 409.613 132.169C409.558 126.72 409.523 121.27 409.488 115.821L409.485 115.368C409.454 110.627 409.415 105.885 409.365 101.144C409.345 98.9177 409.337 96.692 409.329 94.4661C409.316 93.1074 409.302 91.7487 409.288 90.39L409.266 86.7885C409.286 83.8609 409.286 83.8609 407.001 82.0001H404.001C401.707 84.2945 401.712 85.9569 401.72 88.7572C401.721 89.1218 401.723 89.5057 401.719 89.9128Z"
            fill="black" fill-opacity="0.2" />
        <path
            d="M84.1355 354.978C80.7682 344.876 75.8044 282.013 75.7275 271.492L75.7114 269.38C75.685 265.711 75.6655 262.041 75.6509 258.372C75.6374 255.356 75.6093 252.34 75.5688 249.324C75.5195 245.643 75.4948 241.963 75.4876 238.282C75.4809 236.891 75.4658 235.499 75.4417 234.108C75.4101 232.171 75.413 230.234 75.4175 228.296L75.393 224.968C76.2005 221.026 77.963 219.545 81.001 217C82.1823 216.357 82.7632 216.04 83.3591 215.756C83.9357 215.48 84.5264 215.234 85.6885 214.75C99.0921 208.287 107.344 195.987 112.876 182.563C120.828 159.751 120.106 136.052 110.001 114C103.215 100.428 92.7197 89.5577 78.1533 84.6954C66.3881 82.1004 55.2668 83.5599 44.9775 89.8478C32.1653 98.7389 25.2189 110.672 20.001 125L18.9033 127.996C14.1487 144.295 15.4329 164.099 21.001 180L22.0986 183.246C27.9669 198.862 38.617 209.62 53.0244 217.336C54.6489 218.244 55.3868 218.657 56.0471 219.169C56.5623 219.569 57.0302 220.03 57.8351 220.834L58.001 221C58.1146 222.256 58.1787 222.964 58.216 223.673C58.2643 224.591 58.2677 225.51 58.2756 227.62L58.2911 229.687C58.3051 231.962 58.304 234.237 58.3017 236.512C58.3056 238.116 58.31 239.721 58.3147 241.325C58.3222 244.714 58.3219 248.103 58.3166 251.492C58.3121 254.904 58.3186 258.316 58.3371 261.728C58.4864 289.463 57.0694 316.59 52.501 344L51.8955 347.82C51.0985 352.765 50.2995 357.683 49.1921 362.569C47.0008 372.249 46.5049 381.455 46.5549 391.355C46.5635 393.959 46.5344 396.562 46.5029 399.166C46.5013 400.849 46.5019 402.532 46.5049 404.215L46.4708 406.532C46.5493 412.653 48.1938 417.955 52.4128 422.532C57.9457 427.404 63.0513 428.484 70.2197 428.301C75.6167 427.717 79.2744 426.055 82.79 421.871C88.3116 413.929 88.3633 406.498 88.4273 397.301C88.4307 396.81 88.4341 396.314 88.4385 395.813L88.4602 393.554C88.5263 380.349 86.8905 367.873 84.1355 354.978Z"
            fill="black" fill-opacity="0.2" />
        <circle cx="256.5" cy="256.5" r="127.5" stroke="black" stroke-width="16" />
    </g>
    <defs>
        <clipPath id="clip0_469_57">
            <rect width="512" height="512" fill="white" />
        </clipPath>
    </defs>
</svg>