<svg width="512" height="512" viewBox="0 0 512 512" fill="none" xmlns="http://www.w3.org/2000/svg">
    <g clip-path="url(#clip0_461_21)">
        <path
            d="M255.562 -0.250068C256.679 -0.270693 257.796 -0.291318 258.947 -0.312568C269.659 -0.362246 279.43 1.6224 289 6.49993C289.669 6.8367 290.339 7.17347 291.028 7.52044C298.762 11.6285 305.121 17.4431 310.788 24.1005C313.564 26.4839 315.221 26.6269 318.84 26.9062C319.979 27.0078 321.119 27.1094 322.293 27.214C323.496 27.3084 324.698 27.4027 325.938 27.4999C344.382 29.2606 344.382 29.2606 353 32.9999C353.919 33.397 354.838 33.794 355.785 34.2031C371.545 41.9167 382 55.7959 389.124 71.4304C391.164 75.7992 393.353 78.7349 397 81.9999C397.48 82.4337 397.961 82.8675 398.455 83.3144C399.485 84.2444 400.518 85.1712 401.554 86.0951C462.662 140.976 474.97 245.406 487.549 322.248C487.984 324.903 488.422 327.558 488.861 330.212C496.803 378.491 503.124 427.071 509.125 475.625C509.275 476.833 509.426 478.041 509.581 479.286C509.999 482.661 510.411 486.037 510.82 489.414C510.942 490.393 511.063 491.372 511.188 492.38C512.755 505.521 512.755 505.521 510.5 509.937C507.464 512.442 505.816 512.559 502 512.566C498.995 511.715 497.934 510.467 496 508C495.136 505.131 494.827 502.23 494.495 499.258C494.382 498.371 494.269 497.483 494.153 496.569C493.78 493.613 493.431 490.654 493.082 487.695C492.823 485.605 492.562 483.516 492.299 481.426C491.742 476.977 491.196 472.527 490.657 468.075C489.813 461.105 488.944 454.138 488.067 447.172C487.923 446.02 487.778 444.869 487.629 443.683C487.337 441.364 487.045 439.045 486.753 436.726C486.316 433.258 485.882 429.789 485.448 426.32C468.683 278.814 468.683 278.814 405 115C405.251 116.173 405.502 117.346 405.761 118.554C419.211 181.701 426.383 245.991 433.203 310.137C433.282 310.87 433.36 311.604 433.441 312.36C434.909 326.409 434.909 326.409 432.5 330.625C429.522 332.263 427.351 332.518 424 332.629C420.826 331.631 419.814 329.739 418 327C417.39 324.309 416.996 321.902 416.739 319.179C416.652 318.403 416.565 317.626 416.475 316.826C416.19 314.249 415.929 311.67 415.668 309.09C415.47 307.265 415.271 305.44 415.07 303.616C414.646 299.739 414.231 295.86 413.825 291.981C412.871 282.898 411.863 273.82 410.859 264.742C410.528 261.736 410.198 258.73 409.868 255.724C406.049 221.005 401.567 186.317 395 152C394.867 151.304 394.735 150.608 394.598 149.892C391.032 131.26 386.683 113.21 380.623 95.2035C380 92.9999 380 92.9999 380 89.9999C379.138 89.7215 378.275 89.4431 377.387 89.1562C374.139 88.0473 370.99 86.7946 367.812 85.4999C356.444 81.1499 346.006 80.7288 334 80.9999C334.784 81.8662 335.567 82.7324 336.375 83.6249C355.926 106.589 366.496 131.894 366.125 162.187C366.115 163.631 366.106 165.074 366.098 166.518C366.076 170.012 366.042 173.506 366 177C366.808 176.971 367.616 176.942 368.449 176.912C369.518 176.889 370.586 176.867 371.688 176.844C372.743 176.815 373.799 176.786 374.887 176.756C379.893 177.148 383.618 179.346 387 183C390.426 188.433 391.595 193.009 391.496 199.375C391.498 200.144 391.499 200.912 391.5 201.705C391.499 203.318 391.487 204.932 391.467 206.545C391.438 208.994 391.446 211.441 391.459 213.891C391.453 215.469 391.444 217.047 391.434 218.625C391.437 219.346 391.439 220.067 391.443 220.81C391.308 228.149 389.222 234.629 384 240C379.369 243.662 374.586 245.361 369 247C370.52 248.376 372.041 249.751 373.562 251.125C374.474 251.949 375.385 252.772 376.324 253.621C378.472 255.531 380.65 257.37 382.875 259.187C388.046 263.604 391.433 269.086 392.223 275.932C392.832 287.017 392.062 295.228 384.875 304.062C381.352 307.883 377.382 311.023 373.234 314.141C367.984 318.509 367.183 322.801 365.844 329.32C365 332 365 332 362 334C355.889 334.667 355.889 334.667 352.812 332.359C349.347 327.848 350.296 322.404 351 317C354.199 306.458 362.474 299.844 371.117 293.641C373.961 291.162 374.852 289.137 375.336 285.414C375.421 279.375 375.293 275.6 371 271C367.752 268.215 364.419 265.571 361 263C360.732 263.597 360.464 264.194 360.188 264.809C359.333 266.701 358.471 268.59 357.605 270.477C356.462 272.985 355.343 275.498 354.238 278.023C347.943 292.183 339.747 303.817 329 315C327.871 316.189 327.871 316.189 326.719 317.402C323.053 321.175 319.988 324.019 315.312 326.437C313.21 327.729 313.21 327.729 312 330C310.959 339.278 313.665 349.864 318 358C318.804 359.578 318.804 359.578 319.625 361.187C329.077 372.381 344.142 376.043 357.495 380.577C379.243 387.966 399.45 395.689 417 411C418.029 411.886 418.029 411.886 419.078 412.789C440.594 432.696 445.139 463.861 446.258 491.687C446.304 493.583 446.343 495.479 446.375 497.375C446.401 498.261 446.427 499.147 446.454 500.06C446.465 504.164 446.318 506.45 444.227 510.066C441.884 512.101 441.044 512.664 438 512.562C437.34 512.564 436.68 512.565 436 512.566C433.054 511.732 431.907 510.383 430 508C429.426 504.834 429.426 504.834 429.312 501.094C429.285 500.421 429.257 499.748 429.229 499.054C429.17 497.615 429.118 496.176 429.073 494.736C428.193 467.8 424.332 441.601 404 422C400.843 419.324 397.544 417.133 394 415C393.45 414.667 392.899 414.333 392.333 413.99C376.64 404.663 359.151 398.854 341.812 393.375C325.265 387.98 310.617 379.956 301.812 364.437C298.142 356.621 296.619 347.421 295 339C294.094 339.338 293.188 339.675 292.254 340.023C267.453 349.104 243.972 348.74 219 340C218.34 339.67 217.68 339.34 217 339C216.792 340.137 216.585 341.274 216.371 342.445C213.191 358.772 208.015 372.724 193.689 382.529C181.6 390.431 167.441 394.665 153.802 399.051C146.826 401.312 140.073 403.874 133.439 407.006C128.903 409.036 125.81 409.203 121 408C118.437 405.768 118.062 404.419 117.562 401.062C118.124 397.131 119.221 395.836 122 393C124.594 391.5 127.321 390.48 130.125 389.437C130.966 389.111 131.807 388.784 132.673 388.448C138.584 386.188 144.552 384.099 150.531 382.027C151.277 381.768 152.024 381.508 152.792 381.241C156.537 379.939 160.286 378.651 164.043 377.388C171.115 374.977 177.704 372.423 183.998 368.301C186 367 186 367 188.196 365.942C190.588 364.693 190.973 363.462 192 361C192.402 360.242 192.804 359.484 193.219 358.703C195.931 353.51 198.03 348.779 199 343C199.238 341.987 199.477 340.974 199.723 339.93C200.348 336.357 200.598 333.584 200 330C197.343 326.731 194.122 324.601 190.667 322.228C171.78 308.318 159.512 285.705 152 264C148.726 264 146.978 266.228 144.5 268.25C143.52 269.039 142.541 269.828 141.531 270.641C138.381 273.577 137.215 275.342 136.664 279.586C136.579 285.625 136.707 289.4 141 294C143.451 296.025 145.947 297.979 148.461 299.926C154.158 304.58 158.995 309.806 161 317C162.13 328.524 162.13 328.524 159.191 332.363C156.002 334.745 153.877 334.554 150 334C146.283 331.101 145.533 328.889 144.875 324.312C143.21 316.803 138.931 313.516 133 309C126.311 303.586 120.819 298.101 119.777 289.068C119.168 277.983 119.938 269.772 127.125 260.937C130.691 257.077 134.703 253.862 138.863 250.664C141.053 249.029 141.053 249.029 143 247C142.276 246.769 141.551 246.538 140.805 246.301C133.267 243.758 127.919 241.461 123.688 234.437C121.115 229.198 120.819 224.811 120.762 219.016C120.754 218.241 120.746 217.467 120.737 216.669C120.723 215.031 120.713 213.394 120.705 211.757C120.693 210.093 120.673 208.429 120.643 206.765C120.6 204.348 120.584 201.932 120.574 199.516C120.557 198.782 120.539 198.048 120.521 197.292C120.548 190.881 122.557 185.64 126.938 180.906C131.5 177.796 134.745 176.691 140.312 176.844C141.915 176.878 141.915 176.878 143.551 176.912C144.359 176.941 145.167 176.97 146 177C145.979 176.155 145.958 175.31 145.937 174.44C145.052 133.319 145.052 133.319 154.25 119.062C157.18 117.284 159.671 117.65 163 118C165.375 119.062 165.375 119.062 167 121C168.125 126.084 167.889 129.368 166.188 134.25C160.992 151.363 161.73 169.288 162 187C162.971 186.318 162.971 186.318 163.961 185.622C177.958 175.964 194.453 171.087 210.375 165.562C252.798 151.796 252.798 151.796 282 120C284.866 113.811 285.587 107.425 286.003 100.671C286.34 96.8603 286.95 95.0611 289.383 92.0546C292 89.9999 292 89.9999 295 89.3749C298.036 90.0074 299.889 90.7288 301.984 93.0624C303.862 96.6449 303.938 100.688 304.434 104.656C307.205 121.015 323.44 132.861 335.688 142.5C340.967 146.741 345.023 151.542 349 157C350.643 134.415 338.456 112.867 324.312 96.3124C307.525 78.5156 283.953 68.1775 259.646 67.4101C229.993 67.1242 207.3 77.6485 186 97.9999C185.12 98.9061 184.239 99.8124 183.332 100.746C180.74 103.251 179.572 103.911 176 104C173.094 103.257 171.528 102.648 169.625 100.312C168.639 96.6642 168.918 94.6672 170 90.9999C171.96 88.4461 174.051 86.1368 176.285 83.8202C178.114 82.2954 178.114 82.2954 178 80.9999C163.865 80.5043 151.595 82.0049 138.523 87.914C136.329 88.8583 134.314 89.4572 132 89.9999C131.604 91.9045 131.604 91.9045 131.199 93.8476C130.239 98.1721 129.009 102.364 127.691 106.591C105.685 177.866 101.646 255.74 93.9805 329.594C93.894 330.426 93.8076 331.258 93.7185 332.115C92.8199 340.786 91.9467 349.457 91.1431 358.137C91.0423 359.216 91.0423 359.216 90.9394 360.318C90.6279 363.657 90.3224 366.996 90.0291 370.337C88.5307 386.597 88.5307 386.597 84.75 390.062C81.3365 391.226 79.4358 391.046 76 390C74.007 388.419 73.1346 387.269 72 385C72.0467 382.484 72.1589 380.012 72.3303 377.504C72.4033 376.366 72.4033 376.366 72.4778 375.204C73.0433 366.765 73.8619 358.352 74.7148 349.937C74.8877 348.211 75.0605 346.484 75.2332 344.757C75.7941 339.171 76.3649 333.585 76.9375 328C77.0356 327.04 77.1338 326.081 77.2348 325.092C91.4635 186.074 91.4635 186.074 105.463 123.566C106.058 120.722 106.539 117.868 107 115C101.242 122.499 96.4372 130.153 92.125 138.562C91.5228 139.735 90.9205 140.908 90.3 142.116C84.2505 154.058 79.3516 166.346 75 179C74.631 180.072 74.262 181.145 73.8818 182.25C51.433 248.706 41.3578 319.228 31.5625 388.437C31.3902 389.654 31.3902 389.654 31.2145 390.895C28.4973 410.113 25.9196 429.345 23.5623 448.611C23.2218 451.393 22.8795 454.176 22.5368 456.958C21.5526 464.963 20.5766 472.969 19.6455 480.981C19.2629 484.247 18.8668 487.51 18.4675 490.773C18.2854 492.288 18.1095 493.804 17.9402 495.32C17.7083 497.393 17.4554 499.462 17.1975 501.532C17.0619 502.691 16.9263 503.85 16.7866 505.045C15.8757 508.467 14.7496 509.821 12 512C9.09215 512.709 7.05746 512.34 4 512C1.82524 510.457 1.18167 509.363 0 507C0.16562 495.548 1.72122 484.147 3.1875 472.805C3.4083 471.069 3.62877 469.333 3.84892 467.597C4.43663 462.978 5.0317 458.36 5.6293 453.741C6.00264 450.855 6.37437 447.967 6.74576 445.08C31.7605 250.793 31.7605 250.793 88 112C88.6742 111.042 89.3484 110.084 90.043 109.098C96.9126 99.6503 104.207 90.6602 113.688 83.7499C119.626 79.1017 122.047 73.6908 125.113 67.0038C132.849 50.1683 145.217 39.2078 161.836 31.7226C167.414 29.6978 172.498 28.9115 178.398 28.5195C192.538 28.2636 192.538 28.2636 204.501 21.9103C205.863 20.3269 207.176 18.7181 208.469 17.0781C219.611 3.52798 239.021 -0.175515 255.562 -0.250068ZM211 36.9999C210.136 38.2805 210.136 38.2805 209.255 39.5868C206.398 42.6445 205.028 42.6727 200.906 42.8202C199.71 42.8808 198.514 42.9414 197.281 43.0038C196.033 43.0438 194.786 43.0838 193.5 43.1249C174.556 43.8675 161.544 47.3395 148 60.9999C146.642 62.6468 145.301 64.3083 144 65.9999C144.33 66.6599 144.66 67.3199 145 67.9999C145.946 67.7834 146.892 67.5668 147.867 67.3437C159.715 64.7859 171.676 63.6346 183.695 65.7734C196.441 67.9644 203.661 65.2362 214.874 59.0961C227.321 52.6785 241.835 51.6057 255.562 51.6249C256.221 51.6255 256.88 51.626 257.559 51.6266C275.652 51.6951 293.263 55.0693 308.75 64.9374C313.839 67.9313 318.384 66.9812 324 65.9999C338.959 63.7659 353.294 64.8726 368 67.9999C363.334 57.8833 353.923 50.7416 343.75 46.6874C335.838 44.1015 327.627 42.8304 319.305 43.1171C306.064 43.4122 306.064 43.4122 301.402 39.2577C298.788 36.5173 296.488 33.5525 294.215 30.5263C287.462 22.0446 274.866 16.9602 264.37 15.6789C261.676 15.5277 259.01 15.481 256.312 15.4999C254.877 15.5085 254.877 15.5085 253.413 15.5173C235.613 15.9609 222.809 23.9959 211 36.9999ZM296 129C294.848 130.641 293.779 132.341 292.75 134.062C281.036 152.873 262.456 162.486 242.505 170.726C241.068 171.324 241.068 171.324 239.602 171.934C238.739 172.285 237.876 172.636 236.987 172.998C234.833 173.836 234.833 173.836 234 176C234.474 176.371 234.949 176.742 235.438 177.125C237.586 179.703 237.797 181.683 238 185C237.034 187.749 236.62 188.69 234 190C228.977 189.872 224.61 188.993 220 187C206.263 183.805 194.546 188.2 182.125 193.875C181.424 194.19 180.722 194.505 180 194.83C172.566 198.357 166.329 203.111 162.883 210.734C156.691 233.64 166.422 262.545 177.816 282.445C191.826 305.796 212.418 322.119 238.785 329.219C259.667 334.293 281.027 329.127 299.391 318.644C324.324 302.93 339.158 277.805 347 250C347.342 248.799 347.683 247.597 348.035 246.359C352.395 227.62 352.42 205.251 346 187C345.764 186.329 345.528 185.657 345.285 184.966C339.412 168.813 329.765 157.96 316.561 147.269C302.628 135.942 302.628 135.942 298 129C297.34 129 296.68 129 296 129ZM137 195C136.578 199.238 136.628 203.492 136.629 207.748C136.625 209.86 136.589 211.97 136.551 214.082C136.545 215.427 136.541 216.772 136.539 218.117C136.531 219.34 136.523 220.563 136.514 221.824C136.759 225.048 136.759 225.048 138.716 227.368C141.206 229.147 142.983 229.665 146 230C146.05 225.373 146.086 220.747 146.11 216.121C146.12 214.547 146.134 212.974 146.151 211.401C146.175 209.137 146.186 206.873 146.195 204.609C146.206 203.908 146.216 203.207 146.227 202.484C146.227 198.814 146.021 196.119 144 193C140.045 192.652 140.045 192.652 137 195ZM368 193C365.594 196.714 365.742 200.338 365.805 204.609C365.808 205.336 365.81 206.063 365.813 206.812C365.824 209.125 365.85 211.437 365.875 213.75C365.885 215.322 365.894 216.893 365.902 218.465C365.924 222.31 365.959 226.155 366 230C369.017 229.665 370.794 229.147 373.284 227.368C375.606 224.164 375.487 222.05 375.461 218.117C375.46 217.462 375.459 216.806 375.458 216.131C375.452 214.751 375.436 213.371 375.412 211.991C375.375 209.875 375.371 207.761 375.371 205.644C375.858 198.73 375.858 198.73 373 193C370.416 192.833 370.416 192.833 368 193Z"
            fill="black" />
        <path
            d="M237 442C237.658 442.361 238.315 442.722 238.993 443.094C250.197 449.283 250.197 449.283 253.078 451.855C254.99 453.298 254.99 453.298 257.387 452.414C260.283 450.847 263.045 449.159 265.813 447.375C286.796 434.215 310.48 424.328 335.688 429.871C352.811 434.492 366.715 446.078 376 461C382.315 472.314 384.256 483.684 384.438 496.5C384.46 497.456 384.482 498.412 384.505 499.398C384.491 503.703 384.385 506.325 382.223 510.121C379.883 512.099 379.011 512.662 376 512.562C375.34 512.564 374.68 512.565 374 512.566C370.882 511.683 369.854 510.693 368 508C367.432 504.651 367.448 501.328 367.438 497.937C367.236 490.237 366.881 483.239 364 476C363.509 474.751 363.509 474.751 363.008 473.476C357.583 461.318 348.18 453.147 335.942 448.162C330.528 446.181 325.625 445.454 319.875 445.5C319.055 445.504 318.234 445.508 317.389 445.513C305.594 445.837 295.244 450.336 285 456C285.524 456.909 285.524 456.909 286.059 457.836C290.033 465.154 292.048 471.809 290.375 480.125C286.053 494.352 271.808 504.128 260 512C255.343 512.537 252.388 512.652 248.508 509.91C247.363 508.982 246.236 508.031 245.125 507.062C244.226 506.314 244.226 506.314 243.309 505.549C241.523 504.051 239.762 502.527 238 501C237.027 500.19 236.054 499.381 235.051 498.547C226.838 491.524 221.711 484.674 220.688 473.625C221.259 466.996 223.486 461.61 227 456C211.306 448.362 196.976 442.738 179.235 446.879C164.671 452.107 155.118 461.121 148.262 474.777C145.025 483.044 144.662 491.1 144.61 499.891C144.496 504.015 144.322 506.447 142.211 510.074C139.878 512.107 139.037 512.663 136 512.562C135.34 512.564 134.68 512.565 134 512.566C130.848 511.674 129.857 510.748 128 508C127.389 504.411 127.433 500.882 127.5 497.25C127.513 496.219 127.526 495.189 127.539 494.127C128.04 475.046 134.504 458.688 148.479 445.372C174.784 421.635 208.17 426.11 237 442ZM239.188 468.187C237.616 470.586 237.134 472.118 237 475C238.971 479.863 241.513 482.753 245.438 486.187C246.385 487.027 247.333 487.866 248.309 488.73C250.492 490.572 252.69 492.323 255 494C262.377 490.661 269.477 484.712 274 478C274.986 474.713 275.326 472.928 274.188 469.687C273.093 467.849 273.093 467.849 271 467C268.169 466.498 268.169 466.498 265 467C264.01 467.825 263.02 468.65 262 469.5C259 472 259 472 256 472.625C252.023 471.796 250.09 469.575 247 467C243.712 466.484 241.991 466.351 239.188 468.187Z"
            fill="black" />
        <path
            d="M97.2499 412.188C101 413 101 413 103.5 414.562C105.59 417.959 105.402 420.049 105 424C103.534 426.439 102.145 428.442 100.375 430.625C86.6845 448.738 83.5102 470.273 82.8007 492.473C82.7693 493.375 82.738 494.278 82.7057 495.208C82.6531 496.943 82.6185 498.679 82.6046 500.415C82.4957 504.376 82.2626 506.554 80.2108 510.035C77.8773 512.109 77.0606 512.664 73.9999 512.562C73.3399 512.564 72.6799 512.565 71.9999 512.566C68.8782 511.682 67.8474 510.702 65.9999 508C65.4407 504.638 65.5307 501.337 65.6249 497.938C65.6486 496.468 65.6486 496.468 65.6727 494.97C66.2466 469.972 69.677 442.603 84.9999 422C85.6405 421.118 86.2812 420.237 86.9413 419.328C92.3927 412.458 92.3927 412.458 97.2499 412.188Z"
            fill="black" />
        <path
            d="M235 279C236.351 280.1 237.662 281.25 238.938 282.438C244.811 287.849 250.513 289.637 258.492 289.344C265.911 288.327 271.317 284.281 276.859 279.488C279.3 277.791 281.058 277.301 284 277C287.813 278.064 288.75 278.625 291 282C291.675 285.223 291.539 287.156 289.75 289.957C282.521 298.709 273.19 304.113 262 306C249.568 306.926 239.106 304.413 229 297C221.241 290.216 221.241 290.216 220.688 285.125C221 282 221 282 222.812 279.688C227.023 276.44 230.394 276.798 235 279Z"
            fill="black" />
        <path
            d="M329 176C331.963 178.39 331.983 178.863 332.5 182.938C332.357 186.164 332.082 186.895 330 189.563C324.399 192.247 319.276 190.098 313.625 188.438C303.81 185.697 293.248 186.376 284 191C280.441 191.387 278.657 191.462 275.688 189.375C273.603 186.441 273.073 184.598 273 181C273.98 177.835 275.145 176.472 278.043 174.871C293.557 168.187 314.087 167.103 329 176Z"
            fill="black" />
        <path
            d="M287 214C287.949 214.66 288.898 215.32 289.875 216C293.888 218.568 297.262 219.23 302 219C305.229 217.758 307.639 216.259 310.438 214.25C314.029 212.498 316.203 212.945 320 214C322.489 216.168 322.918 217.588 323.563 220.812C322.745 225.448 320.569 228.005 317 231C308.696 235.762 300.024 237.328 290.563 235.539C284.921 233.874 280.333 230.967 276 227C274.391 223.781 274.403 220.481 275 217C278.651 212.464 281.583 212.479 287 214Z"
            fill="black" />
        <path
            d="M202 214C202.784 214.66 203.568 215.32 204.375 216C208.076 218.819 211.391 219.345 216 219C220.076 217.608 223.435 215.377 227 213C230.335 213.179 232.986 213.444 235.938 215.062C237.706 218.287 237.731 221.485 237 225C232.427 230.919 226.298 234.564 219 236C210.241 236.902 202.136 235.557 194.789 230.469C192.381 228.463 190.41 226.82 189 224C188.709 220.651 188.636 218.642 190.313 215.688C193.885 212.116 197.407 212.971 202 214Z"
            fill="black" />
        <path
            d="M430.625 351.062C434.028 352.008 434.949 352.295 437 355C438.943 362.098 439.231 369.735 439.75 377.062C439.807 377.788 439.863 378.514 439.922 379.262C440.148 383.047 440.234 385.839 438 389C435.323 391.082 433.882 390.996 430.437 390.875C427 390 427 390 425.359 388.437C423.508 385.118 423.171 381.844 422.812 378.125C422.735 377.378 422.659 376.63 422.58 375.861C422.361 373.575 422.173 371.289 422 369C421.946 368.308 421.893 367.616 421.838 366.903C421.281 358.674 421.281 358.674 422 355C425.062 351.818 426.144 350.985 430.625 351.062Z"
            fill="black" />
    </g>
    <defs>
        <clipPath id="clip0_461_21">
            <rect width="512" height="512" fill="white" />
        </clipPath>
    </defs>
</svg>