<svg width="512" height="512" viewBox="0 0 512 512" fill="none" xmlns="http://www.w3.org/2000/svg">
    <path fill-rule="evenodd" clip-rule="evenodd"
        d="M256.514 119.233C238.089 109.043 220.519 94.5203 214.118 77.7066C210.744 68.8442 210.527 58.569 214.792 52.3172C219.879 44.8622 227.278 43.3767 234.233 45.7131C241.516 48.1599 247.532 54.6177 248.758 62.4216C249.161 65.8612 251.803 68.7401 255.365 69.2685C259.624 69.9002 263.585 66.9321 264.212 62.6389C265.364 54.7446 271.422 48.1962 278.767 45.7283C285.722 43.3919 293.121 44.8775 298.208 52.3325C302.473 58.5842 302.256 68.8595 298.882 77.7219C292.485 94.5272 274.928 109.043 256.514 119.233Z"
        fill="black" />
    <path
        d="M256.514 119.233C238.089 109.043 220.519 94.5203 214.118 77.7066C210.744 68.8442 210.527 58.569 214.792 52.3172C219.879 44.8622 227.278 43.3767 234.233 45.7131C241.516 48.1599 247.532 54.6177 248.758 62.4216C249.161 65.8612 251.803 68.7401 255.365 69.2685C259.624 69.9002 263.585 66.9321 264.212 62.6389C265.364 54.7446 271.422 48.1962 278.767 45.7283C285.722 43.3919 293.121 44.8775 298.208 52.3325C302.473 58.5842 302.256 68.8595 298.882 77.7219C292.485 94.5272 274.928 109.043 256.514 119.233Z"
        fill="#F0CAB7" />
    <path fill-rule="evenodd" clip-rule="evenodd"
        d="M101 152C101 135.431 114.431 122 131 122H231.738C218.002 111.906 205.497 98.9216 199.564 83.3365C195.342 72.2465 193.493 55.8029 201.948 43.4116C211.487 29.4327 226.523 26.5587 239.162 30.8049C245.761 33.022 251.909 37.2311 256.506 42.9008C261.102 37.2388 267.245 33.0352 273.838 30.8202C286.477 26.574 301.513 29.4479 311.052 43.4269C319.507 55.8182 317.658 72.2617 313.436 83.3517C307.506 98.929 295.011 111.908 281.283 122H381C397.569 122 411 135.431 411 152V266H434C450.569 266 464 279.431 464 296V412H501C501 417.655 499.909 423.054 497.925 428C491.577 443.825 476.094 455 458 455H361V480H152V455H54C35.9064 455 20.4229 443.825 14.0753 428C12.0915 423.054 11 417.655 11 412H48V296C48 279.431 61.4315 266 78 266H101V152ZM381 138H131C123.268 138 117 144.268 117 152V266H395V152C395 144.268 388.732 138 381 138ZM101 282H411H434C441.732 282 448 288.268 448 296V412H64V296C64 288.268 70.268 282 78 282H101ZM48 428H464H479.751C474.835 434.672 466.923 439 458 439H361H152H54C45.0771 439 37.1651 434.672 32.2492 428H48ZM345 455H168V464H345V455ZM214.118 77.7066C220.519 94.5203 238.089 109.043 256.514 119.233C274.928 109.043 292.485 94.5272 298.882 77.7219C302.256 68.8595 302.473 58.5842 298.208 52.3325C293.121 44.8775 285.722 43.3919 278.767 45.7283C271.422 48.1962 265.364 54.7446 264.212 62.6389C263.585 66.9321 259.624 69.9002 255.365 69.2685C251.803 68.7401 249.161 65.8612 248.758 62.4216C247.532 54.6177 241.516 48.1599 234.233 45.7131C227.278 43.3767 219.879 44.8622 214.792 52.3172C210.527 58.569 210.744 68.8442 214.118 77.7066Z"
        fill="black" />
    <path d="M168 455H345V464H168V455Z" fill="black" fill-opacity="0.2" />
    <path
        d="M464 428H48H32.2492C37.1651 434.672 45.0771 439 54 439H152H361H458C466.923 439 474.835 434.672 479.751 428H464Z"
        fill="black" fill-opacity="0.2" />
</svg>