<svg width="512" height="512" viewBox="0 0 512 512" fill="none" xmlns="http://www.w3.org/2000/svg">
<g clip-path="url(#clip0_187_77)">
<path d="M242.859 8.64461C246.122 10.7106 249.092 13.0627 251.992 15.6095C254.141 17.3797 254.141 17.3797 258 17.0001C260.088 15.6107 260.088 15.6107 262.125 13.7501C271.977 5.91595 281.472 4.84075 293.772 5.73836C303.598 6.89263 311.786 12.5007 318 20.0001C324.634 30.2186 327.885 41.1249 325.316 53.2188C321.519 66.7074 313.383 75.0321 303.625 84.5626C302.495 85.6771 301.366 86.7923 300.238 87.9083C297.5 90.6137 294.753 93.3095 292 96.0001C292.835 96.0023 292.835 96.0023 293.687 96.0045C307.277 96.0417 320.867 96.1011 334.457 96.184C341.029 96.2234 347.601 96.2556 354.173 96.2711C360.521 96.2863 366.869 96.3208 373.216 96.3684C375.633 96.3832 378.049 96.3911 380.465 96.392C383.862 96.3943 387.257 96.4215 390.654 96.4542C391.643 96.4491 392.632 96.4441 393.651 96.4389C404.643 96.6015 412.954 100.01 420.836 107.629C430.19 117.878 431.171 129.234 431.114 142.559C431.114 143.467 431.114 144.376 431.114 145.312C431.113 148.282 431.106 151.252 431.098 154.223C431.096 156.295 431.094 158.367 431.093 160.439C431.09 165.869 431.08 171.299 431.069 176.729C431.058 182.28 431.054 187.83 431.049 193.381C431.038 204.254 431.021 215.127 431 226C431.868 226.051 432.736 226.101 433.631 226.153C434.782 226.229 435.934 226.305 437.121 226.383C438.257 226.454 439.394 226.525 440.564 226.598C451.826 227.915 460.929 234.399 468 243C474.431 252.895 476.31 262.428 476.227 274.006C476.227 275.08 476.228 276.154 476.228 277.261C476.227 280.788 476.211 284.316 476.195 287.844C476.192 290.299 476.189 292.753 476.187 295.208C476.179 301.653 476.159 308.097 476.137 314.541C476.117 321.124 476.108 327.707 476.098 334.289C476.076 347.193 476.043 360.096 476 373C476.847 372.984 477.694 372.969 478.567 372.952C481.731 372.901 484.896 372.864 488.061 372.835C489.426 372.82 490.792 372.8 492.157 372.774C494.128 372.737 496.099 372.722 498.07 372.707C499.254 372.691 500.437 372.676 501.657 372.66C505.405 373.041 507.799 374.044 511 376C513.784 381.568 512.579 389.676 511.129 395.5C506.284 408.971 497.412 418.706 484.59 424.957C477.624 427.762 471.753 428.282 464.291 428.227C463.237 428.227 462.182 428.228 461.096 428.228C457.628 428.227 454.16 428.211 450.691 428.195C448.28 428.192 445.869 428.189 443.457 428.187C437.123 428.179 430.789 428.16 424.455 428.137C417.986 428.117 411.517 428.108 405.049 428.098C392.366 428.076 379.683 428.043 367 428C366.707 428.78 366.414 429.56 366.112 430.364C361.895 440.363 349.662 445.289 340.216 449.141C323.934 455.456 306.344 458.499 289 460C289.33 462.64 289.66 465.28 290 468C291.058 468.419 291.058 468.419 292.137 468.846C298.792 471.484 305.442 474.131 312.088 476.789C315.505 478.156 318.923 479.518 322.345 480.872C325.649 482.179 328.949 483.496 332.246 484.82C334.113 485.567 335.985 486.304 337.856 487.04C338.997 487.5 340.138 487.961 341.313 488.435C342.317 488.834 343.321 489.234 344.355 489.646C347.209 491.107 348.979 492.518 351 495C351.5 498.5 351.5 498.5 351 502C348.781 504.907 347.481 505.84 344 507C341.668 507.099 339.332 507.135 336.998 507.141C336.281 507.144 335.564 507.146 334.825 507.15C332.416 507.158 330.007 507.16 327.598 507.161C325.874 507.166 324.149 507.171 322.424 507.176C317.734 507.189 313.044 507.196 308.354 507.2C305.424 507.203 302.495 507.207 299.565 507.212C290.4 507.225 281.236 507.235 272.072 507.239C261.489 507.243 250.907 507.261 240.325 507.29C232.147 507.312 223.97 507.322 215.792 507.323C210.907 507.324 206.022 507.33 201.137 507.348C196.542 507.364 191.946 507.366 187.35 507.358C185.665 507.357 183.979 507.361 182.293 507.371C179.989 507.384 177.687 507.378 175.383 507.368C174.095 507.369 172.806 507.371 171.479 507.372C167.673 506.965 165.245 505.999 162 504C160.454 500.908 160.706 498.406 161 495C163.775 491.554 166.619 490.055 170.687 488.435C172.398 487.744 172.398 487.744 174.144 487.04C175.983 486.317 175.983 486.317 177.859 485.578C179.132 485.069 180.404 484.559 181.676 484.048C185.013 482.711 188.355 481.386 191.698 480.064C195.113 478.71 198.523 477.345 201.934 475.981C208.618 473.309 215.307 470.65 222 468C222.33 465.36 222.66 462.72 223 460C222.444 459.935 221.887 459.871 221.314 459.804C196.24 456.818 164.894 452.975 147 433C146.299 431.348 145.627 429.682 145 428C143.93 428.026 142.861 428.052 141.759 428.079C137.786 428.17 133.813 428.227 129.839 428.275C128.12 428.3 126.401 428.334 124.683 428.377C122.21 428.438 119.739 428.466 117.266 428.488C116.499 428.514 115.732 428.54 114.942 428.567C111.066 428.569 109.382 428.36 106.515 425.657C105.127 423.223 104.623 421.668 104.712 419.5C104.743 418.758 104.843 417.945 105 417C106.655 414.352 106.655 414.352 109 412C111.767 411.375 111.767 411.375 115.021 411.375C116.883 411.357 116.883 411.357 118.783 411.338C120.162 411.35 121.542 411.362 122.922 411.374C124.386 411.369 125.85 411.362 127.314 411.353C131.343 411.335 135.371 411.347 139.4 411.365C143.283 411.376 147.166 411.365 151.049 411.354C151.509 411.353 151.969 411.352 152.429 411.35C159.959 411.333 167.487 411.334 175.016 411.347C185.914 411.366 196.812 411.355 207.709 411.337C225.405 411.308 243.101 411.299 260.797 411.306C277.962 411.311 295.126 411.312 312.29 411.304C313.874 411.303 313.874 411.303 315.491 411.302C327.026 411.296 338.562 411.287 350.097 411.275C351.112 411.273 352.127 411.272 353.172 411.271C354.843 411.269 356.513 411.268 358.184 411.266C360.571 411.263 362.957 411.26 365.344 411.258C377.213 411.243 389.083 411.237 400.952 411.246C408.404 411.251 415.855 411.25 423.306 411.243C427.603 411.24 431.9 411.24 436.197 411.249C440.136 411.257 444.074 411.255 448.013 411.247C449.433 411.246 450.853 411.248 452.273 411.253C464.505 411.3 476.199 411.119 486 403C489.362 398.984 491.665 394.67 494 390C336.92 390 179.84 390 18 390C23.9371 400.885 27.6827 406.09 39 410C44.3269 410.953 49.4681 411.134 54.8555 411.141C56.5462 411.159 58.237 411.179 59.9277 411.199C62.5679 411.228 65.2071 411.25 67.8474 411.251C70.4134 411.254 72.9774 411.288 75.543 411.328C76.3316 411.321 77.1202 411.314 77.9327 411.307C81.8317 411.394 83.6136 411.636 86.4973 414.355C87.6547 416.392 88.1929 417.816 88.2835 419.5C88.3378 420.51 88.231 421.614 88 423C86.6208 425.646 86.6208 425.646 84 428C80.53 428.765 77.108 428.7 73.5664 428.664C72.5375 428.669 71.5086 428.674 70.4485 428.679C68.2671 428.682 66.0858 428.673 63.9045 428.652C60.6051 428.625 57.3091 428.652 54.0098 428.684C36.7046 428.713 24.6776 426.232 11.8477 413.938C3.95952 405.712 -0.084356 396.335 -0.3125 385C-0.349883 383.783 -0.387266 382.566 -0.425781 381.313C0 378 0 378 1.83203 375.625C5.69071 372.733 8.95724 372.882 13.6367 372.902C15.5848 372.907 15.5848 372.907 17.5723 372.912C18.944 372.921 20.3158 372.929 21.6875 372.938C23.071 372.943 24.4544 372.947 25.8379 372.951C29.2253 372.963 32.6126 372.98 36 373C35.9963 372.445 35.9926 371.89 35.9888 371.318C35.9002 357.761 35.8344 344.204 35.7928 330.647C35.7719 324.091 35.7437 317.534 35.6982 310.978C35.6546 304.643 35.6308 298.308 35.6205 291.974C35.6131 289.564 35.5988 287.155 35.5771 284.746C35.3128 254.171 35.3128 254.171 46 241C46.5014 240.375 47.0029 239.75 47.5195 239.106C54.1203 231.734 64.1704 226.999 74 226C76.3333 225.991 78.6667 225.99 81 226C80.9956 224.847 80.9911 223.694 80.9865 222.505C80.9459 211.604 80.916 200.703 80.8964 189.802C80.886 184.198 80.8719 178.595 80.8491 172.991C80.8273 167.577 80.8154 162.163 80.8102 156.749C80.8066 154.69 80.7994 152.631 80.7885 150.572C80.627 118.619 80.627 118.62 91.6875 106.688C97.8298 100.93 105.556 96.9445 114.062 96.8231C114.85 96.8102 115.638 96.7974 116.449 96.7842C117.291 96.7768 118.133 96.7694 119 96.7618C119.873 96.7537 120.745 96.7457 121.645 96.7373C123.487 96.7235 125.329 96.7128 127.172 96.7049C129.057 96.6934 130.943 96.6728 132.828 96.6434C135.552 96.6008 138.276 96.5846 141 96.5743C142.263 96.548 142.263 96.548 143.551 96.5212C147.373 96.5354 149.359 96.5429 152.535 98.8079C154.67 102.003 154.47 104.244 154 108C152.24 111.185 151.501 111.833 148 113C145.341 113.118 142.703 113.185 140.043 113.211C138.439 113.239 136.836 113.268 135.232 113.297C132.711 113.338 130.19 113.375 127.669 113.401C125.231 113.429 122.793 113.475 120.355 113.524C119.608 113.527 118.861 113.53 118.092 113.533C112.509 113.664 108.455 114.928 104.172 118.543C103.703 119.086 103.233 119.628 102.75 120.188C102.27 120.717 101.791 121.247 101.297 121.793C97.852 127.656 97.6395 134.312 97.6875 140.938C97.6917 141.727 97.6959 142.517 97.7002 143.331C97.8549 151.303 99.0584 158.228 105 164C109.826 167.003 114.449 168.487 120.164 167.703C126.323 166.137 129.46 162.844 133.371 157.961C135.499 155.399 136.503 155.066 139.812 154.625C144.117 155.131 145.146 156.798 148 160C152.708 164.85 157.06 167.838 164 168C171.346 166.828 175.192 163.37 179.875 157.75C182.907 155.253 185.108 155 189 155C192.043 156.84 193.799 158.734 195.938 161.563C199.173 165.386 202.598 166.637 207.375 167.875C213.054 168.071 217.102 166.294 221.75 163.125C224.102 161.048 224.102 161.048 225.875 158.313C228 156 228 156 231.5 155.063C234.923 155.001 236.314 154.985 239 157C242 160.429 242 160.429 242 163C248.878 166.524 254.346 168.899 262.055 166.75C264.382 165.853 266.133 164.643 268 163C268.66 163 269.32 163 270 163C270.268 162.402 270.536 161.804 270.812 161.188C272.073 158.866 272.859 157.551 275 156C278.375 155.063 278.375 155.063 282 155C285.043 156.84 286.799 158.734 288.938 161.563C292.173 165.386 295.598 166.637 300.375 167.875C306.054 168.071 310.102 166.294 314.75 163.125C317.102 161.048 317.102 161.048 318.875 158.313C321 156 321 156 324.5 155.063C329.446 154.974 329.446 154.974 332 157C332.598 157.949 333.196 158.898 333.812 159.875C337.167 164.667 340.817 166.394 346.375 167.938C351.149 168.02 354.83 167.395 359 165C361.118 162.835 361.118 162.835 363.062 160.375C365.589 157.29 367.182 155.385 371.188 154.688C375.673 155.055 376.936 155.771 380 159C380.743 160.011 381.485 161.021 382.25 162.063C385.397 165.916 389.135 167.323 394 168C400.766 167.756 405.4 165.936 410 161C415.509 152.071 415.245 139.273 413.504 129.102C411.707 123.152 408.732 118.725 403.402 115.36C399.076 113.631 395.489 113.581 390.877 113.615C389.969 113.61 389.06 113.604 388.123 113.599C385.083 113.585 382.044 113.592 379.003 113.599C376.822 113.594 374.64 113.587 372.459 113.578C367.764 113.563 363.069 113.557 358.374 113.559C350.954 113.561 343.535 113.541 336.115 113.519C322.378 113.48 308.64 113.461 294.903 113.445C275.888 113.423 256.873 113.389 237.858 113.335C230.478 113.315 223.098 113.306 215.718 113.304C211.133 113.302 206.548 113.291 201.964 113.278C199.834 113.274 197.704 113.273 195.573 113.275C192.672 113.279 189.77 113.27 186.869 113.258C186.021 113.262 185.173 113.266 184.299 113.27C177.111 113.219 177.111 113.219 174 111C171.918 108.324 172.004 106.883 172.125 103.438C173 100 173 100 174.442 98.3172C178.436 96.2606 182.366 96.5191 186.797 96.4884C187.746 96.4704 188.694 96.4525 189.672 96.434C192.698 96.3798 195.724 96.346 198.75 96.3126C200.803 96.2794 202.857 96.2449 204.91 96.2091C209.94 96.1241 214.97 96.0573 220 96.0001C219.274 95.2951 218.548 94.5902 217.8 93.8638C215.073 91.2093 212.359 88.5408 209.648 85.8682C208.481 84.7203 207.309 83.576 206.134 82.4356C195.063 71.6853 186.115 61.1046 185.688 44.8751C186.142 33.3312 190.26 22.5758 198.867 14.5665C210.988 5.66457 228.791 1.83159 242.859 8.64461ZM207.73 28.9141C203.904 33.5271 201.881 39.0899 201.5 45.0626C202.35 51.755 204.716 56.8002 209.239 61.8087C209.859 62.5014 210.479 63.1941 211.118 63.9078C212.05 64.9435 212.05 64.9435 213 66.0001C214.088 67.25 215.175 68.5013 216.26 69.754C219.259 73.1812 222.341 76.5248 225.454 79.8482C226.77 81.2756 228.062 82.7246 229.329 84.1949C236.048 91.958 242.199 97.6447 252.716 98.9383C262.035 99.3137 268.649 97.5089 275.843 91.4915C280.055 87.5365 283.903 83.3061 287.75 79.0001C289.384 77.28 291.023 75.5651 292.668 73.8555C305.735 60.7054 305.735 60.7054 310.27 43.3126C309.522 36.8972 307.039 31.5375 302.375 27.0626C296.986 22.8253 290.778 20.5347 283.875 21.0626C276.393 22.8728 271.915 25.8547 266.641 31.379C263.727 34.2577 261.053 35.7306 256.977 36.2657C250.28 36.2187 247.027 32.7155 242.406 28.2305C237.437 23.6244 232.05 21.3633 225.289 20.9102C218.258 21.1862 212.784 24.133 207.73 28.9141ZM139 176C137.089 176.911 137.089 176.911 135.188 178.313C126.487 184.023 117.908 184.66 107.871 182.766C104.166 181.778 100.591 180.347 97 179C97 194.51 97 210.02 97 226C104.583 226.015 112.165 226.029 119.978 226.044C144.226 226.093 168.475 226.156 192.723 226.229C194.56 226.235 196.397 226.24 198.234 226.245C200.162 226.251 202.091 226.257 204.019 226.263C204.769 226.265 205.518 226.267 206.291 226.269C218.435 226.305 230.58 226.329 242.725 226.35C255.182 226.372 267.639 226.405 280.096 226.449C287.786 226.475 295.476 226.493 303.165 226.499C309.057 226.505 314.949 226.527 320.841 226.554C323.261 226.563 325.682 226.567 328.102 226.565C331.398 226.563 334.694 226.58 337.99 226.601C338.955 226.597 339.92 226.592 340.914 226.587C341.797 226.596 342.679 226.606 343.588 226.615C344.729 226.618 344.729 226.618 345.894 226.621C348.589 227.106 349.991 228.172 352 230C352.496 231.938 352.496 231.938 352.438 234C352.436 235.021 352.436 235.021 352.434 236.063C351.868 238.59 351.017 239.395 349 241C346.881 241.376 346.881 241.376 344.377 241.376C343.422 241.384 342.467 241.392 341.483 241.4C340.432 241.393 339.381 241.386 338.298 241.379C337.183 241.383 336.067 241.388 334.919 241.392C331.162 241.404 327.406 241.394 323.65 241.385C320.965 241.389 318.279 241.394 315.594 241.401C309.801 241.414 304.007 241.416 298.214 241.411C289.828 241.404 281.442 241.416 273.056 241.434C259.439 241.463 245.821 241.48 232.203 241.489C230.98 241.49 230.98 241.49 229.732 241.49C223.946 241.494 218.161 241.497 212.375 241.5C205.777 241.504 199.178 241.507 192.58 241.511C191.361 241.512 191.361 241.512 190.117 241.513C176.558 241.522 162.999 241.542 149.44 241.571C141.078 241.588 132.717 241.595 124.355 241.587C118.621 241.583 112.887 241.59 107.152 241.604C103.846 241.612 100.54 241.614 97.2333 241.605C93.6435 241.597 90.0541 241.607 86.4642 241.622C84.9074 241.611 84.9074 241.611 83.3192 241.601C73.3038 241.679 66.275 243.875 58.9492 250.805C51.7396 258.925 51.7634 267.751 51.6875 278.063C51.6585 279.348 51.6295 280.634 51.5996 281.959C51.5394 291.034 52.6141 298.008 57.7539 305.586C63.803 311.57 70.178 314.418 78.625 315.438C87.4683 314.291 94.9275 310.874 100.727 303.934C102.183 302.108 102.183 302.108 102 300C110.329 298.612 110.329 298.612 114 301C115.711 302.805 115.711 302.805 117.375 304.875C123.142 311.648 128.94 314.502 137.812 315.375C145.387 315.14 152.177 311.598 157.66 306.527C159.414 304.528 160.322 302.561 161 300C164.025 299.334 166.896 298.895 170 299C172.5 300.938 172.5 300.938 175 304C181.788 310.882 187.305 314.367 196.938 315.438C205.21 315.059 212.403 310.899 218 305C218.66 304.072 219.32 303.144 220 302.188C222 300 222 300 225.438 298.875C229 299 229 299 231.375 300.938C232.25 301.958 233.125 302.979 234 304C240.58 310.644 246.466 314.884 256 315.375C265.534 314.884 271.42 310.644 278 304C278.472 303.45 278.944 302.899 279.43 302.332C281.665 299.724 282.791 299.028 286.25 298.563C291.106 299.616 293.692 303.922 296.727 307.547C301.568 312.771 307.707 314.777 314.688 315.25C323.311 315.058 328.821 311.833 335.055 306.035C337.038 304.06 337.038 304.06 338.547 301.809C340 300 340 300 343.375 299C347 299 347 299 349.625 300.563C352 303 352 303 354.25 305.938C358.079 310.726 364.015 313.839 370 315C377.524 315.51 383.628 314.598 389.723 309.902C393.24 306.79 396.388 303.919 399 300C406.526 298.328 406.526 298.328 410 300C411 301.75 411 301.75 412 304C415.569 309.567 421.186 313.085 427.59 314.621C435.903 315.928 443.483 314.267 450.344 309.305C456.214 303.894 459.478 297.71 460.365 289.712C460.5 286.112 460.497 282.54 460.438 278.938C460.448 277.115 460.448 277.115 460.459 275.256C460.382 264.344 458.787 256.965 451.191 248.949C445.222 243.64 438.845 241.897 430.994 241.826C429.783 241.813 428.571 241.8 427.323 241.786C425.367 241.77 425.367 241.77 423.371 241.754C422.016 241.738 420.662 241.722 419.307 241.705C413.561 241.635 407.815 241.574 402.069 241.523C398.55 241.491 395.031 241.45 391.512 241.403C389.521 241.379 387.529 241.366 385.538 241.353C383.726 241.329 383.726 241.329 381.877 241.303C380.812 241.293 379.747 241.282 378.65 241.272C376 241 376 241 373 239C372.608 237.236 372.289 235.607 372.184 234C372.054 232.037 372.242 230.106 373 228C377.106 226.859 381.143 226.777 385.37 226.69C385.481 226.688 385.592 226.686 385.703 226.684C386.446 226.665 387.189 226.646 387.955 226.627C390.426 226.566 392.897 226.512 395.368 226.457C395.662 226.451 395.956 226.444 396.25 226.438C402.438 226.293 408.625 226.149 415 226C415 210.49 415 194.98 415 179C411.37 180.32 407.74 181.64 404 183C393.467 184.821 385.527 183.264 376.227 178.024C373.803 176.722 373.803 176.722 370 177C368.093 177.915 366.22 178.903 364.375 179.938C355.218 184.632 346.862 184.99 337 182C334.548 180.8 332.264 179.506 329.973 178.024C327.779 176.693 327.779 176.693 324 177C321.815 178.02 321.815 178.02 319.562 179.375C311.376 183.607 302.423 185.066 293.418 182.848C289.828 181.589 286.537 179.889 283.227 178.024C280.803 176.722 280.803 176.722 277 177C275.093 177.915 273.22 178.903 271.375 179.938C262.218 184.632 253.862 184.99 244 182C241.548 180.8 239.264 179.506 236.973 178.024C234.779 176.693 234.779 176.693 231 177C228.815 178.02 228.815 178.02 226.562 179.375C218.376 183.607 209.423 185.066 200.418 182.848C196.828 181.589 193.537 179.889 190.227 178.024C187.803 176.722 187.803 176.722 184 177C182.093 177.915 180.22 178.903 178.375 179.938C169.207 184.638 160.873 184.975 151 182C148.518 180.836 146.205 179.564 143.875 178.121C141.893 176.845 141.893 176.845 139 176ZM108 319C107.383 319.471 106.765 319.941 106.129 320.426C100.598 324.492 95.6629 327.328 89 329C87.7934 329.34 87.7934 329.34 86.5625 329.688C73.4504 331.287 63.7676 327.884 52 322C52 338.83 52 355.66 52 373C186.64 373 321.28 373 460 373C460 356.17 460 339.34 460 322C455.71 323.98 451.42 325.96 447 328C435.837 331.275 425.094 330.878 414.48 325.793C412.28 324.585 410.134 323.322 408 322C406.989 321.402 405.979 320.804 404.938 320.188C404.298 319.796 403.659 319.404 403 319C402.539 319.387 402.077 319.774 401.602 320.172C391.92 327.902 381.334 330.994 369 330C359.591 328.22 351.782 324.447 344 319C343.539 319.387 343.077 319.774 342.602 320.172C332.881 327.933 322.364 330.924 310 330C301.915 328.824 295.928 326.143 289.277 321.426C287.024 319.735 287.024 319.735 284 320C281.944 321.216 281.944 321.216 279.812 322.813C270.184 329.44 259.534 331.329 248.039 329.539C240.793 327.956 235.106 325.159 229 321C228.01 320.34 227.02 319.68 226 319C225.056 319.706 225.056 319.706 224.094 320.426C213.227 328.331 202.494 331.634 189.039 329.539C181.793 327.956 176.106 325.159 170 321C169.01 320.34 168.02 319.68 167 319C166.383 319.471 165.765 319.941 165.129 320.426C159.598 324.492 154.663 327.328 148 329C147.196 329.227 146.391 329.454 145.562 329.688C132.59 331.27 121.76 328.33 111 321C110.01 320.34 109.02 319.68 108 319ZM167 428C182.496 439.622 205.03 441.998 223.763 443.972C223.89 443.986 224.017 443.999 224.144 444.013C225.575 444.167 225.575 444.167 227.035 444.324C228.294 444.449 228.294 444.449 229.578 444.577C232.281 445.049 234.528 445.812 237 447C239.286 451.572 238.23 457.918 238.25 462.938C238.271 464.239 238.291 465.54 238.312 466.881C238.32 468.748 238.32 468.748 238.328 470.652C238.337 471.797 238.347 472.942 238.356 474.121C238 477 238 477 236.826 478.742C234.474 480.363 232.104 481.402 229.457 482.481C227.847 483.143 227.847 483.143 226.205 483.818C225.086 484.27 223.966 484.722 222.812 485.188C221.681 485.651 220.55 486.114 219.385 486.592C216.593 487.735 213.798 488.87 211 490C211 490.33 211 490.66 211 491C240.7 491 270.4 491 301 491C298.756 488.756 297.062 488.096 294.126 486.953C294.117 486.949 294.107 486.945 294.098 486.941C293.125 486.555 292.152 486.169 291.15 485.772C289.097 484.967 287.042 484.165 284.986 483.365C284.012 482.978 283.039 482.591 282.035 482.191C281.142 481.843 280.249 481.494 279.328 481.135C276.894 479.948 275.536 479.231 274 477C273.612 474.137 273.612 474.137 273.602 470.688C273.598 469.448 273.594 468.207 273.59 466.93C273.601 465.633 273.613 464.336 273.625 463C273.613 461.703 273.602 460.406 273.59 459.07C273.594 457.83 273.598 456.59 273.602 455.313C273.605 454.174 273.608 453.036 273.612 451.863C274 449 274 449 275.382 447.142C277.543 445.617 279.311 445.406 281.873 445.1C281.976 445.088 282.081 445.075 282.188 445.063C283.342 444.905 284.497 444.748 285.688 444.586C286.691 444.452 286.691 444.452 287.715 444.316C307.674 441.561 326.945 438.283 345 429C345 428.67 345 428.34 345 428C286.26 428 227.52 428 167 428Z" fill="black"/>
<path d="M207.73 28.9141C203.904 33.5271 201.881 39.0899 201.5 45.0626C202.35 51.755 204.716 56.8002 209.239 61.8087L211.118 63.9078L213 66.0001C214.088 67.25 215.175 68.5013 216.26 69.754C219.259 73.1812 222.341 76.5248 225.454 79.8482C226.77 81.2756 228.062 82.7246 229.329 84.1949C236.048 91.958 242.199 97.6447 252.716 98.9383C262.035 99.3137 268.649 97.5089 275.843 91.4915C280.055 87.5365 283.903 83.3061 287.75 79.0001C289.384 77.28 291.023 75.5651 292.668 73.8555C305.735 60.7054 305.735 60.7054 310.27 43.3126C309.522 36.8972 307.039 31.5375 302.375 27.0626C296.986 22.8253 290.778 20.5347 283.875 21.0626C276.393 22.8728 271.915 25.8547 266.641 31.379C263.727 34.2577 261.053 35.7306 256.977 36.2657C250.28 36.2187 247.027 32.7155 242.406 28.2305C237.437 23.6244 232.05 21.3633 225.289 20.9102C218.258 21.1862 212.784 24.133 207.73 28.9141Z" fill="#FFCED1"/>
<path d="M139 176C137.089 176.911 137.089 176.911 135.188 178.313C126.487 184.023 117.908 184.66 107.871 182.766C104.166 181.778 100.591 180.347 97 179V226L119.978 226.044C144.226 226.093 168.475 226.156 192.723 226.229L198.234 226.245L204.019 226.263L206.291 226.269C218.435 226.305 230.58 226.329 242.725 226.35C255.182 226.372 267.639 226.405 280.096 226.449C287.786 226.475 295.476 226.493 303.165 226.499C309.057 226.505 314.949 226.527 320.841 226.554C323.261 226.563 325.682 226.567 328.102 226.565C331.398 226.563 334.694 226.58 337.99 226.601L340.914 226.587L343.588 226.615L345.894 226.621C348.589 227.106 349.991 228.172 352 230C352.496 231.938 352.496 231.938 352.438 234H372.184C372.054 232.037 372.242 230.106 373 228C377.106 226.859 381.143 226.777 385.37 226.69L385.703 226.684L387.955 226.627C390.426 226.566 392.897 226.512 395.368 226.457L396.25 226.438L415 226V179L404 183C393.467 184.821 385.527 183.264 376.227 178.024C373.803 176.722 373.803 176.722 370 177C368.093 177.915 366.22 178.903 364.375 179.938C355.218 184.632 346.862 184.99 337 182C334.548 180.8 332.264 179.506 329.973 178.024C327.779 176.693 327.779 176.693 324 177C321.815 178.02 321.815 178.02 319.562 179.375C311.376 183.607 302.423 185.066 293.418 182.848C289.828 181.589 286.537 179.889 283.227 178.024C280.803 176.722 280.803 176.722 277 177C275.093 177.915 273.22 178.903 271.375 179.938C262.218 184.632 253.862 184.99 244 182C241.548 180.8 239.264 179.506 236.973 178.024C234.779 176.693 234.779 176.693 231 177C228.815 178.02 228.815 178.02 226.562 179.375C218.376 183.607 209.423 185.066 200.418 182.848C196.828 181.589 193.537 179.889 190.227 178.024C187.803 176.722 187.803 176.722 184 177C182.093 177.915 180.22 178.903 178.375 179.938C169.207 184.638 160.873 184.975 151 182C148.518 180.836 146.205 179.564 143.875 178.121C141.893 176.845 141.893 176.845 139 176Z" fill="#FFFEDD"/>
<path d="M108 319L106.129 320.426C100.598 324.492 95.6629 327.328 89 329L86.5625 329.688C73.4504 331.287 63.7676 327.884 52 322V373H460V322L447 328C435.837 331.275 425.094 330.878 414.48 325.793C412.28 324.585 410.134 323.322 408 322L404.938 320.188L403 319L401.602 320.172C391.92 327.902 381.334 330.994 369 330C359.591 328.22 351.782 324.447 344 319L342.602 320.172C332.881 327.933 322.364 330.924 310 330C301.915 328.824 295.928 326.143 289.277 321.426C287.024 319.735 287.024 319.735 284 320C281.944 321.216 281.944 321.216 279.812 322.813C270.184 329.44 259.534 331.329 248.039 329.539C240.793 327.956 235.106 325.159 229 321L226 319L224.094 320.426C213.227 328.331 202.494 331.634 189.039 329.539C181.793 327.956 176.106 325.159 170 321L167 319L165.129 320.426C159.598 324.492 154.663 327.328 148 329L145.562 329.688C132.59 331.27 121.76 328.33 111 321L108 319Z" fill="#FFFEDD"/>
<path d="M105 417C106.655 414.352 106.655 414.352 109 412C111.767 411.375 111.767 411.375 115.021 411.375L118.783 411.338C120.162 411.35 121.542 411.362 122.922 411.374C124.386 411.369 125.85 411.362 127.314 411.353C131.343 411.335 135.371 411.347 139.4 411.365C143.283 411.376 147.166 411.365 151.049 411.354L152.429 411.35C159.959 411.333 167.487 411.334 175.016 411.347C185.914 411.366 196.812 411.355 207.709 411.337C225.405 411.308 243.101 411.299 260.797 411.306C277.962 411.311 295.126 411.312 312.29 411.304L315.491 411.302C327.026 411.296 338.562 411.287 350.097 411.275L353.172 411.271L358.184 411.266C360.571 411.263 362.957 411.26 365.344 411.258C377.213 411.243 389.083 411.237 400.952 411.246C408.404 411.251 415.855 411.25 423.306 411.243C427.603 411.24 431.9 411.24 436.197 411.249C440.136 411.257 444.074 411.255 448.013 411.247C449.433 411.246 450.853 411.248 452.273 411.253C464.505 411.3 476.199 411.119 486 403C489.362 398.984 491.665 394.67 494 390H18C23.9371 400.885 27.6827 406.09 39 410C44.3269 410.953 49.4681 411.134 54.8555 411.141C56.5462 411.159 58.237 411.179 59.9277 411.199C62.5679 411.228 65.2071 411.25 67.8474 411.251C70.4134 411.254 72.9774 411.288 75.543 411.328L77.9327 411.307C81.8317 411.394 83.6136 411.636 86.4973 414.355C87.6547 416.392 88.1929 417.816 88.2835 419.5H104.712C104.743 418.758 104.843 417.945 105 417Z" fill="#D2D2D2"/>
<path d="M167 428C182.496 439.622 205.03 441.998 223.763 443.972L224.144 444.013L227.035 444.324L229.578 444.577C232.281 445.049 234.528 445.812 237 447C239.286 451.572 238.23 457.918 238.25 462.938L238.312 466.881L238.328 470.652L238.356 474.121C238 477 238 477 236.826 478.742C234.474 480.363 232.104 481.402 229.457 482.481L226.205 483.818L222.812 485.188L219.385 486.592C216.593 487.735 213.798 488.87 211 490V491H301C298.756 488.756 297.062 488.096 294.126 486.953L294.098 486.941L291.15 485.772C289.097 484.967 287.042 484.165 284.986 483.365L282.035 482.191L279.328 481.135C276.894 479.948 275.536 479.231 274 477C273.612 474.137 273.612 474.137 273.602 470.688L273.59 466.93L273.625 463L273.59 459.07L273.602 455.313L273.612 451.863C274 449 274 449 275.382 447.142C277.543 445.617 279.311 445.406 281.873 445.1L282.188 445.063L285.688 444.586L287.715 444.316C307.674 441.561 326.945 438.283 345 429V428H167Z" fill="#D2D2D2"/>
<path d="M136.438 344.562C138.012 344.532 138.012 344.532 139.619 344.502C141.136 344.503 141.136 344.503 142.684 344.504C144.069 344.501 144.069 344.501 145.482 344.498C148.775 345.154 149.963 346.376 152 349C152.5 352.5 152.5 352.5 152 356C149.781 358.907 148.481 359.84 145 361C142.195 361.148 139.431 361.231 136.625 361.25C135.87 361.271 135.114 361.291 134.336 361.312C129.71 361.345 126.783 360.952 123 358C121.039 355.414 120.987 354.212 121.188 350.937C123.353 343.109 129.537 344.516 136.438 344.562Z" fill="black"/>
<path d="M427.562 344.5C428.616 344.498 429.67 344.495 430.756 344.492C438.463 344.591 438.463 344.591 440.769 346.35C442.648 348.87 442.875 350.886 443 354C441.825 356.721 440.84 358.404 438.414 360.125C434.84 361.42 431.313 361.289 427.562 361.25C426.436 361.262 426.436 361.262 425.287 361.274C421.127 361.259 417.716 361.084 414 359C411.658 355.488 411.503 354.135 412 350C415.301 343.239 420.943 344.321 427.562 344.5Z" fill="black"/>
<path d="M369 344.563C369.998 344.556 370.995 344.548 372.023 344.541C380.369 344.614 380.369 344.614 384 348C385.123 351.049 385.13 352.569 384.187 355.688C382.939 358.119 381.986 359.632 379.367 360.609C375.957 361.172 372.571 361.225 369.125 361.25C368.083 361.281 368.083 361.281 367.019 361.313C362.256 361.348 359.03 360.539 355 358C353.454 354.908 353.706 352.406 354 349C357.403 343.382 363.162 344.446 369 344.563Z" fill="black"/>
<path d="M78.438 344.5C80.0129 344.458 80.0129 344.458 81.6196 344.414C89.2841 344.395 89.2841 344.395 92.727 347.305C94.4629 350.979 94.0759 353.128 93.0005 357C91.1051 359.585 90.1122 359.963 87.0005 361C84.1953 361.149 81.4312 361.231 78.6255 361.25C77.8701 361.271 77.1147 361.291 76.3364 361.313C71.7241 361.345 68.7377 360.995 65.0005 358C63.0005 355 63.0005 355 63.188 351.5C65.1278 343.144 71.1023 344.482 78.438 344.5Z" fill="black"/>
<path d="M311 344.5C311.998 344.485 312.995 344.469 314.023 344.453C321.254 344.492 321.254 344.492 324.66 346.813C326.627 350.024 326.461 352.312 326 356C324.733 358.408 323.964 359.651 321.383 360.586C317.968 361.179 314.579 361.225 311.125 361.25C310.083 361.281 310.083 361.281 309.019 361.313C304.256 361.348 301.03 360.539 297 358C295.454 354.908 295.706 352.406 296 349C299.402 343.394 305.162 344.41 311 344.5Z" fill="black"/>
<path d="M253 344.5C253.998 344.485 254.995 344.469 256.023 344.453C263.255 344.492 263.255 344.492 266.656 346.813C268.647 350.053 268.531 352.28 268 356C265.781 358.907 264.481 359.84 261 361C258.362 361.123 255.763 361.185 253.125 361.188C252.417 361.2 251.71 361.212 250.98 361.225C246.887 361.236 243.608 361.004 240 359C237.52 355.28 237.537 353.402 238 349C241.415 343.398 247.155 344.409 253 344.5Z" fill="black"/>
<path d="M195 344.5C195.998 344.484 196.995 344.469 198.023 344.453C205.255 344.492 205.255 344.492 208.656 346.812C210.646 350.052 210.531 352.28 210 356C207.781 358.907 206.481 359.84 203 361C200.362 361.122 197.763 361.185 195.125 361.187C194.417 361.2 193.71 361.212 192.98 361.225C188.872 361.236 185.656 360.922 182 359C179.439 356.439 179.685 354.571 179.539 351.07C181.266 343.312 188.609 344.401 195 344.5Z" fill="black"/>
<path d="M385.438 197.563C386.392 197.543 387.347 197.523 388.33 197.502C395.284 197.507 395.284 197.507 398.629 199.809C400.655 203.047 400.534 205.265 400 209C398.625 211.184 398.625 211.184 396 213C392.493 213.624 389.055 213.604 385.5 213.563C384.075 213.598 384.075 213.598 382.622 213.635C375.715 213.62 375.715 213.62 372.34 210.691C370.512 207.02 370.916 204.904 372 201C375.4 196.464 380.242 197.524 385.438 197.563Z" fill="black"/>
<path d="M333.438 197.563C334.392 197.543 335.347 197.523 336.33 197.502C343.284 197.507 343.284 197.507 346.629 199.809C348.655 203.047 348.534 205.265 348 209C346.625 211.184 346.625 211.184 344 213C340.493 213.624 337.055 213.604 333.5 213.563C332.075 213.598 332.075 213.598 330.622 213.635C323.715 213.62 323.715 213.62 320.34 210.691C318.512 207.02 318.916 204.904 320 201C323.4 196.464 328.242 197.524 333.438 197.563Z" fill="black"/>
<path d="M281.312 197.688C282.276 197.659 283.239 197.63 284.232 197.6C291.306 197.536 291.306 197.536 294.64 199.766C296.896 203.472 296.477 205.705 296 210C294.785 211.721 294.785 211.721 293 213C290.687 213.388 290.687 213.388 288 213.398C287.03 213.402 286.061 213.406 285.062 213.41C284.052 213.399 283.041 213.387 282 213.375C280.989 213.387 279.978 213.398 278.937 213.41C277.968 213.406 276.998 213.402 276 213.398C275.113 213.395 274.226 213.392 273.312 213.388C270.533 212.922 269.674 212.23 268 210C266.877 206.31 266.662 204.69 268.375 201.188C271.797 196.58 275.822 197.742 281.312 197.688Z" fill="black"/>
<path d="M230.562 197.563C231.521 197.555 232.479 197.548 233.467 197.541C240.489 197.605 240.489 197.605 242.742 199.347C244.656 201.862 244.875 203.871 245 207C243.862 209.327 242.832 211.168 241 213C237.383 213.28 233.752 213.232 230.125 213.25C228.596 213.281 228.596 213.281 227.035 213.313C226.057 213.318 225.078 213.323 224.07 213.328C223.171 213.337 222.271 213.347 221.344 213.356C219 213 219 213 217.21 211.726C215.51 209.302 215.587 206.927 215.504 204.035C217.352 196.456 224.219 197.43 230.562 197.563Z" fill="black"/>
<path d="M178.5 197.438C179.45 197.414 180.4 197.39 181.379 197.365C188.286 197.38 188.286 197.38 191.66 200.309C193.488 203.981 193.084 206.097 192 210C190.365 212.182 189.501 212.908 186.795 213.404C184.05 213.436 181.308 213.458 178.563 213.438C177.131 213.468 177.131 213.468 175.67 213.498C168.717 213.493 168.717 213.493 165.371 211.191C163.345 207.954 163.467 205.735 164 202C167.432 196.551 172.712 197.371 178.5 197.438Z" fill="black"/>
<path d="M126.5 197.438C127.45 197.414 128.4 197.39 129.379 197.365C136.286 197.38 136.286 197.38 139.66 200.309C141.488 203.981 141.084 206.097 140 210C138.365 212.182 137.501 212.908 134.795 213.404C132.05 213.436 129.308 213.458 126.563 213.438C125.131 213.468 125.131 213.468 123.67 213.498C116.717 213.493 116.717 213.493 113.371 211.191C111.345 207.954 111.467 205.735 112 202C115.432 196.551 120.712 197.371 126.5 197.438Z" fill="black"/>
</g>
<defs>
<clipPath id="clip0_187_77">
<rect width="512" height="512" fill="white"/>
</clipPath>
</defs>
</svg>
