<svg width="512" height="512" viewBox="0 0 512 512" fill="none" xmlns="http://www.w3.org/2000/svg">
    <g clip-path="url(#clip0_469_54)">
        <path fill-rule="evenodd" clip-rule="evenodd"
            d="M390.626 9.18709C383.192 16.296 378.916 25.4078 378.519 35.7153C378.424 46.5476 381.224 55.4979 385.001 65.5621C385.581 67.1699 386.16 68.7787 386.735 70.3883C388.129 74.2695 389.555 78.1373 391.001 81.9996L387.572 81.1861L383.016 80.109L380.769 79.5753C352.962 73.0092 322.867 72.0759 295.001 78.9996L292.744 79.5348C248.335 90.3126 209.921 120.491 186.001 159V161L183.72 160.488C178.61 159.817 173.642 159.989 168.501 160.187L165.192 160.314C147.202 161.197 142.002 161.452 137.306 163.123C135.396 163.802 133.57 164.715 131.001 166L132.27 162.85C133.825 158.99 135.377 155.128 136.927 151.266C137.599 149.595 138.271 147.925 138.944 146.255C139.912 143.853 140.877 141.45 141.841 139.046L142.753 136.789C147.153 125.791 147.822 114.361 143.13 103.293C137.961 92.7948 130.862 87.0248 120.001 82.9996C110.25 79.8368 98.9897 81.5741 90.0009 85.9996L65.0009 95.9996L40.0009 106C31.6807 110.776 25.0528 118.171 21.8485 127.273C19.1451 139.158 20.2053 151.195 26.6259 161.644C33.8135 171.632 45.1117 176.391 56.1609 181.046C56.9804 181.391 57.7986 181.736 58.6136 182.082C60.662 182.952 62.7047 183.836 64.7469 184.72C72.883 188.218 74.3696 188.857 75.8962 188.973C76.2375 189 76.5808 189 77.0009 189V191L74.8954 191.675C71.3216 193.31 68.6115 195.617 65.6884 198.187L63.9425 199.699C62.8003 200.69 61.6601 201.682 60.5223 202.678C59.2955 203.744 58.0495 204.787 56.7977 205.824C24.4705 232.786 4.06628 275.487 0.000854492 317C-0.366255 323.141 -0.3886 329.287 -0.374146 335.437L-0.373535 337.962C-0.338967 351.65 0.679828 364.674 4.00085 378L4.5199 380.22C15.1077 424.697 45.6226 462.996 84.0465 486.874C124.873 511.431 173.406 517.577 219.493 506.476C250.642 498.436 276.89 481.981 300.001 460L301.919 458.242C311.265 449.407 319.522 438.064 326.001 427V425L329.001 426C374.702 428.484 419.732 411.836 453.841 381.693C455.57 380.139 457.289 378.573 459.001 377L461.552 374.668C491.166 346.315 511.049 303.405 512.29 262.434C512.37 258.476 512.387 254.52 512.376 250.562L512.371 248.027C512.243 218.786 505.596 190.578 491.001 165L489.955 163.114C479.466 144.265 465.17 126.786 448.013 113.636C446.91 112.859 446.384 112.489 446.004 112.004C445.658 111.562 445.432 111.026 445.001 110L448.179 108.794C452.103 107.302 456.023 105.799 459.942 104.293C461.633 103.645 463.324 103 465.016 102.358C467.462 101.43 469.904 100.491 472.345 99.5504L474.606 98.7006C483.791 95.1302 492.388 90.1297 497.688 81.6246L499.45 78.8512C504.42 69.7124 504.545 58.4844 502.161 48.4722C498.433 38.7197 492.5 32 483 25.5L426.559 1.21444C413.897 -1.85465 400.804 1.00222 390.626 9.18709ZM482.001 65.9996C482.682 61.8373 482.663 57.9608 481.306 53.941C473.044 37.7994 425.556 18.4295 410.001 21.9996C405.629 23.7279 403.278 26.6051 401.036 30.6324C400.202 37.036 399.778 40.2924 400.152 43.4545C400.539 46.7262 401.779 49.8971 404.302 56.3487C404.814 57.7529 405.321 59.1589 405.823 60.5665C406.832 63.405 407.842 66.2425 408.867 69.075C409.979 72.1438 411.074 75.2144 412.128 78.3038C412.757 80.1799 413.392 82.0541 414.034 83.9256L414.876 86.3746C415.766 89.1096 416.691 91.411 418.001 93.9996C420.67 95.4843 422.218 96.1472 425.251 95.575L427.571 94.6129L430.249 93.5335L433.126 92.3121C435.178 91.4714 437.23 90.6302 439.282 89.7887C442.726 88.3525 446.172 86.9314 449.638 85.5494C452.1 84.5772 454.56 83.6019 457.02 82.6234L460.626 81.1871L464.126 79.8075L467.415 78.4801C473.955 75.8696 478.8 72.401 482.001 65.9996ZM125.001 124C125.598 118.649 125.455 114.1 122.313 109.562C106.606 92.1565 52.4254 116.852 42.8094 131.859C40.7494 136.478 40.8321 140.134 42.2157 144.964C46.1252 150.026 48.1172 152.605 50.6016 154.557C53.1824 156.585 56.2947 157.937 62.6399 160.692L65.4501 161.968C67.4512 162.879 69.4532 163.788 71.4559 164.695C74.5896 166.102 77.7193 167.514 80.837 168.956C82.8876 169.904 84.9426 170.843 87.0023 171.771L89.9501 173.093L92.7786 174.418L95.4293 175.584C96.5903 176.174 97.1507 176.459 97.7434 176.634C98.2964 176.798 98.8775 176.867 100.001 177C103.058 175.709 104.61 174.632 106.361 171.801L107.404 169.212L108.617 166.267L109.864 163.086C110.761 160.859 111.657 158.631 112.55 156.402C113.93 152.888 115.313 149.376 116.731 145.876C117.659 143.592 118.579 141.304 119.492 139.013L120.802 135.711C122.372 131.846 123.894 128.025 125.001 124ZM421.235 173.156L419.001 171C395.621 148.394 366.659 134.789 333.673 135.718C299.946 138.302 273.115 151.503 250.001 176C252.291 178.724 255.035 180.23 258.14 181.903C276.113 191.525 291.361 203.336 305.045 218.433C340.556 258.529 352.299 306.823 349.22 359.406L349.001 363C372.717 363.41 398.393 349.26 415.231 333.255C437.799 310.879 450.747 282.197 451.313 250.25C450.624 222.309 440.938 193.557 421.235 173.156ZM285.798 228.632L284.001 227C228.146 175.134 145.318 164.341 82.5751 211.984L80.0009 214C75.1295 217.707 70.4094 221.483 66.1454 225.886C32.6113 261.539 20.042 301.193 20.8239 349.433C22.6726 386.687 41.9548 424.143 69.3094 449.05C101.632 477.765 141.574 493.053 185.047 490.658C225.756 487.843 264.115 469.104 291.042 438.394L292.688 436.5C296.773 431.898 300.116 427.447 303.001 422C301.002 421.515 299.002 421.037 297.001 420.562C294.666 420.049 292.332 419.528 290.001 419C288.572 418.553 287.136 418.13 285.688 417.75C283.338 418.107 282.157 418.287 281.176 418.828C280.185 419.374 279.397 420.288 277.813 422.125C275.811 424.696 273.868 427.137 271.599 429.48L269.001 432C267.225 433.745 265.433 435.474 263.626 437.187C237.765 461.008 202.642 471.319 167.933 470.078L166.001 470C134.139 468.91 101.283 453.692 79.3915 430.64L77.0009 428C65.7932 415.802 57.0109 402.645 50.7008 387.283C37.7667 354.198 37.1222 316.828 51.1503 283.947L52.0009 282C58.1626 267.853 66.3722 253.468 77.8407 242.941L80.0009 241C88.3436 232.749 96.7496 225.957 106.97 220.14L109.001 219C133.591 205.001 161.986 199.459 190.106 202.503C226.177 207.04 258.159 224.814 280.732 253.378L282.001 255C302.605 281.254 312.424 316.274 308.725 349.471C308.198 353.588 307.819 356.93 309.001 361C313.845 362.111 318.577 363.142 323.563 363.187C325.589 363.314 326.358 363.363 326.93 363.049C327.28 362.857 327.556 362.529 328.001 362C329.385 352.267 330.371 342.414 330.188 332.578C328.2 294.63 313.878 255.242 285.798 228.632ZM372.596 99.6837L370.001 98.9996C347.976 92.9589 321.993 94.5879 300.016 99.7183C263.061 108.849 229.221 131.423 209.001 164L229.001 169C233.847 163.184 238.856 157.833 244.247 152.539C270.572 127.301 305.558 115.263 341.692 115.875C373.53 117.077 408.324 129.438 430.407 153.211L432.001 155L434.095 157.226C461.461 186.748 472.271 221.941 470.911 261.621C468.613 293.956 453.301 325.617 429.567 347.566L428.001 349C424.875 351.89 421.712 354.717 418.407 357.402C390.197 379.451 353.344 387.207 318.251 383.312C283.882 377.868 252.835 359.91 231.269 332.622L230.001 331C206.628 301.217 200.385 264.965 203.782 228.07L204.001 226C197.741 223.866 191.579 223.41 185.001 223C183.171 230.449 182.248 234.207 181.851 238.02C181.448 241.904 181.591 245.844 181.88 253.796L182.001 257C182.47 271.767 184.5 288 189.5 302C194.5 316 203.032 330.5 213 343.5C222.968 356.5 247.208 376.199 247.208 376.199C275.114 395.537 307.402 405.688 341.419 405.121L345.001 405C381.448 403.804 421.046 386.633 446.243 359.98L448.001 358C466.406 337.273 480.662 314.21 487.481 287.113L488.001 285C490.75 274.035 491.262 263.224 491.308 251.957L491.313 249.687C491.483 216.032 481.088 183.46 460.247 156.804L458.001 154C452.963 147.478 447.825 141.574 441.583 136.175L439.001 134C419.22 116.884 397.841 106.457 372.596 99.6837ZM239.755 396.083L237.813 394.812C222.556 385.038 203.782 364.5 195.5 353C187.218 341.499 183.5 336 174.001 315C164.502 293.999 160.981 257.359 162.782 226.593L163.001 223C160.628 222.958 158.318 222.964 155.958 223.226C126.929 228.62 102.451 244.104 84.1571 267.101C66.2492 291.173 58.0497 320.753 61.6688 350.671L62.0009 353C65.8091 380.894 81.2109 405.625 102.212 423.808C126.294 444.014 156.611 452.113 187.645 449.718C217.278 446.196 243.022 431.774 262.001 409C254.463 404.899 246.968 400.739 239.755 396.083ZM289.192 338.934C289.153 307.919 278.666 278.558 256.688 256.25C256.101 255.674 255.476 255.054 254.817 254.401C246.94 246.597 234.225 234 224.001 234C220.554 250.957 223.209 269.167 228.399 285.464C238.772 315.978 259.461 338.415 288.001 353C288.796 348.281 289.147 343.719 289.192 338.934Z"
            fill="black" />
        <path
            d="M284.001 227L285.798 228.632C313.878 255.242 328.2 294.63 330.188 332.578C330.371 342.414 329.385 352.267 328.001 362C327.556 362.529 327.28 362.857 326.93 363.049C326.358 363.363 325.589 363.314 323.563 363.187C318.577 363.142 313.845 362.111 309.001 361C307.819 356.93 308.198 353.588 308.725 349.471C312.424 316.274 302.605 281.254 282.001 255L280.732 253.378C258.159 224.814 226.177 207.04 190.106 202.503C161.986 199.459 133.591 205.001 109.001 219L106.97 220.14C96.7496 225.957 88.3436 232.749 80.0009 241L77.8407 242.941C66.3722 253.468 58.1626 267.853 52.0009 282L51.1503 283.947C37.1222 316.828 37.7667 354.198 50.7008 387.283C57.0109 402.645 65.7932 415.802 77.0009 428L79.3915 430.64C101.283 453.692 134.139 468.91 166.001 470L167.933 470.078C202.642 471.319 237.765 461.008 263.626 437.187C265.433 435.474 267.225 433.745 269.001 432L271.599 429.48C273.868 427.137 275.811 424.696 277.813 422.125C279.397 420.288 280.185 419.374 281.176 418.828C282.157 418.287 283.338 418.107 285.688 417.75C287.136 418.13 288.572 418.553 290.001 419C292.332 419.528 294.666 420.049 297.001 420.562C299.002 421.037 301.002 421.515 303.001 422C300.116 427.447 296.773 431.898 292.688 436.5L291.042 438.394C264.115 469.104 225.756 487.843 185.047 490.658C141.574 493.053 101.632 477.765 69.3094 449.05C41.9548 424.143 22.6726 386.687 20.8239 349.433C20.042 301.193 32.6113 261.539 66.1454 225.886C70.4094 221.483 75.1295 217.707 80.0009 214L82.5751 211.984C145.318 164.341 228.146 175.134 284.001 227Z"
            fill="#FFDBBC" />
        <path
            d="M370.001 98.9996L372.596 99.6837C397.841 106.457 419.22 116.884 439.001 134L441.583 136.175C447.825 141.574 452.963 147.478 458.001 154L460.247 156.804C481.088 183.46 491.483 216.032 491.313 249.687L491.308 251.957C491.262 263.224 490.75 274.035 488.001 285L487.481 287.113C480.662 314.21 466.406 337.273 448.001 358L446.243 359.98C421.046 386.633 381.448 403.804 345.001 405L341.419 405.121C307.402 405.688 275.114 395.537 247.208 376.199C247.208 376.199 222.968 356.5 213 343.5C203.032 330.5 194.5 316 189.5 302C184.5 288 182.47 271.767 182.001 257L181.88 253.796C181.591 245.844 181.448 241.904 181.851 238.02C182.248 234.207 183.171 230.449 185.001 223C191.579 223.41 197.741 223.866 204.001 226L203.782 228.07C200.385 264.965 206.628 301.217 230.001 331L231.269 332.622C252.835 359.91 283.882 377.868 318.251 383.312C353.344 387.207 390.197 379.451 418.407 357.402C421.712 354.717 424.875 351.89 428.001 349L429.567 347.566C453.301 325.617 468.613 293.956 470.911 261.621C472.271 221.941 461.461 186.748 434.095 157.226L432.001 155L430.407 153.211C408.324 129.438 373.53 117.077 341.692 115.875C305.558 115.263 270.572 127.301 244.247 152.539C238.856 157.833 233.847 163.184 229.001 169L209.001 164C229.221 131.423 263.061 108.849 300.016 99.7183C321.993 94.5879 347.976 92.9589 370.001 98.9996Z"
            fill="#FFDBBC" />
    </g>
    <defs>
        <clipPath id="clip0_469_54">
            <rect width="512" height="512" fill="white" transform="matrix(-1 0 0 1 512 0)" />
        </clipPath>
    </defs>
</svg>