<svg width="512" height="512" viewBox="0 0 512 512" fill="none" xmlns="http://www.w3.org/2000/svg">
    <path
        d="M406.122 115.528C403.737 117.912 401.352 120.295 398.965 122.676C393.848 127.787 388.74 132.906 383.639 138.033C375.577 146.135 367.494 154.217 359.408 162.296C343.72 177.976 328.052 193.678 312.387 209.382C292.415 229.4 272.432 249.409 252.433 269.4C244.392 277.438 236.362 285.486 228.339 293.542C223.358 298.539 218.37 303.529 213.38 308.517C211.063 310.837 208.749 313.16 206.438 315.486C203.292 318.653 200.134 321.808 196.974 324.96C196.055 325.89 195.137 326.82 194.191 327.778C189.967 331.968 187.328 334.261 181.577 336.171C181.126 335.117 180.674 334.063 180.209 332.977C177.372 327.882 173.972 324.385 169.844 320.259C168.271 318.687 166.699 317.115 165.079 315.496C162.612 313.059 162.612 313.059 160.095 310.572C158.451 308.919 156.806 307.265 155.112 305.562C152.753 303.218 152.753 303.218 150.347 300.827C148.181 298.675 148.181 298.675 145.972 296.48C142.678 292.945 142.678 292.945 138.613 293.351C138.613 292.122 138.613 290.894 138.613 289.628C137.38 289.628 136.148 289.628 134.877 289.628C134.877 288.399 134.877 287.17 134.877 285.904C133.644 285.904 132.412 285.904 131.141 285.904C130.525 284.061 129.908 282.218 129.273 280.319C128.04 280.319 126.808 280.319 125.537 280.319C125.537 279.09 125.537 277.861 125.537 276.596C124.304 276.596 123.072 276.596 121.801 276.596C121.801 275.367 121.801 274.138 121.801 272.872C120.568 272.872 119.336 272.872 118.065 272.872C118.065 271.643 118.065 270.415 118.065 269.149C116.832 269.149 115.6 269.149 114.329 269.149C114.329 267.92 114.329 266.691 114.329 265.425C113.096 265.425 111.864 265.425 110.593 265.425C110.593 264.196 110.593 262.968 110.593 261.702C109.36 261.702 108.128 261.702 106.857 261.702C106.857 260.473 106.857 259.244 106.857 257.978C105.624 257.978 104.392 257.978 103.121 257.978C103.121 256.749 103.121 255.521 103.121 254.255C101.888 254.255 100.656 254.255 99.3853 254.255C99.3853 253.026 99.3853 251.797 99.3853 250.531C98.1524 250.531 96.9196 250.531 95.6493 250.531C95.6493 249.302 95.6493 248.074 95.6493 246.808C94.4164 246.808 93.1836 246.808 91.9133 246.808C91.9133 245.579 91.9133 244.35 91.9133 243.084C90.6804 243.084 89.4476 243.084 88.1773 243.084C87.5609 241.241 86.9444 239.398 86.3093 237.499C76.6489 229.1 67.4933 224.92 54.5533 224.467C40.1346 226.708 30.9196 233.724 22.0969 245.062C17.3217 254.201 17.3257 264.762 19.0614 274.734C24.4005 285.517 31.195 293.213 39.7215 301.633C41.0347 302.951 42.3478 304.27 43.7007 305.628C48.0194 309.957 52.3582 314.265 56.6986 318.572C59.7192 321.586 62.739 324.601 65.758 327.617C72.077 333.923 78.406 340.219 84.7423 346.508C92.8559 354.563 100.944 362.642 109.025 370.729C115.252 376.955 121.492 383.168 127.736 389.377C130.724 392.351 133.707 395.329 136.687 398.311C140.853 402.478 145.037 406.626 149.226 410.77C150.449 412 151.672 413.23 152.932 414.498C160.767 422.2 168.026 428.39 179.301 430C180.977 429.986 182.653 429.971 184.379 429.956C186.055 429.971 187.731 429.985 189.458 430C213.451 426.574 233.926 397.841 250.379 381.437C252.927 378.903 255.476 376.369 258.025 373.835C264.894 367.005 271.758 360.169 278.62 353.331C282.913 349.054 287.207 344.778 291.502 340.502C306.498 325.574 321.489 310.641 336.475 295.703C350.429 281.795 364.393 267.898 378.361 254.005C390.379 242.052 402.39 230.092 414.395 218.126C421.555 210.989 428.717 203.856 435.887 196.73C442.621 190.037 449.345 183.336 456.062 176.627C458.526 174.17 460.993 171.716 463.463 169.265C466.838 165.915 470.202 162.554 473.563 159.19C474.539 158.227 475.514 157.264 476.52 156.272C486.991 145.737 493.75 136.513 494 121.489C493.862 109.868 491.26 103.391 483.376 94.7267C474.351 86.6099 468.178 82.7279 455.823 82.2764C453.298 82.1396 453.298 82.1396 450.722 82C432.23 85.1301 418.718 102.823 406.122 115.528Z"
        fill="white" />
</svg>