<svg width="512" height="512" viewBox="0 0 512 512" fill="none" xmlns="http://www.w3.org/2000/svg">
<g clip-path="url(#clip0_188_92)">
<path d="M142.324 229.492C143.844 229.483 143.844 229.483 145.396 229.473C148.78 229.457 152.163 229.47 155.547 229.482C157.979 229.477 160.41 229.47 162.842 229.461C168.752 229.445 174.663 229.447 180.573 229.459C185.379 229.468 190.184 229.469 194.989 229.465C196.016 229.464 196.016 229.464 197.064 229.463C198.456 229.462 199.847 229.46 201.239 229.459C214.276 229.448 227.312 229.461 240.349 229.482C251.526 229.5 262.702 229.497 273.879 229.479C286.87 229.457 299.862 229.449 312.853 229.461C314.239 229.462 315.625 229.464 317.012 229.465C318.035 229.466 318.035 229.466 319.078 229.467C323.876 229.47 328.673 229.464 333.47 229.455C339.932 229.442 346.393 229.451 352.854 229.474C355.225 229.48 357.595 229.478 359.965 229.469C363.203 229.458 366.439 229.472 369.677 229.492C370.613 229.483 371.549 229.474 372.514 229.465C378.454 229.536 383.066 230.564 388 234C391.666 238.229 392.335 241.545 393 247C394.098 246.991 395.195 246.982 396.325 246.973C406.683 246.892 417.04 246.832 427.398 246.793C432.723 246.772 438.047 246.744 443.372 246.698C448.514 246.655 453.655 246.631 458.797 246.621C460.755 246.613 462.714 246.599 464.672 246.577C467.422 246.548 470.172 246.544 472.922 246.546C474.127 246.524 474.127 246.524 475.357 246.502C481.001 246.543 485.277 247.861 490 251C494.435 255.662 495.126 259.094 495.121 265.397C495.122 266.375 495.122 266.375 495.123 267.372C495.125 269.56 495.119 271.748 495.114 273.936C495.114 275.503 495.114 277.07 495.114 278.637C495.115 282.895 495.109 287.153 495.102 291.411C495.095 295.859 495.095 300.308 495.094 304.756C495.091 313.181 495.082 321.607 495.072 330.032C495.061 339.623 495.056 349.214 495.051 358.805C495.04 378.537 495.023 398.268 495 418C495.926 417.965 496.851 417.93 497.805 417.895C501.999 418.033 503.76 419.394 507 422C510.412 425.873 512.113 428.203 512.177 433.339C512.19 434.237 512.203 435.135 512.216 436.06C512.227 437.521 512.227 437.521 512.239 439.012C512.247 440.013 512.255 441.015 512.263 442.047C512.277 444.171 512.288 446.295 512.295 448.42C512.313 451.657 512.357 454.894 512.401 458.131C512.411 460.195 512.419 462.26 512.426 464.324C512.444 465.288 512.461 466.252 512.479 467.245C512.459 473.378 511.629 477.003 508 482C502.328 486.399 498.05 487.148 491.063 487.134C490.242 487.137 489.42 487.139 488.574 487.141C485.797 487.148 483.02 487.148 480.243 487.147C478.241 487.15 476.24 487.154 474.238 487.158C468.719 487.168 463.2 487.172 457.682 487.175C451.737 487.179 445.792 487.188 439.847 487.197C426.16 487.216 412.473 487.226 398.786 487.234C392.024 487.239 385.262 487.244 378.5 487.249C355.356 487.267 332.212 487.282 309.069 487.289C307.616 487.29 306.162 487.29 304.709 487.291C303.628 487.291 303.628 487.291 302.526 487.292C298.874 487.293 295.223 487.294 291.572 487.295C290.847 487.295 290.123 487.296 289.376 487.296C265.88 487.304 242.384 487.327 218.888 487.36C194.053 487.394 169.217 487.414 144.381 487.417C141.655 487.417 138.929 487.418 136.203 487.418C135.532 487.419 134.861 487.419 134.169 487.419C123.363 487.421 112.558 487.437 101.752 487.457C90.8916 487.478 80.0315 487.483 69.1713 487.474C63.2868 487.469 57.4025 487.471 51.518 487.49C46.1323 487.508 40.7469 487.507 35.3611 487.491C33.4115 487.489 31.4619 487.493 29.5124 487.505C26.8633 487.52 24.2154 487.511 21.5664 487.495C20.8085 487.505 20.0507 487.515 19.2699 487.526C13.7902 487.455 9.59283 486.016 5.00032 483C1.23033 479.037 -0.109418 475.946 -0.176682 470.532C-0.189517 469.631 -0.202352 468.729 -0.215576 467.801C-0.222963 466.829 -0.23035 465.857 -0.237961 464.855C-0.246033 463.853 -0.254104 462.85 -0.262421 461.817C-0.276253 459.695 -0.286979 457.572 -0.294846 455.45C-0.312058 452.21 -0.355952 448.972 -0.40007 445.732C-0.410197 443.669 -0.418713 441.606 -0.425461 439.543C-0.442969 438.577 -0.460477 437.611 -0.478516 436.616C-0.460108 430.885 0.115319 427.518 4.00032 423C8.59734 418.95 10.893 417.867 17.0003 418C16.9966 417.187 16.9929 416.374 16.9891 415.536C16.9008 395.748 16.8346 375.959 16.7931 356.17C16.7724 346.6 16.7443 337.03 16.6986 327.46C16.6587 319.118 16.6329 310.777 16.624 302.435C16.6188 298.019 16.6065 293.603 16.5774 289.186C16.5502 285.027 16.5419 280.869 16.5479 276.71C16.5468 275.185 16.5389 273.661 16.5235 272.137C16.3854 257.732 16.3854 257.732 21.0003 252C26.8596 247.456 31.2997 246.855 38.5108 246.886C39.3793 246.886 40.2478 246.886 41.1427 246.886C44.0158 246.887 46.8889 246.895 49.762 246.902C51.7532 246.904 53.7443 246.906 55.7354 246.907C60.978 246.91 66.2207 246.92 71.4633 246.931C76.8122 246.942 82.1612 246.946 87.5101 246.951C98.0068 246.962 108.504 246.979 119 247C119.133 245.911 119.266 244.822 119.403 243.699C120.105 239.352 121.12 237.323 124 234C129.857 229.921 135.357 229.426 142.324 229.492ZM137 248C137 304.1 137 360.2 137 418C215.54 418 294.08 418 375 418C375 361.9 375 305.8 375 248C296.46 248 217.92 248 137 248ZM35.0003 265C35.0003 315.49 35.0003 365.98 35.0003 418C62.7203 418 90.4403 418 119 418C119 367.51 119 317.02 119 265C91.2803 265 63.5603 265 35.0003 265ZM393 265C393 315.49 393 365.98 393 418C420.72 418 448.44 418 477 418C477 367.51 477 317.02 477 265C449.28 265 421.56 265 393 265ZM18.0003 436C18.0003 446.89 18.0003 457.78 18.0003 469C175.08 469 332.16 469 494 469C494 458.11 494 447.22 494 436C336.92 436 179.84 436 18.0003 436Z" fill="black"/>
<path d="M18.0003 436V469H494V436H18.0003Z" fill="#D2D2D2"/>
<path d="M393 265V418H477V265H393Z" fill="#D2D2D2"/>
<path d="M35.0003 265V418H119V265H35.0003Z" fill="#D2D2D2"/>
<path d="M114.352 54.1251C119.44 59.9127 120.59 65.8943 120.518 73.3944C120.525 74.2979 120.532 75.2015 120.539 76.1324C120.556 79.0977 120.545 82.0621 120.531 85.0274C120.534 87.1019 120.538 89.1765 120.543 91.251C120.549 95.5909 120.54 99.9305 120.522 104.27C120.499 109.816 120.512 115.361 120.536 120.907C120.55 125.189 120.546 129.471 120.535 133.753C120.533 135.797 120.536 137.841 120.545 139.885C120.556 142.749 120.54 145.612 120.518 148.476C120.526 149.31 120.534 150.144 120.542 151.004C120.424 159.331 117.354 166.379 111.692 172.496C106.328 177.265 100.097 179.082 93.0001 179C84.1697 178.355 78.7581 174.86 72.6876 168.625C68.2592 161.736 67.012 155.154 68.0001 147C69.7828 139.309 73.4714 134.38 80.0001 130C84.6858 127.154 88.5061 126.611 93.8751 126.813C96.2263 126.874 98.5776 126.936 101 127C101.33 119.08 101.66 111.16 102 103C99.1951 103.433 96.3901 103.866 93.5001 104.313C85.3881 105.541 77.2641 106.654 69.1251 107.688C68.11 107.819 67.0948 107.95 66.0489 108.085C65.0866 108.205 64.1244 108.326 63.1329 108.449C61.8628 108.609 61.8628 108.609 60.567 108.772C57.7004 109.027 54.8765 109.037 52.0001 109C52.0068 109.569 52.0134 110.138 52.0203 110.724C52.087 116.678 52.132 122.632 52.1649 128.586C52.1799 130.804 52.2004 133.023 52.2264 135.241C52.2631 138.44 52.2799 141.64 52.2931 144.84C52.3086 145.822 52.324 146.803 52.34 147.815C52.3421 156.654 50.4707 164.236 44.8634 171.207C40.1238 175.768 33.637 178.629 27.0626 179.066C19.5581 178.825 12.6889 177.08 7.0001 172C0.0744686 163.415 -0.809204 155.78 0.000102505 145C1.86742 138.272 6.36974 134.246 11.5626 129.813C18.4338 126.19 25.452 125.625 33.0001 127C33.0015 126.291 33.003 125.582 33.0044 124.852C33.0223 118.144 33.0641 111.436 33.1322 104.728C33.1664 101.28 33.1916 97.8321 33.1957 94.3839C33.2008 90.4118 33.246 86.4407 33.2931 82.4688C33.2872 80.6278 33.2872 80.6278 33.2812 78.7495C33.4024 71.5882 34.1509 66.4764 39.0001 61.0001C42.8616 57.8212 47.0385 57.2272 51.8751 56.5626C52.6752 56.4455 53.4753 56.3285 54.2997 56.2079C57.198 55.7914 60.0989 55.3961 63.0001 55.0001C64.2194 54.828 65.4387 54.6559 66.6949 54.4786C70.0562 54.0058 73.4183 53.542 76.7821 53.088C78.7583 52.82 80.7335 52.545 82.7086 52.2699C106.676 49.1238 106.676 49.1238 114.352 54.1251ZM92.8399 69.4432C91.6635 69.5885 91.6635 69.5885 90.4632 69.7368C89.213 69.8961 89.213 69.8961 87.9376 70.0587C87.0687 70.1673 86.1998 70.2759 85.3045 70.3878C83.4721 70.6175 81.6398 70.8488 79.8077 71.0814C77.0103 71.4363 74.2123 71.7859 71.4142 72.1349C69.6303 72.3592 67.8464 72.5838 66.0626 72.8087C65.2291 72.9129 64.3957 73.0171 63.537 73.1245C62.7527 73.2245 61.9683 73.3245 61.1603 73.4276C60.4758 73.5142 59.7914 73.6008 59.0863 73.69C56.7103 74.0432 54.3555 74.529 52.0001 75.0001C52.0001 80.2801 52.0001 85.5601 52.0001 91.0001C68.7367 89.5036 85.357 87.2857 102 85.0001C102 79.7201 102 74.4401 102 69.0001C98.778 69.0001 95.9796 69.0496 92.8399 69.4432ZM22.2501 145.25C19.9639 146.954 19.9639 146.954 18.0001 149C17.5718 152.855 17.4411 155.128 19.5626 158.438C22.9423 160.604 25.0599 160.563 29.0001 160C31.7162 158.07 32.747 156.658 33.9376 153.563C34.0224 150.087 33.2248 148.655 31.0001 146C27.4263 144.135 25.9738 143.557 22.2501 145.25ZM88.0001 147C85.6439 149.886 85.6439 149.886 86.1876 153.5C86.7838 156.846 86.7838 156.846 88.1251 158.938C91.2343 160.699 93.5085 160.482 97.0001 160C100.147 158.104 100.147 158.104 102 155C102 151.428 101.746 149.119 99.7501 146.125C95.1547 143.171 92.2542 143.781 88.0001 147Z" fill="black"/>
<path d="M22.2501 145.25C19.9639 146.954 19.9639 146.954 18.0001 149C17.5718 152.855 17.4411 155.128 19.5626 158.438C22.9423 160.604 25.0599 160.563 29.0001 160C31.7162 158.07 32.747 156.658 33.9376 153.563C34.0224 150.087 33.2248 148.655 31.0001 146C27.4263 144.135 25.9738 143.557 22.2501 145.25Z" fill="#FFCED1"/>
<path d="M88.0001 147C85.6439 149.886 85.6439 149.886 86.1876 153.5C86.7838 156.846 86.7838 156.846 88.1251 158.938C91.2343 160.699 93.5085 160.482 97.0001 160C100.147 158.104 100.147 158.104 102 155C102 151.428 101.746 149.119 99.7501 146.125C95.1547 143.171 92.2542 143.781 88.0001 147Z" fill="#FFCED1"/>
<path d="M507 89C511.886 94.4001 512.156 97.9971 512.177 105.096C512.183 106.039 512.19 106.983 512.197 107.955C512.217 111.087 512.228 114.219 512.238 117.352C512.242 118.421 512.246 119.49 512.251 120.592C512.271 126.255 512.286 131.918 512.295 137.582C512.306 143.426 512.34 149.27 512.38 155.114C512.406 159.611 512.415 164.108 512.418 168.605C512.423 170.759 512.435 172.912 512.453 175.066C512.478 178.087 512.477 181.107 512.47 184.127C512.483 185.012 512.495 185.896 512.509 186.808C512.451 193.742 510.506 198.7 506.324 204.207C500.521 209.899 494.748 212.478 486.613 213.059C478.663 212.88 471.532 209.692 466 204C461.329 197.413 459.346 191.107 460 183C462.575 173.714 465.818 168.037 474.098 163.016C479.971 159.88 486.52 160.941 493 161C493.33 153.08 493.66 145.16 494 137C490.7 137.66 487.4 138.32 484 139C481.355 139.388 478.705 139.746 476.051 140.07C475.349 140.156 474.647 140.242 473.924 140.331C472.46 140.509 470.996 140.685 469.531 140.86C467.306 141.126 465.081 141.4 462.857 141.676C461.422 141.849 459.986 142.023 458.551 142.195C457.268 142.35 455.986 142.505 454.665 142.665C451.086 142.992 447.591 143.06 444 143C444.009 143.606 444.018 144.213 444.027 144.838C444.116 151.181 444.176 157.524 444.22 163.868C444.24 166.232 444.267 168.595 444.302 170.959C444.35 174.367 444.373 177.775 444.391 181.184C444.411 182.231 444.432 183.278 444.453 184.357C444.455 192.087 442.9 198.011 438.324 204.305C431.487 210.864 424.444 213.182 415 213C407.475 211.957 401.941 208.751 397 203C392.767 196.424 391.126 189.782 392 182C394.268 173.802 397.975 167.509 405.437 163.125C409.888 161.069 413.466 160.77 418.348 160.867C420.221 160.896 420.221 160.896 422.133 160.925C423.079 160.95 424.025 160.975 425 161C425.004 160.316 425.007 159.632 425.011 158.928C425.053 151.789 425.122 144.652 425.207 137.514C425.238 134.852 425.257 132.191 425.271 129.529C425.292 125.696 425.339 121.864 425.391 118.031C425.392 116.848 425.393 115.664 425.394 114.444C425.536 106.39 426.459 100.541 432.375 94.625C438.279 90.9702 444.692 90.3433 451.445 89.4922C452.451 89.3618 453.458 89.2315 454.494 89.0972C456.621 88.8236 458.747 88.5532 460.874 88.2856C464.094 87.8789 467.313 87.4577 470.531 87.0352C472.607 86.77 474.682 86.5056 476.758 86.2422C477.705 86.1172 478.652 85.9923 479.628 85.8635C499.714 83.3837 499.714 83.3837 507 89ZM486.345 103.551C485.404 103.671 484.463 103.791 483.494 103.915C482.482 104.046 481.469 104.177 480.426 104.313C479.387 104.446 478.348 104.579 477.277 104.716C473.955 105.142 470.634 105.571 467.312 106C465.062 106.289 462.811 106.578 460.56 106.867C455.04 107.576 449.52 108.287 444 109C444 114.28 444 119.56 444 125C455.066 124.354 465.911 123.015 476.875 121.438C478.545 121.201 480.216 120.964 481.887 120.729C485.925 120.158 489.962 119.579 494 119C494 113.72 494 108.44 494 103C491.361 103 488.956 103.215 486.345 103.551ZM412 181.063C409.66 183.907 409.66 183.907 410 187.625C411.091 191.532 411.091 191.532 414 194C416.365 195.006 416.365 195.006 419 195C422.486 193.378 423.843 192.235 426 189C425.82 185.638 425.581 183.001 423.875 180.063C419.525 177.598 415.961 178.339 412 181.063ZM480.625 180.688C478.781 183.312 478.078 184.789 478 188C479.26 190.851 480.359 192.53 482.875 194.375C485.698 195.205 487.224 194.972 490 194C492.437 192.48 492.437 192.48 494 190C494.563 186.06 494.604 183.942 492.437 180.563C488.325 177.926 484.633 177.84 480.625 180.688Z" fill="black"/>
<path d="M412 181.063C409.66 183.907 409.66 183.907 410 187.625C411.091 191.532 411.091 191.532 414 194C416.365 195.006 416.365 195.006 419 195C422.486 193.378 423.843 192.235 426 189C425.82 185.638 425.581 183.001 423.875 180.063C419.525 177.598 415.961 178.339 412 181.063Z" fill="#FFCED1"/>
<path d="M480.625 180.688C478.781 183.312 478.078 184.789 478 188C479.26 190.851 480.359 192.53 482.875 194.375C485.698 195.205 487.224 194.972 490 194C492.437 192.48 492.437 192.48 494 190C494.563 186.06 494.604 183.942 492.437 180.563C488.325 177.926 484.633 177.84 480.625 180.688Z" fill="#FFCED1"/>
<path d="M246 273C250.127 276.455 253.545 279.662 255 285C255.66 285 256.32 285 257 285C257.263 284.255 257.526 283.51 257.797 282.742C261.957 273.261 271.936 268.736 281 265C291.652 262.294 302.225 264.273 311.805 269.543C322.956 276.949 329.95 286.937 333 300C334.086 311.006 333.77 321.882 329 332C328.638 332.782 328.276 333.565 327.903 334.371C321.513 346.87 310.713 358.292 300.051 367.266C297.709 369.246 295.452 371.307 293.188 373.375C288.847 377.298 284.356 380.99 279.805 384.664C275.941 387.883 272.271 391.295 268.606 394.738C260.396 401.865 260.396 401.865 255 402C250.167 399.964 246.447 397.076 242.563 393.625C241.962 393.1 241.362 392.576 240.743 392.035C239.472 390.925 238.203 389.812 236.936 388.697C235.025 387.022 233.103 385.362 231.176 383.707C224.218 377.727 217.367 371.655 210.641 365.414C208.41 363.375 206.137 361.43 203.813 359.5C192.446 349.622 180.134 333.446 178.823 317.9C178.37 301.309 180.05 288.591 191.879 276C207.841 261.038 228.502 260.425 246 273ZM202.954 290.785C196.999 297.537 196.289 304.357 196.555 313.215C197.719 323.109 202.535 330.67 209 338C209.789 338.909 210.578 339.818 211.391 340.754C215.668 345.576 220.018 350.115 224.95 354.266C227.291 356.246 229.549 358.307 231.813 360.375C236.239 364.372 240.804 368.162 245.438 371.914C248.678 374.551 251.844 377.264 255 380C276.302 370.451 305.702 341.222 314.165 320.094C316.222 312.478 316.302 303.749 313 296.5C308.866 289.521 303.181 284.535 295.29 282.379C289.437 281.41 284.826 282.08 279.875 285.438C272.281 291.797 268.166 300.245 264.36 309.215C263.108 311.779 262.288 313.331 260 315C252.982 315.78 252.982 315.78 249.887 313.32C247.8 310.754 246.86 308.545 245.75 305.438C242.328 296.85 236.898 286.892 228 283C218.076 280.112 210.108 283.869 202.954 290.785Z" fill="black"/>
<path d="M202.954 290.785C196.999 297.537 196.289 304.357 196.555 313.215C197.719 323.109 202.535 330.67 209 338L211.391 340.754C215.668 345.576 220.018 350.115 224.95 354.266C227.291 356.246 229.549 358.307 231.813 360.375C236.239 364.372 240.804 368.162 245.438 371.914C248.678 374.551 251.844 377.264 255 380C276.302 370.451 305.702 341.222 314.165 320.094C316.222 312.478 316.302 303.749 313 296.5C308.866 289.521 303.181 284.535 295.29 282.379C289.437 281.41 284.826 282.08 279.875 285.438C272.281 291.797 268.166 300.245 264.36 309.215C263.108 311.779 262.288 313.331 260 315C252.982 315.78 252.982 315.78 249.887 313.32C247.8 310.754 246.86 308.545 245.75 305.438C242.328 296.85 236.898 286.892 228 283C218.076 280.112 210.108 283.869 202.954 290.785Z" fill="#FFCED1"/>
<path d="M234 102C236.519 104.028 238.378 106.178 240.324 108.75C245.814 115.729 252.78 117.849 261.152 120.094C263.599 121.294 264.072 122.481 265 125C265.5 128.92 265.342 130.487 263.125 133.812C260.165 136.86 259.43 136.966 255.062 137.312C251.048 137.295 247.925 136.41 244.184 134.98C243.208 134.612 242.233 134.244 241.228 133.864C240.493 133.579 239.758 133.294 239 133C239.009 133.644 239.018 134.288 239.027 134.951C239.116 141.684 239.176 148.417 239.22 155.15C239.24 157.659 239.267 160.168 239.302 162.677C239.35 166.294 239.373 169.91 239.391 173.527C239.411 174.64 239.432 175.753 239.453 176.9C239.455 184.787 238.201 191.106 233.105 197.305C225.724 203.348 219.853 205.609 210.219 205.344C202.767 204.548 197.452 201.33 192.437 195.84C187.883 190.011 186.827 183.23 187 176C188.615 167.47 192.874 161.237 199.926 156.258C205.755 152.723 212.63 152.001 219.238 153.512C220.11 153.753 220.11 153.753 221 154C220.993 153.447 220.987 152.895 220.98 152.325C220.913 146.566 220.868 140.808 220.835 135.049C220.82 132.9 220.8 130.752 220.774 128.603C220.737 125.513 220.72 122.423 220.707 119.332C220.691 118.373 220.676 117.415 220.66 116.427C220.659 111.491 220.672 107.946 224 104C227.75 101.5 229.558 101.464 234 102ZM208.187 172.562C205.501 175.555 204.839 176.974 205 181C206.913 184.496 206.913 184.496 210 187C213 187.917 213 187.917 216 187C219.363 184.514 220.801 183.086 221.562 178.937C220.863 175.287 220.018 174.144 217 172C213.183 170.701 211.742 170.588 208.187 172.562Z" fill="black"/>
<path d="M208.187 172.562C205.501 175.555 204.839 176.974 205 181C206.913 184.496 206.913 184.496 210 187C213 187.917 213 187.917 216 187C219.363 184.514 220.801 183.086 221.562 178.937C220.863 175.287 220.018 174.144 217 172C213.183 170.701 211.742 170.588 208.187 172.562Z" fill="#FFCED1"/>
<path d="M353 25.0001C356.519 27.1115 358.52 29.6878 360.812 33.0001C364.841 38.5431 369.692 40.5619 376.25 42.0001C381.84 43.4909 381.84 43.4909 384 47.0001C384.605 50.133 384.631 52.87 384 56.0001C382.187 58.5626 382.187 58.5626 379 60.0001C373.552 60.7322 368.939 60.4544 363.811 58.473C363.096 58.1985 362.381 57.924 361.644 57.6411C361.101 57.4296 360.559 57.2181 360 57.0001C359.994 57.6065 359.988 58.213 359.982 58.8377C359.918 65.1815 359.833 71.5247 359.737 77.868C359.704 80.2316 359.676 82.5952 359.653 84.9589C359.619 88.3675 359.567 91.7754 359.511 95.1837C359.502 96.7546 359.502 96.7546 359.492 98.3572C359.32 107.047 358.035 114.939 351.836 121.426C344.695 127.548 337.785 128.775 328.492 128.41C320.688 127.494 316.335 124.112 311.476 118.055C306.511 111.145 305.975 104.283 307 96.0001C309.504 87.6417 314.917 81.9429 322.375 77.6251C328.417 76.1864 333.918 75.6944 340 77.0001C340.003 76.4202 340.007 75.8402 340.011 75.2427C340.053 69.2078 340.122 63.1737 340.207 57.1393C340.235 54.8871 340.257 52.6348 340.271 50.3824C340.292 47.1451 340.339 43.909 340.39 40.672C340.392 39.6646 340.393 38.6571 340.394 37.6192C340.541 30.6251 340.541 30.6251 342.913 27.3956C346.491 25.0031 348.663 24.5749 353 25.0001ZM327 97.0001C324.728 98.8672 324.728 98.8672 324.625 101.813C325.096 105.821 325.961 107.351 329 110C332.665 110.524 334.988 110.453 338.375 108.938C340.833 106.007 341 103.779 341 100C339.201 96.8177 337.949 95.3894 334.562 94.0001C331.231 94.0001 329.661 95.0577 327 97.0001Z" fill="black"/>
<path d="M327 97.0001C324.728 98.8672 324.728 98.8672 324.625 101.813C325.096 105.821 325.961 107.351 329 110C332.665 110.524 334.988 110.453 338.375 108.938C340.833 106.007 341 103.779 341 100C339.201 96.8177 337.949 95.3894 334.562 94.0001C331.231 94.0001 329.661 95.0577 327 97.0001Z" fill="#FFCED1"/>
<path d="M91.9995 285C98.4859 289.412 101.212 295.521 103 303C104.3 311.084 101.487 318.002 97.2495 324.812C90.0484 331.814 83.242 333.439 73.3941 333.34C66.5455 332.654 61.1999 329.661 56.562 324.625C50.6627 316.787 49.9781 309.72 50.9995 300C51.9207 296.967 53.1886 294.587 54.9995 292C55.5564 291.113 56.1133 290.226 56.687 289.312C66.7102 279.289 79.7781 278.788 91.9995 285ZM69.9995 302C68.5552 304.889 68.6227 306.796 68.9995 310C71.4856 313.363 72.9138 314.801 77.062 315.562C80.7121 314.864 81.8552 314.018 83.9995 311C85.164 308.096 85.164 308.096 84.9995 305C83.0791 301.543 81.8173 300.278 78.062 299C74.4271 299 72.8509 299.8 69.9995 302Z" fill="black"/>
<path d="M451 354C456.771 359.383 460.405 364.07 461.371 372.078C461.556 380.943 460.183 387.463 454.062 394.102C447.947 399.73 442.28 401.851 434 402C426.24 401.398 419.725 397.952 414.394 392.297C409.519 385.95 408.181 378.852 409 371C410.328 363.91 413.6 358.754 419 354C428.61 347.581 441.478 347.03 451 354ZM429 370C426.98 372.547 426.991 373.789 427.125 377.063C427.783 380.01 427.783 380.01 429.625 381.875C433.007 383.477 435.306 383.528 439 383C441.961 380.418 442.867 378.811 443.5 374.938C442.882 371.312 441.915 370.187 439 368C435.084 366.042 432.499 367.794 429 370Z" fill="black"/>
<path d="M452.813 286.75C459.814 293.951 461.44 300.758 461.34 310.606C460.655 317.454 457.661 322.8 452.625 327.438C445.012 333.18 438.424 333.851 429 333C422.504 331.64 417.212 328.342 413.555 322.816C409.16 315.169 407.624 308.177 409.579 299.406C412.17 291.773 417.093 286.509 424.27 282.84C434.626 278.941 443.593 281.013 452.813 286.75ZM430.188 300.563C427.564 303.487 427.082 305.099 427 309C428.121 312.361 428.946 312.964 432 315C434.915 315.584 434.915 315.584 438 315C441.364 312.514 442.801 311.086 443.563 306.938C442.864 303.288 442.018 302.144 439 300C435.184 298.701 433.743 298.588 430.188 300.563Z" fill="black"/>
<path d="M94.0004 355C99.6646 359.972 102.369 365.856 103.282 373.293C103.604 381.108 100.972 387.982 96.0004 394C87.2346 400.793 79.8946 401.786 69.0004 401C62.2344 399.353 57.953 394.5 54.0004 389C50.191 382.733 50.1186 376.131 51.0004 369C53.2396 361.526 57.6677 356.42 64.0004 352C73.9159 346.806 85.2177 348.506 94.0004 355ZM73.2504 368.25C69.7615 370.812 69.7615 370.812 68.6254 374.813C69.0969 378.821 69.9614 380.351 73.0004 383C76.6944 383.528 78.9929 383.477 82.3754 381.875C84.6498 379.251 84.9313 377.452 85.0004 374C83.6162 370.418 82.5406 369.282 79.1254 367.5C75.9834 366.702 75.9834 366.702 73.2504 368.25Z" fill="black"/>
</g>
<defs>
<clipPath id="clip0_188_92">
<rect width="512" height="512" fill="white"/>
</clipPath>
</defs>
</svg>
