<svg width="820" height="820" viewBox="0 0 820 820" fill="none" xmlns="http://www.w3.org/2000/svg">
    <g clip-path="url(#clip0_507_97)">
        <path
            d="M104.084 310.72C103.247 311.537 102.411 312.353 101.549 313.195C83.0917 331.302 65.553 349.127 52.0652 371.368C51.376 372.493 50.6869 373.619 49.9768 374.778C11.287 438.906 -0.949995 514.939 15.6777 587.94C16.5649 591.446 17.4765 594.946 18.4118 598.439C18.8879 600.252 19.3639 602.065 19.8544 603.932C26.7618 628.979 38.2634 652.804 51.9957 674.799C52.9333 676.335 52.9333 676.335 53.8898 677.903C75.1731 712.141 108.029 744.678 142.597 765.4C143.863 766.164 145.13 766.928 146.435 767.715C163.812 778.034 181.486 786.426 200.629 792.879C201.698 793.249 202.766 793.62 203.867 794.001C246.672 808.723 294.449 812.441 339.105 805.066C340.139 804.896 341.174 804.726 342.239 804.552C360.571 801.439 380.114 797.511 396.778 789.003C406.476 783.857 406.476 783.857 417.187 783.371C422.204 785.239 426.937 787.466 431.767 789.771C435.695 791.269 439.671 792.598 443.667 793.905C445.207 794.415 445.207 794.415 446.778 794.935C472.284 803.247 497.616 807.417 524.435 808.009C526.486 808.055 528.537 808.111 530.588 808.177C596.299 810.201 667.032 786.046 716.152 741.79C718.465 739.611 720.746 737.405 723.015 735.181C723.851 734.366 724.686 733.551 725.547 732.711C743.972 714.635 761.47 696.836 774.935 674.633C775.969 672.945 775.969 672.945 777.023 671.222C815.713 607.094 827.95 531.062 811.322 458.061C810.435 454.555 809.524 451.055 808.588 447.561C808.112 445.749 807.636 443.936 807.146 442.069C800.238 417.022 788.737 393.197 775.004 371.202C774.379 370.178 773.754 369.153 773.11 368.098C751.827 333.86 718.971 301.323 684.403 280.601C683.137 279.837 681.87 279.073 680.566 278.286C663.193 267.97 645.516 259.557 626.371 253.122C625.292 252.752 624.212 252.381 623.101 251.999C556.903 229.5 485.904 233.933 421.539 260.185C420.586 260.558 419.633 260.931 418.651 261.316C417.649 261.746 416.647 262.176 415.615 262.619C411.678 263.56 410.004 262.805 406.337 261.167C405.136 260.651 403.935 260.135 402.698 259.603C401.41 259.036 400.123 258.468 398.797 257.884C366.908 244.534 334.015 238.468 299.524 237.924C298.478 237.898 297.431 237.872 296.352 237.845C227.233 236.18 153.905 261.886 104.084 310.72ZM258.79 260.334C260.36 260.105 261.93 259.876 263.547 259.641C304.929 254.476 348.196 259.234 387.083 274.56C387.755 275.232 388.427 275.903 389.119 276.596C387.898 277.525 386.677 278.455 385.419 279.413C381.255 282.631 377.301 286.037 373.342 289.502C359.41 302.122 359.41 302.122 341.968 306.497C336.131 305.556 330.58 303.831 324.984 301.952C320.412 300.608 315.964 300.424 311.22 300.287C306.34 300.146 301.556 299.98 296.71 299.4C289.718 298.902 283.059 299.359 276.091 300.041C273.561 300.272 273.561 300.272 270.98 300.507C209.101 307.28 155.238 339.814 116.114 387.661C87.1203 425.255 72.9468 471.057 70.3597 517.988C70.2727 519.487 70.1857 520.986 70.0961 522.53C68.5604 576.66 91.6667 633.31 128.538 672.474C142.531 687.055 156.791 700.954 174.174 711.427C175.707 712.368 175.707 712.368 177.27 713.329C216.677 737.263 264.235 750.841 310.608 746.015C313.233 745.749 313.233 745.749 315.91 745.477C374.507 738.974 428.929 710.445 466.368 664.577C503.847 617.169 523.216 558.19 516.347 497.521C513.619 478.592 508.879 460.403 502.104 442.54C501.449 440.78 500.795 439.02 500.121 437.207C485.439 400.415 459.783 373.008 431.869 345.825C441.712 340.445 451.451 335.402 461.973 331.5C463.532 330.906 463.532 330.906 465.122 330.3C467.611 329.352 470.106 328.418 472.602 327.488C518.662 371.145 550.615 427.465 557.077 491.403C557.179 492.365 557.28 493.327 557.385 494.318C564.522 563.149 545.672 632.698 502.605 687.368C470.172 726.715 429.46 757.301 380.86 773.491C379.765 773.866 378.671 774.241 377.544 774.627C361.884 779.956 346.366 783.711 329.946 785.721C328.984 785.839 328.022 785.957 327.031 786.079C258.489 794.013 188.068 776.633 132.959 734.31C77.0284 689.827 39.5334 626.925 30.6403 555.671C27.8832 531.274 28.1828 507.667 31.6751 483.377C31.8841 481.869 32.0932 480.361 32.3085 478.807C50.2139 364.753 145.38 275.534 258.79 260.334ZM269.977 320.407C272.066 320.176 274.156 319.944 276.245 319.713C287.884 318.527 299.222 318.208 310.897 319.061C311.997 319.14 313.097 319.218 314.231 319.299C320.106 319.826 324.722 321.002 330.051 323.448C329.314 324.316 328.577 325.185 327.818 326.08C290.427 370.372 261.694 418.003 252.631 476.199C252.474 477.171 252.317 478.144 252.155 479.145C240.508 552.749 258.827 627.559 302.077 688.161C310.814 700.089 320.294 711.411 329.96 722.591C323.824 725.793 318.1 726.195 311.313 726.35C310.313 726.385 309.314 726.42 308.284 726.457C303.526 726.612 298.78 726.672 294.019 726.673C291.225 726.673 288.429 726.714 285.638 726.854C243.105 728.568 193.734 707.874 162.395 679.638C117.657 636.422 91.0715 587.618 89.2899 524.216C88.7711 472.81 108.45 421.253 144.348 384.36C178.855 349.414 220.209 325.056 269.977 320.407ZM386.059 302.052C387.05 301.399 388.042 300.746 389.064 300.073C421.404 278.973 458.723 265.052 497.055 260.279C498.619 260.053 500.184 259.827 501.796 259.594C526.575 256.47 552.957 256.56 577.494 261.279C578.678 261.503 579.861 261.728 581.081 261.959C630.242 271.544 674.46 292.965 711.885 326.415C712.631 327.08 713.377 327.744 714.146 328.429C766.495 375.933 794.819 443.979 798.26 513.828C798.987 530.404 797.68 546.246 795.325 562.624C795.116 564.132 794.907 565.64 794.692 567.194C784.024 635.144 744.633 697.304 689.39 737.783C644.518 769.063 594.444 786.291 539.699 787.71C538.659 787.743 537.619 787.777 536.547 787.811C503.657 788.774 470.632 783.546 439.917 771.441C439.245 770.769 438.573 770.097 437.881 769.405C439.105 768.476 440.328 767.546 441.589 766.588C445.74 763.381 449.66 759.975 453.587 756.499C467.726 743.744 467.726 743.744 485.486 739.504C491.769 740.443 497.787 742.162 503.844 744.048C509.973 745.736 516.051 745.661 522.383 745.823C526.58 745.915 526.58 745.915 531.157 746.505C537.849 747.217 544.21 746.605 550.893 745.962C550.898 745.961 550.904 745.961 550.909 745.96C552.599 745.806 554.288 745.652 556.028 745.493C617.905 738.711 671.762 706.187 710.886 658.34C745.732 613.158 761.002 554.947 755.629 498.485C746.991 435.846 715.373 381.337 665.357 342.57C623.547 311.979 568.343 294.58 516.392 299.986C514.642 300.163 512.892 300.341 511.09 300.524C452.493 307.026 398.072 335.556 360.633 381.424C323.153 428.832 303.784 487.811 310.654 548.48C313.381 567.409 318.121 585.597 324.896 603.46C325.551 605.22 326.205 606.98 326.88 608.794C341.562 645.586 367.217 672.992 395.131 700.176C385.288 705.556 375.549 710.599 365.027 714.501C363.468 715.095 363.468 715.095 361.879 715.701C359.389 716.648 356.894 717.582 354.398 718.513C299.13 666.129 270.633 600.145 267.667 524.406C266.762 469.161 285.197 415.827 315.786 370.289C316.794 368.779 317.802 367.27 318.841 365.714C336.554 341.317 360.777 318.387 386.059 302.052ZM413.538 358.048C447.899 374.001 473.18 418.793 485.81 452.726C494.153 476.06 497.546 499.297 498.012 523.999C498.109 525.832 498.109 525.832 498.207 527.702C499.943 573.52 477.818 624.977 447.273 658.492C438.983 667.218 430.449 675.726 421.283 683.536C420.125 684.524 420.125 684.524 418.943 685.532C415.808 687.344 413.979 687.433 410.408 686.935C407.875 685.561 407.875 685.561 405.608 683.504C404.73 682.756 403.852 682.008 402.948 681.238C365.033 647.149 337.495 603.949 331.017 552.548C330.793 550.885 330.569 549.222 330.338 547.509C323.983 493.619 339.253 439.518 372.16 396.364C390.056 373.606 390.056 373.606 413.538 358.048ZM519.442 319.331C520.831 319.202 522.219 319.073 523.65 318.941C532.556 318.201 541.104 318.426 549.989 319.324C552.599 319.572 552.599 319.572 555.263 319.824C612.141 325.827 660.374 355.785 696.566 399.295C728.247 440.617 742.294 496.074 736.242 547.594C730.135 593.219 710.578 633.573 678.078 666.128C676.982 667.226 676.982 667.226 675.864 668.346C664.874 679.303 654.018 689.235 640.524 697.065C639.685 697.555 638.846 698.044 637.981 698.549C609.983 714.662 579.963 723.785 547.859 726.614C546.235 726.761 544.612 726.907 542.939 727.057C533.614 727.747 524.574 727.557 515.276 726.622C513.79 726.473 512.304 726.323 510.773 726.17C503.214 725.883 503.214 725.883 496.949 722.553C497.686 721.684 498.423 720.816 499.182 719.921C536.573 675.628 565.306 627.998 574.369 569.802C574.526 568.83 574.683 567.857 574.845 566.855C581.908 522.219 578.029 478.366 564.217 435.399C563.772 433.971 563.772 433.971 563.318 432.514C550.277 391.213 525.467 355.556 497.04 323.409C501.837 318.612 512.932 319.878 519.442 319.331Z"
            fill="black" />
        <path
            d="M386.059 302.052L389.064 300.073C421.404 278.973 458.723 265.052 497.055 260.279L501.796 259.594C526.575 256.47 552.957 256.56 577.494 261.279L581.081 261.959C630.242 271.544 674.46 292.965 711.885 326.415L714.146 328.429C766.495 375.933 794.819 443.979 798.26 513.828C798.987 530.404 797.68 546.246 795.325 562.624L794.692 567.194C784.024 635.144 744.633 697.304 689.39 737.783C644.518 769.063 594.444 786.291 539.699 787.71L536.547 787.811C503.657 788.774 470.632 783.546 439.917 771.441L437.881 769.405L441.589 766.588C445.74 763.381 449.66 759.975 453.587 756.499C467.726 743.744 467.726 743.744 485.486 739.504C491.769 740.443 497.787 742.162 503.844 744.048C509.973 745.736 516.051 745.661 522.383 745.823C526.58 745.915 526.58 745.915 531.157 746.505C537.849 747.217 544.21 746.605 550.893 745.962L550.909 745.96L556.028 745.493C617.905 738.711 671.762 706.187 710.886 658.34C745.732 613.158 761.002 554.947 755.629 498.485C746.991 435.846 715.373 381.337 665.357 342.57C623.547 311.979 568.343 294.58 516.392 299.986L511.09 300.524C452.493 307.026 398.072 335.556 360.633 381.424C323.153 428.832 303.784 487.811 310.654 548.48C313.381 567.409 318.121 585.597 324.896 603.46L326.88 608.794C341.562 645.586 367.217 672.992 395.131 700.176C385.288 705.556 375.549 710.599 365.027 714.501L361.879 715.701C359.389 716.648 356.894 717.582 354.398 718.513C299.13 666.129 270.633 600.145 267.667 524.406C266.762 469.161 285.197 415.827 315.786 370.289L318.841 365.714C336.554 341.317 360.777 318.387 386.059 302.052Z"
            fill="none" />
        <path
            d="M258.79 260.334L263.547 259.641C304.929 254.476 348.196 259.234 387.083 274.56L389.119 276.596L385.419 279.413C381.255 282.631 377.301 286.037 373.342 289.502C359.41 302.122 359.41 302.122 341.968 306.497C336.131 305.556 330.58 303.831 324.984 301.952C320.412 300.608 315.964 300.424 311.22 300.287C306.34 300.146 301.556 299.98 296.71 299.4C289.718 298.902 283.059 299.359 276.091 300.041L270.98 300.507C209.101 307.28 155.238 339.814 116.114 387.661C87.1203 425.255 72.9468 471.057 70.3597 517.988L70.0961 522.53C68.5604 576.66 91.6667 633.31 128.538 672.474C142.531 687.055 156.791 700.954 174.174 711.427L177.27 713.329C216.677 737.263 264.235 750.841 310.608 746.015L315.91 745.477C374.507 738.974 428.929 710.445 466.368 664.577C503.847 617.169 523.216 558.19 516.347 497.521C513.619 478.592 508.879 460.403 502.104 442.54L500.121 437.207C485.439 400.415 459.783 373.008 431.869 345.825C441.712 340.445 451.451 335.402 461.973 331.5L465.122 330.3C467.611 329.352 470.106 328.418 472.602 327.488C518.662 371.145 550.615 427.465 557.077 491.403L557.385 494.318C564.522 563.149 545.672 632.698 502.605 687.368C470.172 726.715 429.46 757.301 380.86 773.491L377.544 774.627C361.884 779.956 346.366 783.711 329.946 785.721L327.031 786.079C258.489 794.013 188.068 776.633 132.959 734.31C77.0284 689.827 39.5334 626.925 30.6403 555.671C27.8832 531.274 28.1828 507.667 31.6751 483.377L32.3085 478.807C50.2139 364.753 145.38 275.534 258.79 260.334Z"
            fill="none" />
    </g>
    <defs>
        <clipPath id="clip0_507_97">
            <rect width="820" height="820" fill="white" transform="matrix(-1 0 0 1 820 0)" />
        </clipPath>
    </defs>
</svg>