<svg width="512" height="512" viewBox="0 0 512 512" fill="none" xmlns="http://www.w3.org/2000/svg">
    <g clip-path="url(#clip0_461_9)">
        <path
            d="M292 3.99999C292.737 4.2143 293.474 4.4286 294.233 4.64941C320.767 12.641 344.854 29.4392 359.172 53.4531C365.641 66.0047 367.157 78.2185 367.098 92.1523C367.095 94.0352 367.095 94.0352 367.093 95.9562C367.089 99.272 367.08 102.588 367.069 105.904C367.058 109.296 367.054 112.688 367.049 116.08C367.038 122.72 367.021 129.36 367 136C367.673 135.983 368.345 135.967 369.038 135.949C369.928 135.936 370.818 135.924 371.734 135.91C372.613 135.893 373.492 135.877 374.397 135.86C378.607 136.087 381.731 137.361 385 140C390.905 147.012 392.155 152.552 392.203 161.57C392.209 162.407 392.214 163.243 392.22 164.104C392.23 165.875 392.236 167.645 392.24 169.415C392.25 172.095 392.281 174.774 392.312 177.453C392.396 190.496 391.94 200.057 382.473 209.863C377.172 214.444 371.823 215.975 365 217C364.745 217.987 364.745 217.987 364.484 218.993C356.272 250.388 344.028 276.794 321 300C320.34 300.33 319.68 300.66 319 301C318.366 305.3 317.955 309.255 320.254 313.094C337.726 331.51 363.737 339.552 387.691 345.008C388.455 345.183 389.219 345.358 390.005 345.538C393.857 346.418 397.711 347.28 401.574 348.109C403.008 348.429 404.441 348.75 405.875 349.07C407.151 349.346 408.427 349.622 409.742 349.907C413.232 351.078 414.789 352.088 417 355C417.707 359.32 417.453 361.275 415.125 365C410.149 368.184 405.179 366.634 399.566 365.515C397.124 364.953 394.699 364.344 392.273 363.715C391.4 363.494 390.526 363.274 389.626 363.047C386.874 362.35 384.124 361.644 381.375 360.938C379.494 360.46 377.612 359.982 375.73 359.506C371.152 358.345 366.575 357.175 362 356C362.493 357.513 362.493 357.513 362.997 359.056C365.72 367.511 368.046 375.897 369.75 384.625C369.957 385.647 370.165 386.669 370.379 387.723C370.934 390.479 371.47 393.239 372 396C372.309 397.506 372.309 397.506 372.625 399.043C374.102 410.688 374.422 423.998 370 435C372.083 435.647 374.166 436.293 376.25 436.938C377.41 437.297 378.57 437.657 379.766 438.027C380.833 438.348 381.9 438.669 383 439C383.746 439.236 384.493 439.472 385.262 439.715C387.22 440.217 387.22 440.217 389.562 438.625C396.757 435.224 404.2 435.305 411.648 437.93C418.873 441.218 423.481 445.917 427 453C429.333 459.998 429.274 470.143 426.375 477C425.25 479.062 425.25 479.062 424 481C423.587 481.66 423.175 482.32 422.75 483C416.354 492.304 406.895 499.01 397.98 505.738C395.01 507.891 395.01 507.891 392.676 510.293C389.387 512.391 387.214 512.728 383.355 512.543C378.863 511.507 375.892 508.545 372.562 505.5C371.076 504.202 369.589 502.906 368.102 501.609C367.395 500.982 366.689 500.355 365.962 499.709C363.542 497.601 361.006 495.674 358.437 493.75C352.538 489.081 348.151 483.227 344 477C343.198 477.874 342.396 478.748 341.57 479.648C334.624 487.178 327.548 494.56 320.312 501.812C319.535 502.595 318.757 503.377 317.956 504.183C317.224 504.913 316.492 505.643 315.738 506.395C315.089 507.043 314.44 507.691 313.771 508.359C310.235 511.636 307.772 512.46 302.941 512.309C301 512 301 512 298.5 510.438C296.39 507.009 296.375 504.958 297 501C299.21 498.598 299.21 498.598 302 496C302.837 495.174 303.674 494.347 304.536 493.496C305.416 492.628 306.296 491.761 307.203 490.867C308.706 489.379 310.208 487.89 311.709 486.4C312.727 485.392 313.747 484.386 314.769 483.382C332.806 465.642 356.223 440.406 356.625 413.688C356.304 393.195 349.563 372.955 343.655 353.514C343 351 343 351 343 348C342.285 347.727 341.569 347.453 340.832 347.172C338.014 346.006 335.372 344.695 332.687 343.25C331.804 342.781 330.921 342.312 330.012 341.828C326.136 339.476 322.584 336.771 319 334C318.96 335.005 318.921 336.009 318.88 337.044C316.4 398.004 304.953 462.941 262.453 509.809C260 512 260 512 256.125 512.75C250.842 512.407 248.327 508.762 245 505C242.987 502.555 241.128 500.032 239.312 497.438C238.805 496.712 238.297 495.987 237.774 495.239C204.732 446.898 195.478 391.202 193 334C192.276 334.537 191.552 335.074 190.807 335.627C181.129 342.747 181.129 342.747 175.937 345.5C174.59 346.227 174.59 346.227 173.215 346.969C171 348 171 348 169 348C168.738 349.24 168.477 350.48 168.207 351.758C167.395 355.413 166.465 359.014 165.449 362.617C161.83 375.453 158.808 388.175 156.774 401.367C156.597 402.439 156.42 403.512 156.238 404.617C156.094 405.562 155.95 406.507 155.802 407.48C154.821 410.561 153.467 411.953 151 414C149 414.566 149 414.566 147 414.562C146.01 414.595 146.01 414.595 145 414.629C141.82 413.629 140.728 411.773 139 409C136.607 392.515 145.059 371.47 150 356C148.104 356.474 146.209 356.948 144.313 357.422C142.592 357.852 140.87 358.282 139.148 358.713C134.275 359.931 129.402 361.15 124.53 362.371C115.453 364.645 106.376 366.915 97.2858 369.133C93.656 370.02 90.0276 370.912 86.3994 371.804C84.689 372.223 82.9779 372.639 81.2661 373.051C66.9035 375.448 66.9035 375.448 55.497 383.052C52.136 389.315 50.0947 396.213 48.0625 403C47.7211 404.13 47.3797 405.26 47.028 406.425C43.4536 418.496 40.5178 430.668 38 443C37.7718 444.116 37.5436 445.233 37.3085 446.383C34.9738 458.109 33.0887 469.781 32.164 481.699C32.1003 482.52 32.0366 483.34 31.9709 484.185C31.6656 488.229 31.3936 492.273 31.1633 496.322C31.0659 497.799 30.9685 499.277 30.871 500.754C30.7981 502.057 30.7252 503.359 30.6501 504.701C29.9113 508.45 28.9982 509.708 26 512C24 512.566 24 512.566 22 512.562C21.34 512.584 20.68 512.606 20 512.629C16.8144 511.627 15.7362 509.778 14 507C7.16263 468.614 23.3693 405.38 42.4726 371.379C50.8911 359.989 71.2015 357.668 84.125 354.562C86.0813 354.083 88.0375 353.604 89.9934 353.123C99.8439 350.707 109.708 348.347 119.573 345.99C147.515 339.302 172.048 331.952 193 311C193.64 307.554 193.688 304.441 193 301C191.389 299.002 189.596 297.697 187.547 296.152C178.141 288.203 170.93 276.653 165 266C164.67 265.412 164.341 264.824 164.001 264.218C155.872 249.51 150.565 233.397 147 217C146.443 216.914 145.886 216.827 145.312 216.738C136.368 215.091 130.688 211.133 124.543 204.551C119.027 195.432 119.534 185.33 119.609 175.022C119.625 172.374 119.609 169.727 119.59 167.078C119.592 165.372 119.596 163.667 119.602 161.961C119.595 161.181 119.589 160.4 119.583 159.596C119.666 153.057 121.229 147.885 124.687 142.25C128.434 138.605 132.298 136.17 137.615 135.835C138.492 135.855 139.369 135.874 140.273 135.895C141.162 135.91 142.051 135.925 142.966 135.941C143.637 135.96 144.308 135.98 145 136C144.99 134.975 144.99 134.975 144.98 133.93C144.919 127.43 144.874 120.93 144.845 114.43C144.829 111.089 144.806 107.749 144.774 104.409C144.737 100.551 144.72 96.6939 144.707 92.8359C144.692 91.6614 144.676 90.4868 144.66 89.2767C144.656 66.3684 153.33 49.2879 169 33C169.783 32.1473 169.783 32.1473 170.582 31.2773C172.894 29.1949 174.955 29.1218 178 29C181.529 30.6041 182.828 31.7416 185 35C185.066 38.4222 184.899 40.919 182.648 43.625C181.463 44.7506 180.264 45.8617 179.055 46.9609C175.151 50.8349 172.043 55.4319 169 60C169 60.33 169 60.66 169 61C169.545 60.8607 170.091 60.7214 170.652 60.5779C192.733 55.2581 214.778 61.9746 236.25 67.1875C257.278 72.2812 283.274 77.4561 302.969 65.5039C311.327 59.3153 315.367 50.8103 317.449 40.8516C317.722 38.3057 317.707 36.4706 317 34C314.12 31.1134 310.697 29.6386 307 28C305.279 27.2285 305.279 27.2285 303.523 26.4414C276.558 14.8487 245.034 12.3777 217.437 23.1875C216.794 23.4616 216.15 23.7357 215.487 24.0181C211.158 25.8159 207.675 26.4482 203 26C199.619 23.554 198.231 22.107 197.375 18C198.236 13.8689 199.744 12.6892 203 9.99999C206.18 8.48769 209.454 7.42061 212.812 6.37499C213.758 6.07649 214.704 5.77799 215.678 5.47045C218.445 4.61829 221.219 3.80146 224 2.99999C225.887 2.44892 225.887 2.44892 227.812 1.88671C247.844 -2.83055 272.335 -1.77045 292 3.99999ZM335 49C334.802 54.9955 334.657 60.989 334.56 66.9871C334.52 69.0252 334.466 71.063 334.396 73.1003C334.299 76.0375 334.254 78.9716 334.219 81.9101C334.177 82.8146 334.136 83.719 334.094 84.6509C334.091 88.5727 334.173 91.0154 336.754 94.0891C338.769 95.8447 340.852 97.4143 343 99C345.277 101.652 345.277 101.652 346.937 103.937C347.94 105.305 348.955 106.664 350 108C350.33 108 350.66 108 351 108C351.088 103.75 351.141 99.5005 351.187 95.25C351.213 94.0628 351.238 92.8755 351.264 91.6523C351.394 75.7895 346.801 60.9623 336 49C335.67 49 335.34 49 335 49ZM314.25 77.1875C298.165 89.8003 275.42 89.5852 256.011 87.7114C243.086 86.0506 230.496 82.7054 217.902 79.4429C209.623 77.3206 201.521 75.7101 193 75C192.991 75.5995 192.981 76.199 192.972 76.8166C192.918 79.5661 192.834 82.3138 192.75 85.0625C192.729 86.4769 192.729 86.4769 192.707 87.9199C192.425 95.9993 190.576 100.607 184.828 106.254C183.638 107.359 182.445 108.462 181.25 109.562C168.209 122.147 161.212 138.146 160.855 156.456C160.841 158.123 160.834 159.79 160.832 161.457C160.829 162.359 160.825 163.261 160.822 164.19C160.817 166.097 160.814 168.004 160.815 169.911C160.812 172.766 160.794 175.62 160.775 178.475C160.728 193.539 161.343 208.554 165.25 223.187C165.467 224.019 165.684 224.851 165.907 225.708C171.13 245.046 180.183 262.65 193 278C193.594 278.746 194.188 279.493 194.801 280.262C206.939 295.007 226.659 307.77 246 310C267.975 311.434 288.015 306.374 304.965 291.801C305.636 291.207 306.308 290.612 307 290C308.061 289.165 309.123 288.331 310.187 287.5C336.147 264.424 348.57 228.78 351 195C351.297 188.7 351.331 182.4 351.316 176.094C351.312 173.304 351.336 170.515 351.361 167.725C351.431 148.038 348.739 128.261 334.463 113.4C332.182 111.114 329.889 108.848 327.531 106.641C321.459 100.857 319.685 96.0073 319.381 87.6523C319.358 86.6533 319.336 85.6543 319.312 84.625C319.278 83.6028 319.244 82.5805 319.209 81.5273C319.127 79.0183 319.058 76.5097 319 74C317.118 74 315.606 76.027 314.25 77.1875ZM170.687 78.1875C169.928 78.5935 169.169 78.9996 168.387 79.418C165.279 81.4779 163.236 82.9554 161 86C160.393 89.7905 160.528 93.4865 160.687 97.3125C160.71 98.3392 160.733 99.366 160.756 100.424C160.815 102.951 160.897 105.475 161 108C163.441 105.595 165.784 103.281 167.875 100.562C170 98 170 98 171.805 96.9141C174.178 95.4178 175.477 94.3873 177 92C177.615 86.6024 177.405 81.4071 177 76C174.375 76 172.988 76.9311 170.687 78.1875ZM137.275 153.016C135.308 156.076 135.572 159.216 135.602 162.738C135.599 163.497 135.596 164.255 135.593 165.036C135.591 166.641 135.596 168.246 135.609 169.85C135.625 172.293 135.609 174.735 135.59 177.178C135.592 178.74 135.596 180.301 135.602 181.863C135.595 182.588 135.589 183.314 135.583 184.061C135.648 188.776 136.518 191.994 139 196C142.037 199.078 142.037 199.078 146 200C145.908 193.485 145.801 186.971 145.683 180.457C145.644 178.239 145.609 176.022 145.578 173.804C145.533 170.622 145.475 167.44 145.414 164.258C145.402 163.262 145.391 162.266 145.379 161.24C145.359 160.319 145.339 159.398 145.319 158.45C145.305 157.637 145.292 156.824 145.278 155.987C145.171 153.77 145.171 153.77 143 152C139.241 151.662 139.241 151.662 137.275 153.016ZM369 152C366.562 154.438 366.736 155.103 366.681 158.45C366.661 159.37 366.641 160.291 366.621 161.24C366.609 162.236 366.598 163.232 366.586 164.258C366.567 165.276 366.547 166.294 366.527 167.343C366.467 170.604 366.421 173.864 366.375 177.125C366.337 179.332 366.298 181.539 366.258 183.746C366.162 189.164 366.077 194.582 366 200C370.382 198.426 372.345 196.887 375 193C376.217 189.348 376.181 185.961 376.203 182.156C376.209 181.391 376.214 180.625 376.22 179.837C376.23 178.219 376.236 176.602 376.24 174.985C376.25 172.509 376.281 170.034 376.312 167.559C376.319 165.987 376.324 164.415 376.328 162.844C376.34 162.103 376.353 161.362 376.365 160.599C376.353 157.662 376.335 155.524 374.729 153.01C372.758 151.664 372.758 151.664 369 152ZM210 314C209.471 353.946 211.254 391.763 224 430C224.66 430 225.32 430 226 430C226.202 429.304 226.403 428.609 226.611 427.892C227.531 424.719 228.453 421.547 229.375 418.375C229.692 417.281 230.009 416.186 230.336 415.059C230.645 413.995 230.955 412.932 231.273 411.836C231.556 410.862 231.839 409.888 232.13 408.884C232.745 406.845 233.412 404.821 234.116 402.811C235.944 397 233.427 392.366 230.937 387.148C227.252 378.702 227.975 367.882 230.949 359.312C232.817 355.202 235.277 351.588 238 348C238.612 347.178 239.225 346.355 239.855 345.508C242.161 342.811 244.53 340.803 247.375 338.688C248.29 337.99 249.205 337.293 250.148 336.574C253.471 334.74 255.261 334.482 259 335C261.16 336.172 261.16 336.172 263.062 337.75C263.743 338.307 264.424 338.864 265.125 339.438C266.053 340.211 266.053 340.211 267 341C268.268 341.866 268.268 341.866 269.562 342.75C277.414 349.998 282.436 359.516 283.238 370.164C283.423 378.788 282.549 386.456 277.805 393.867C275.947 398.792 278.386 404.741 279.848 409.59C280.205 410.785 280.563 411.981 280.932 413.213C281.305 414.442 281.678 415.671 282.062 416.938C282.439 418.194 282.817 419.45 283.205 420.744C284.132 423.831 285.064 426.916 286 430C286.66 430 287.32 430 288 430C300.394 391.497 302.532 354.142 302 314C299.225 315.103 296.468 316.228 293.723 317.402C272.726 326.209 248.839 328.973 227 321C222.869 319.308 218.857 317.413 214.879 315.391C212.233 313.855 212.233 313.855 210 314ZM252.562 354.938C247.231 361.31 243.628 366.989 243.711 375.453C244.288 380.535 246.157 385.982 249.637 389.793C251.731 393.184 251.556 396.187 251 400C249.834 404.55 248.358 408.983 246.875 413.438C246.041 416.019 245.221 418.604 244.406 421.191C244.099 422.167 244.099 422.167 243.785 423.163C241.754 429.677 239.999 436.248 238.375 442.875C238.116 443.895 237.856 444.915 237.589 445.967C235.419 455.077 236.543 461.026 241 469.125C241.396 469.858 241.793 470.592 242.201 471.347C245.966 478.178 250.036 484.966 255 491C255.66 491 256.32 491 257 491C258.626 488.888 260.107 486.789 261.562 484.562C261.999 483.895 262.436 483.227 262.886 482.538C266.125 477.502 269.247 472.403 272.187 467.188C272.586 466.52 272.984 465.852 273.395 465.164C278.706 455.399 274.077 444.588 271.354 434.543C270.756 432.337 270.172 430.127 269.59 427.916C267.357 419.527 264.851 411.292 261.994 403.094C260.624 398.829 260.173 396.434 261 392C262.387 389.311 263.9 386.806 265.59 384.297C268.468 379.609 268.753 374.374 268 369C265.821 363.124 262.653 356.121 257.062 352.875C254.752 352.817 254.752 352.817 252.562 354.938ZM362 455C359.379 457.874 358.741 460.463 358.437 464.25C358.771 471.476 362.865 476.113 368.012 480.836C373.654 485.809 379.449 490.275 386 494C390.687 490.359 395.355 486.695 400 483C400.848 482.326 401.696 481.652 402.57 480.957C407.481 476.877 411.38 473.117 412.375 466.512C412.574 462.309 412.399 459.71 410.312 456C406.983 453.12 404.667 452.038 400.25 451.938C396.831 453.055 395.269 454.323 392.562 456.625C388.457 459.961 388.457 459.961 384.375 460.312C380.65 458.864 378.515 457.052 375.617 454.379C370.957 450.406 366.929 452.262 362 455Z"
            fill="black" />
        <path
            d="M451.465 360.945C460.59 364.045 467.089 366.671 471.824 375.34C487.094 407.289 493.111 445.148 497 480C497.199 481.767 497.199 481.767 497.402 483.57C497.676 486.383 497.868 489.177 498 492C498.064 493.277 498.129 494.555 498.195 495.871C498.238 497.226 498.277 498.582 498.312 499.938C498.369 501.776 498.369 501.776 498.426 503.652C497.918 507.648 496.918 509.261 494 512C492 512.629 492 512.629 490 512.562C489.34 512.564 488.68 512.565 488 512.566C485.044 511.729 483.912 510.396 482 508C481.35 504.701 481.35 504.701 481.129 500.754C481.058 499.682 481.058 499.682 480.986 498.589C480.885 497.051 480.791 495.512 480.703 493.972C480.464 489.872 480.151 485.778 479.832 481.684C479.768 480.858 479.704 480.032 479.637 479.181C477.163 448.83 470.005 417.386 459 389C458.721 388.234 458.442 387.467 458.154 386.677C456.933 383.746 455.988 381.621 453.249 379.899C451.187 379.056 449.148 378.406 447 377.813C441.579 376.226 438.024 375.156 435 370C435.062 366.386 435.21 364.03 437.438 361.125C441.983 357.853 446.327 359.544 451.465 360.945Z"
            fill="black" />
        <path
            d="M226 246C228.676 247.926 228.676 247.926 231.312 250.312C239.781 257.569 247.691 260.399 258.77 260.277C268.953 259.403 276.192 254.236 283.625 247.688C286.54 245.617 288.429 245.074 292 245C296.565 247.13 296.565 247.13 298 250C298.604 253.17 298.53 255.181 296.754 257.926C288.175 268.129 277.353 274.994 264 277C248.719 278.042 235.357 275.656 223 266C214.186 258.138 214.186 258.138 213.75 253.125C214.027 249.661 214.573 248.427 217 246C220.613 244.796 222.334 245.03 226 246Z"
            fill="black" />
        <path
            d="M162.797 445.477C167.974 446.707 171.108 452.333 174.062 456.438C183.562 469.304 194.4 480.624 205.777 491.848C206.511 492.573 207.245 493.298 208.002 494.046C209.207 495.225 210.423 496.393 211.656 497.542C214.31 500.039 214.968 500.797 215.562 504.562C215 508 215 508 213.5 510.438C210.727 512.171 208.544 512.873 205.251 512.703C202.246 511.764 200.65 510.215 198.355 508.066C197.48 507.25 196.604 506.433 195.702 505.592C172.099 482.954 172.099 482.954 164 472C163.57 471.436 163.14 470.871 162.696 470.29C161.283 468.433 159.888 466.563 158.5 464.688C158.065 464.112 157.631 463.537 157.183 462.944C154.578 459.335 153.215 456.467 153 452C155.666 446.546 156.786 445.912 162.797 445.477Z"
            fill="black" />
        <path
            d="M208.688 136.625C209.655 136.627 210.622 136.628 211.619 136.63C221.451 136.798 230.491 138.098 238 145C239.256 148.69 239.344 150.264 237.688 153.812C236 156 236 156 234 157C229.931 157.332 226.906 157.052 223.188 155.5C213.99 152.176 201.807 152.633 192.82 156.316C189.761 157.465 187.199 157.439 184 157C181.284 155.07 180.253 153.658 179.063 150.562C178.976 147.006 179.696 145.723 182 143C190.146 137.582 199.15 136.608 208.688 136.625Z"
            fill="black" />
        <path
            d="M327 141C331.753 144.415 331.753 144.415 333 147.375C333 150.907 331.829 153.019 330 156C326.487 157.756 322.688 157.559 318.983 156.333C318.28 156.06 317.576 155.788 316.852 155.508C311.967 153.826 307.57 153.55 302.438 153.625C301.24 153.608 301.24 153.608 300.018 153.59C294.346 153.618 290.232 154.847 285 157C281.327 157.367 278.994 157.445 275.625 155.938C273.167 153.007 273 150.779 273 147C275.453 141.977 279.588 140.647 284.562 138.797C297.239 134.653 314.975 134.969 327 141Z"
            fill="black" />
        <path
            d="M287 173C289.875 174.937 289.875 174.937 292 177C295.474 178.737 299.202 178.471 303 178C305.962 176.795 308.713 175.287 311 173C318.072 172.42 318.072 172.42 321.5 174.562C323.593 177.964 323.551 180.071 323 184C319.994 189.489 313.961 192.682 308.133 194.621C297.764 196.463 288.752 195.112 279.832 189.68C277.16 187.727 275.343 186.224 274.434 182.976C274.242 179.652 274.795 177.341 276.5 174.5C279.967 172.42 283.113 172.204 287 173Z"
            fill="black" />
        <path
            d="M201 173C203.813 174.937 203.813 174.937 206 177C210.466 178.489 215.481 179.148 219.887 177.141C221.731 175.908 223.429 174.571 225 173C232.039 172.423 232.039 172.423 235.5 174.5C237.205 177.341 237.758 179.652 237.567 182.977C236.216 187.803 231.908 189.909 227.801 192.258C220.01 195.941 211.426 196.364 203.094 194.27C197.663 192.266 191.701 189.401 189 184C188.648 180.201 188.473 177.856 190.5 174.562C193.954 172.404 197.089 172.198 201 173Z"
            fill="black" />
    </g>
    <defs>
        <clipPath id="clip0_461_9">
            <rect width="512" height="512" fill="white" />
        </clipPath>
    </defs>
</svg>