<svg width="512" height="512" viewBox="0 0 512 512" fill="none" xmlns="http://www.w3.org/2000/svg">
    <path
        d="M256 502C367.562 502 458 469.867 458 430.229C458 398.981 401.793 372.397 323.341 362.544L258.475 456.463L191.463 362.2C111.549 371.766 54 398.61 54 430.229C54 469.867 144.438 502 256 502Z"
        fill="#D9D9D9" />
    <path fill-rule="evenodd" clip-rule="evenodd"
        d="M256.495 18.5C171.227 18.5 102.108 87.6047 102.108 172.845C102.108 203.088 111.43 232.319 126.542 256.209L258.375 441.651L386.426 256.245C401.726 232.273 410.882 203.342 410.882 172.845C410.882 87.6047 341.763 18.5 256.495 18.5ZM85.1078 172.845C85.1078 78.2117 161.843 1.5 256.495 1.5C351.148 1.5 427.882 78.2117 427.882 172.845C427.882 206.799 417.678 238.935 400.668 265.53L400.586 265.656L338.163 356.04C372.18 361.326 401.79 369.844 423.854 380.742C436.341 386.909 446.799 394.028 454.239 402.093C461.724 410.205 466.5 419.689 466.5 430.229C466.5 443.629 458.834 455.232 447.593 464.674C436.309 474.153 420.487 482.307 401.681 488.988C363.994 502.379 312.487 510.5 256 510.5C199.513 510.5 148.006 502.379 110.319 488.988C91.5126 482.307 75.6907 474.153 64.4069 464.674C53.1662 455.232 45.5 443.629 45.5 430.229C45.5 419.562 50.3906 409.981 58.0292 401.803C65.6253 393.671 76.3013 386.501 89.0454 380.301C111.556 369.35 141.745 360.837 176.38 355.653L112.426 265.693L112.306 265.504C95.5162 239.044 85.1078 206.608 85.1078 172.845ZM187.478 371.264C150.266 376.118 118.737 384.761 96.4824 395.588C84.85 401.247 76.144 407.315 70.4523 413.408C64.8031 419.456 62.5 425.087 62.5 430.229C62.5 436.648 66.1386 443.927 75.3414 451.657C84.5011 459.352 98.2614 466.663 116.01 472.969C151.433 485.555 200.926 493.5 256 493.5C311.074 493.5 360.567 485.555 395.99 472.969C413.739 466.663 427.499 459.352 436.659 451.657C445.861 443.927 449.5 436.648 449.5 430.229C449.5 425.146 447.251 419.588 441.744 413.62C436.194 407.604 427.698 401.601 416.326 395.984C394.607 385.258 363.816 376.628 327.384 371.646L258.576 471.274L187.478 371.264Z"
        fill="black" />
    <path
        d="M96.4824 395.588C118.737 384.761 150.266 376.118 187.478 371.264L258.576 471.274L327.384 371.646C363.816 376.628 394.607 385.258 416.326 395.984C427.698 401.601 436.194 407.604 441.744 413.62C447.251 419.588 449.5 425.146 449.5 430.229C449.5 436.648 445.861 443.927 436.659 451.657C427.499 459.352 413.739 466.663 395.99 472.969C360.567 485.555 311.074 493.5 256 493.5C200.926 493.5 151.433 485.555 116.01 472.969C98.2614 466.663 84.5011 459.352 75.3414 451.657C66.1386 443.927 62.5 436.648 62.5 430.229C62.5 425.087 64.8031 419.456 70.4523 413.408C76.144 407.315 84.85 401.247 96.4824 395.588Z"
        fill="#BCBDAD" />
    <path fill-rule="evenodd" clip-rule="evenodd"
        d="M256.509 119.116C248.935 108.07 237.749 99.8804 225.598 95.8482C205.46 89.1657 181.695 93.6478 166.496 115.648C153.069 135.085 155.829 161.37 162.84 179.561C177.525 217.663 216.901 246.68 251.616 264.627C254.314 266.269 257.772 266.51 260.786 264.96C295.646 247.039 335.391 217.908 350.16 179.587C357.171 161.395 359.931 135.111 346.504 115.674C331.305 93.6735 307.54 89.1914 287.402 95.8739C275.261 99.903 264.082 108.083 256.509 119.116ZM256.524 245.919C224.073 228.521 192.031 203.019 180.37 172.762C174.397 157.262 173.624 138.43 181.944 126.387C191.749 112.194 206.337 109.315 219.695 113.748C233.426 118.304 244.859 130.341 247.162 145.112C247.634 149.25 250.82 152.719 255.122 153.359C260.256 154.122 265.035 150.566 265.796 145.416C267.998 130.518 279.488 118.359 293.305 113.773C306.663 109.341 321.251 112.22 331.056 126.413C339.376 138.456 338.603 157.288 332.63 172.788C320.975 203.029 288.959 228.521 256.524 245.919Z"
        fill="black" />
    <path
        d="M256.524 245.919C224.073 228.521 192.031 203.019 180.37 172.762C174.397 157.262 173.624 138.43 181.944 126.387C191.749 112.194 206.337 109.315 219.695 113.748C233.426 118.304 244.859 130.341 247.162 145.112C247.634 149.25 250.82 152.719 255.122 153.359C260.256 154.122 265.035 150.566 265.796 145.416C267.998 130.518 279.488 118.359 293.305 113.773C306.663 109.341 321.251 112.22 331.056 126.413C339.376 138.456 338.603 157.288 332.63 172.788C320.975 203.029 288.959 228.521 256.524 245.919Z"
        fill="#F0CAB7" />
</svg>