<svg width="820" height="820" viewBox="0 0 820 820" fill="none" xmlns="http://www.w3.org/2000/svg">
    <path
        d="M362.815 31.1051C361.646 31.091 360.477 31.0769 359.272 31.0624C333.417 30.8149 308.411 31.0173 283.147 37.2068C281.864 37.5153 280.581 37.8239 279.259 38.1417C206.556 56.1292 144.14 101.239 104.278 164.616C102.426 167.723 100.596 170.842 98.7869 173.974C97.8419 175.592 96.8968 177.211 95.9232 178.878C83.0963 201.473 74.3828 226.453 68.5403 251.716C68.1166 253.465 68.1166 253.465 67.6844 255.25C58.5241 294.51 58.7497 340.749 68.5403 379.845C68.8956 381.281 69.2509 382.717 69.617 384.196C74.608 403.78 81.1712 422.212 90.145 440.311C90.6384 441.328 91.1318 442.346 91.6402 443.394C111.498 484.071 142.652 520.483 179.445 546.845C180.296 547.457 181.147 548.068 182.024 548.698C197.188 559.459 213.784 570.501 231.583 576.268C242.08 579.487 242.08 579.487 249.998 586.717C252.223 591.585 253.995 596.507 255.781 601.552C257.499 605.389 259.372 609.14 261.273 612.89C262.001 614.339 262.001 614.339 262.744 615.818C274.902 639.731 289.865 660.592 308.411 679.975C309.829 681.458 311.24 682.948 312.644 684.444C357.677 732.34 424.773 765.276 490.8 768.715C493.976 768.81 497.149 768.863 500.326 768.895C501.493 768.909 502.66 768.924 503.863 768.938C529.673 769.186 554.632 768.973 579.853 762.794C581.777 762.331 581.777 762.331 583.741 761.859C656.444 743.871 718.86 698.761 758.722 635.384C760.574 632.278 762.404 629.158 764.213 626.026C765.158 624.408 766.103 622.79 767.077 621.123C779.904 598.527 788.617 573.548 794.46 548.285C794.742 547.119 795.025 545.952 795.316 544.75C804.476 505.491 804.25 459.251 794.46 420.156C794.104 418.72 793.749 417.284 793.383 415.805C788.393 396.226 781.843 377.778 772.855 359.69C772.354 358.665 771.853 357.64 771.337 356.584C740.437 293.866 687.099 246.796 623.023 219.846C622.085 219.436 621.147 219.026 620.181 218.604C619.169 218.199 618.156 217.795 617.113 217.378C613.664 215.26 613.014 213.542 611.579 209.791C611.095 208.577 610.61 207.363 610.112 206.112C609.602 204.8 609.093 203.489 608.569 202.137C595.46 170.149 576.49 142.601 552.487 117.828C551.765 117.069 551.043 116.31 550.299 115.529C502.602 65.4769 432.574 31.8027 362.815 31.1051ZM507.837 104.871C509.109 105.819 510.38 106.767 511.691 107.744C544.604 133.354 571.834 167.312 588.494 205.647C588.494 206.597 588.494 207.547 588.494 208.526C586.974 208.32 585.453 208.114 583.887 207.902C578.667 207.233 573.462 206.845 568.212 206.496C549.437 205.568 549.437 205.568 534.01 196.328C530.548 191.536 527.842 186.391 525.214 181.105C522.932 176.922 519.917 173.647 516.659 170.195C513.308 166.645 510.043 163.145 507.027 159.308C502.435 154.012 497.402 149.626 491.993 145.181C490.041 143.555 490.041 143.555 488.049 141.897C439.505 102.932 378.413 87.8492 316.916 94.017C269.831 100.098 227.422 122.463 192.407 153.819C191.286 154.817 190.165 155.816 189.009 156.845C149.648 194.034 125.928 250.431 124.308 304.196C123.892 324.4 124.147 344.312 129.034 364.009C129.451 365.758 129.451 365.758 129.877 367.543C140.818 412.332 164.846 455.561 201.049 484.94C203.094 486.607 203.094 486.607 205.179 488.309C251.211 525.145 309.866 543.453 368.773 537.493C428.798 530.473 484.198 502.464 522.24 454.707C533.696 439.394 543.206 423.18 551.046 405.759C551.828 404.052 552.61 402.344 553.415 400.585C569.049 364.188 570.287 326.667 569.77 287.707C580.535 290.863 590.987 294.184 601.187 298.864C602.709 299.546 602.709 299.546 604.262 300.242C606.692 301.333 609.117 302.437 611.54 303.543C613.239 366.983 596.008 429.402 555.367 479.181C554.759 479.934 554.15 480.686 553.523 481.461C509.899 535.178 447.392 571.028 378.281 579.232C327.526 584.121 277.11 576.961 231.296 554.044C230.257 553.535 229.218 553.027 228.148 552.503C213.307 545.197 199.678 536.879 186.646 526.69C185.883 526.093 185.119 525.497 184.332 524.882C130.256 482.026 92.7502 419.941 83.7086 351.046C75.6146 280.043 93.5799 209.052 137.675 152.379C152.977 133.178 169.882 116.698 189.527 101.991C190.741 101.073 191.955 100.154 193.206 99.2076C286.516 31.2205 416.895 35.4256 507.837 104.871ZM473.269 155.259C474.91 156.573 476.551 157.887 478.192 159.201C487.261 166.592 495.503 174.383 503.156 183.242C503.878 184.076 504.6 184.909 505.344 185.768C509.126 190.294 511.558 194.39 513.598 199.888C512.463 199.981 511.327 200.074 510.157 200.17C452.398 205.05 398.401 218.413 350.842 253.155C350.044 253.732 349.245 254.308 348.422 254.902C288.141 298.712 248.196 364.564 235.926 437.999C233.669 452.61 232.367 467.32 231.296 482.061C224.694 479.986 220.362 476.222 215.453 471.533C214.721 470.851 213.989 470.169 213.236 469.467C209.761 466.212 206.364 462.898 202.996 459.532C201.02 457.557 199.014 455.609 196.942 453.734C165.654 424.871 145.377 375.328 143.182 333.202C142.107 271.009 157.817 217.701 201.389 171.608C237.372 134.892 287.743 112.351 339.214 111.648C388.325 111.337 434.79 123.355 473.269 155.259ZM568.33 224.362C569.493 224.602 570.656 224.841 571.855 225.088C609.642 233.036 645.875 249.581 676.354 273.311C677.62 274.257 678.886 275.203 680.191 276.179C699.921 291.491 718.513 310.209 732.526 330.897C733.204 331.892 733.883 332.888 734.582 333.913C762.566 375.453 778.686 421.867 781.497 471.983C781.554 472.981 781.612 473.979 781.671 475.007C785.098 545.613 757.01 613.756 710.052 665.58C698.845 677.816 686.719 688.093 673.473 698.009C672.259 698.928 671.045 699.846 669.794 700.793C614.202 741.298 542.395 757.398 474.709 746.958C420.862 737.347 373.271 714.122 333.558 676.414C332.799 675.702 332.04 674.991 331.258 674.257C307.32 651.681 287.665 624.632 274.505 594.354C274.505 593.404 274.505 592.454 274.505 591.475C276.028 591.683 277.55 591.89 279.119 592.105C284.322 592.772 289.502 593.135 294.737 593.454C313.754 594.433 313.754 594.433 329.311 603.993C333.089 609.1 336.129 614.571 339.078 620.188C342.219 625.715 346.57 629.96 350.932 634.552C353.835 637.584 353.835 637.584 356.654 641.238C360.883 646.474 365.813 650.538 370.994 654.809C370.998 654.813 371.002 654.816 371.007 654.82C372.31 655.905 373.613 656.991 374.956 658.109C423.506 697.067 484.586 712.152 546.084 705.984C602.673 698.675 654.631 668.31 690.757 624.587C728.941 574.187 745.127 513.286 737.173 450.507C729.24 399.312 702.508 347.973 661.951 315.061C660.588 313.949 659.225 312.837 657.821 311.692C611.789 274.856 553.134 256.547 494.227 262.507C434.202 269.528 378.802 297.537 340.76 345.293C329.304 360.607 319.794 376.82 311.954 394.242C311.172 395.949 310.39 397.656 309.585 399.415C293.951 435.813 292.712 473.333 293.23 512.294C282.465 509.138 272.013 505.817 261.813 501.136C260.291 500.454 260.291 500.454 258.738 499.758C256.308 498.668 253.883 497.564 251.46 496.457C249.421 420.336 275.928 353.528 327.387 297.875C365.811 258.171 416.559 233.494 470.389 222.923C472.169 222.568 473.95 222.214 475.784 221.848C505.561 217.122 538.902 218.036 568.33 224.362ZM548.166 283.388C561.182 318.966 547.386 368.514 532.322 401.44C521.722 423.839 507.69 442.669 490.553 460.466C489.325 461.83 489.325 461.83 488.072 463.221C456.902 496.848 404.871 517.588 359.574 519.688C347.542 519.997 335.492 519.979 323.488 519.019C321.97 518.899 321.97 518.899 320.422 518.776C316.924 517.84 315.567 516.611 313.394 513.733C312.575 510.97 312.575 510.97 312.426 507.913C312.334 506.763 312.242 505.614 312.148 504.43C309.443 453.515 320.517 403.496 352.283 362.569C353.3 361.235 354.317 359.901 355.366 358.526C388.978 315.926 438.03 288.469 491.813 281.223C520.56 277.785 520.56 277.785 548.166 283.388ZM650.428 330.897C651.501 331.788 652.574 332.678 653.68 333.596C660.5 339.371 666.385 345.574 672.033 352.492C673.704 354.513 673.704 354.513 675.409 356.574C711.383 401.038 724.305 456.327 719.131 512.685C712.314 564.306 683.032 613.452 642.323 645.603C605.742 673.547 563.379 688.253 517.379 688.292C515.827 688.293 515.827 688.293 514.245 688.294C498.725 688.271 484.026 687.618 468.948 683.613C468.009 683.366 467.069 683.119 466.101 682.864C434.909 674.459 407.231 659.683 382.529 638.983C381.278 637.939 380.026 636.894 378.737 635.817C371.656 629.711 365.398 623.185 359.484 615.949C358.539 614.793 357.594 613.636 356.62 612.445C351.478 606.898 351.478 606.898 349.402 600.113C350.537 600.019 351.673 599.926 352.843 599.83C410.602 594.951 464.599 581.588 512.158 546.845C512.956 546.269 513.755 545.692 514.578 545.098C551.135 518.53 579.401 484.779 600.017 444.63C600.712 443.305 600.712 443.305 601.421 441.953C621.404 403.528 629.074 360.772 631.704 317.94C638.488 317.94 645.438 326.68 650.428 330.897Z"
        fill="black" />
    <path
        d="M568.33 224.362L571.855 225.088C609.642 233.036 645.875 249.581 676.354 273.311L680.191 276.179C699.921 291.491 718.513 310.209 732.526 330.897L734.582 333.913C762.566 375.453 778.686 421.867 781.497 471.983L781.671 475.007C785.098 545.613 757.01 613.756 710.052 665.58C698.845 677.816 686.719 688.093 673.473 698.009L669.794 700.793C614.202 741.298 542.395 757.398 474.709 746.958C420.862 737.347 373.271 714.122 333.558 676.414L331.258 674.257C307.32 651.681 287.665 624.632 274.505 594.354V591.475L279.119 592.105C284.322 592.772 289.502 593.135 294.737 593.454C313.754 594.433 313.754 594.433 329.311 603.993C333.089 609.1 336.129 614.571 339.078 620.188C342.219 625.715 346.57 629.96 350.932 634.552C353.835 637.584 353.835 637.584 356.654 641.238C360.883 646.474 365.813 650.538 370.994 654.809L371.007 654.82L374.956 658.109C423.506 697.067 484.586 712.152 546.084 705.984C602.673 698.675 654.631 668.31 690.757 624.587C728.941 574.187 745.127 513.286 737.173 450.507C729.24 399.312 702.508 347.973 661.951 315.061L657.821 311.692C611.789 274.856 553.134 256.547 494.227 262.507C434.202 269.528 378.802 297.537 340.76 345.293C329.304 360.607 319.794 376.82 311.954 394.242L309.585 399.415C293.951 435.813 292.712 473.333 293.23 512.294C282.465 509.138 272.013 505.817 261.813 501.136L258.738 499.758C256.308 498.668 253.883 497.564 251.46 496.457C249.421 420.336 275.928 353.528 327.387 297.875C365.811 258.171 416.559 233.494 470.389 222.923L475.784 221.848C505.561 217.122 538.902 218.036 568.33 224.362Z"
        fill="#FFDBBC" />
    <path
        d="M507.837 104.871L511.691 107.744C544.604 133.354 571.834 167.312 588.494 205.647V208.526L583.887 207.902C578.667 207.233 573.462 206.845 568.212 206.496C549.437 205.568 549.437 205.568 534.01 196.328C530.548 191.536 527.842 186.391 525.214 181.105C522.932 176.922 519.917 173.647 516.659 170.195C513.308 166.645 510.043 163.145 507.027 159.308C502.435 154.012 497.402 149.626 491.993 145.181L488.049 141.897C439.505 102.932 378.413 87.8492 316.916 94.017C269.831 100.098 227.422 122.463 192.407 153.819L189.009 156.845C149.648 194.034 125.928 250.431 124.308 304.196C123.892 324.4 124.147 344.312 129.034 364.009L129.877 367.543C140.818 412.332 164.846 455.561 201.049 484.94L205.179 488.309C251.211 525.145 309.866 543.453 368.773 537.493C428.798 530.473 484.198 502.464 522.24 454.707C533.696 439.394 543.206 423.18 551.046 405.759L553.415 400.585C569.049 364.188 570.287 326.667 569.77 287.707C580.535 290.863 590.987 294.184 601.187 298.864L604.262 300.242C606.692 301.333 609.117 302.437 611.54 303.543C613.239 366.983 596.008 429.402 555.367 479.181L553.523 481.461C509.899 535.178 447.392 571.028 378.281 579.232C327.526 584.121 277.11 576.961 231.296 554.044L228.148 552.503C213.307 545.197 199.678 536.879 186.646 526.69L184.332 524.882C130.256 482.026 92.7502 419.941 83.7086 351.046C75.6146 280.043 93.5799 209.052 137.675 152.379C152.977 133.178 169.882 116.698 189.527 101.991L193.206 99.2076C286.516 31.2205 416.895 35.4256 507.837 104.871Z"
        fill="#FFDBBC" />
    <path
        d="M144.071 640.96C141.615 642.598 141.615 642.598 139.25 644.894C138.371 645.735 137.492 646.576 136.587 647.442C135.683 648.34 134.778 649.237 133.847 650.162C132.949 651.034 132.051 651.906 131.126 652.805C128.412 655.461 125.726 658.142 123.047 660.833C121.666 662.208 121.666 662.208 120.258 663.611C119.384 664.485 118.511 665.36 117.612 666.261C116.825 667.048 116.039 667.836 115.229 668.647C112.674 671.387 112.399 672.34 112.12 676.17C112.376 679.812 112.376 679.812 113.462 681.793C116.714 683.576 118.935 683.334 122.6 682.879C125.517 681.012 127.824 678.635 130.232 676.162C130.926 675.473 131.619 674.784 132.333 674.074C133.791 672.616 135.241 671.149 136.681 669.675C138.889 667.421 141.13 665.204 143.378 662.99C144.792 661.568 146.204 660.143 147.613 658.717C148.284 658.055 148.955 657.393 149.646 656.712C154.165 652.025 154.165 652.025 154.816 647.798C153.63 641.546 149.957 640.32 144.071 640.96Z"
        fill="black" />
    <path
        d="M179.855 650.672C176.02 651.311 175.017 652.183 172.698 655.273C172.415 658.504 172.415 658.504 172.762 662.494C172.824 663.223 172.885 663.953 172.949 664.705C173.097 666.379 173.257 668.052 173.427 669.724C173.763 673.079 174.051 676.436 174.344 679.795C174.581 682.293 174.82 684.79 175.063 687.287C175.17 688.501 175.278 689.714 175.389 690.964C175.509 692.108 175.63 693.253 175.754 694.432C175.905 695.969 175.905 695.969 176.058 697.537C176.957 700.889 178.132 702.259 180.878 704.349C184.52 704.349 184.52 704.349 188.035 703.326C190.235 701.105 191.054 699.858 191.295 696.718C191.206 695.786 191.117 694.854 191.026 693.893C190.935 692.846 190.843 691.799 190.749 690.721C190.634 689.609 190.518 688.497 190.399 687.351C190.291 686.213 190.184 685.076 190.073 683.904C189.852 681.593 189.623 679.282 189.386 676.973C189.089 673.997 188.834 671.022 188.598 668.041C188.454 666.405 188.309 664.769 188.163 663.133C188.108 662.389 188.053 661.646 187.996 660.88C187.655 657.488 187.185 655.497 185.087 652.769C182.923 651.183 182.923 651.183 179.855 650.672Z"
        fill="black" />
    <path
        d="M91.9896 606.837C90.4115 610.364 90.9714 612.741 91.9257 616.422C95.6061 618.875 98.7763 619.119 103.056 619.561C103.85 619.649 104.643 619.737 105.46 619.827C107.14 620.012 108.82 620.192 110.501 620.368C113.051 620.636 115.599 620.918 118.147 621.202C119.784 621.38 121.421 621.557 123.058 621.734C123.811 621.817 124.564 621.9 125.34 621.985C138.724 623.372 138.724 623.372 142.535 620.895C144.535 617.729 144.683 616.014 144.069 612.332C142.382 609.943 140.975 608.519 138.11 607.723C135.766 607.357 133.437 607.116 131.073 606.912C130.208 606.825 129.344 606.738 128.453 606.648C126.627 606.467 124.799 606.294 122.972 606.13C120.185 605.879 117.402 605.601 114.619 605.317C112.84 605.144 111.062 604.973 109.283 604.804C108.041 604.681 108.041 604.681 106.775 604.556C95.8506 603.598 95.8506 603.598 91.9896 606.837Z"
        fill="black" />
    <path
        d="M733.376 120.242C730.525 122.062 728.282 124.372 725.938 126.794C725.263 127.466 724.589 128.139 723.894 128.831C722.476 130.253 721.067 131.684 719.666 133.124C717.523 135.321 715.349 137.484 713.168 139.644C711.792 141.032 710.418 142.422 709.046 143.814C708.397 144.459 707.748 145.104 707.08 145.769C703.549 149.436 701.348 152.017 701.398 157.377C703.462 160.407 703.462 160.407 706.556 162.535C712.281 162.551 715.048 160.944 718.946 157.089C719.534 156.475 720.122 155.862 720.728 155.23C721.354 154.6 721.979 153.97 722.624 153.321C723.94 151.992 725.248 150.656 726.548 149.312C728.538 147.258 730.548 145.228 732.564 143.2C733.842 141.903 735.119 140.605 736.394 139.305C736.992 138.698 737.591 138.091 738.207 137.465C743.556 131.925 743.556 131.925 744.723 128.495C744.529 125.271 744.529 125.271 743.691 122.305C739.756 119.682 738.047 119.594 733.376 120.242Z"
        fill="black" />
    <path
        d="M671.937 98C668.371 98.8229 667.296 99.5968 665.297 102.706C664.37 111.084 665.834 119.845 666.715 128.172C666.91 130.152 666.91 130.152 667.11 132.171C668.457 145.134 668.457 145.134 670.454 150.157C673.549 152.22 673.549 152.22 677.159 152.155C680.77 151.188 680.77 151.188 682.569 149.147C684.399 144.744 683.922 141.134 683.445 136.457C683.361 135.537 683.278 134.618 683.191 133.671C683.009 131.732 682.818 129.793 682.618 127.855C682.318 124.897 682.062 121.936 681.809 118.973C681.626 117.086 681.441 115.199 681.253 113.312C681.18 112.429 681.106 111.547 681.031 110.638C680.539 106.211 680.085 104.172 677.23 100.597C674.58 98.5802 674.58 98.5802 671.937 98Z"
        fill="black" />
    <path
        d="M721.252 180.759C720.087 180.724 718.923 180.688 717.724 180.651C714.809 181.102 714.809 181.102 712.851 182.953C711.131 186.395 711.801 188.807 712.746 192.449C715.978 194.604 717.434 194.912 721.195 195.354C722.256 195.482 723.316 195.611 724.409 195.743C726.071 195.931 726.071 195.931 727.767 196.124C728.848 196.253 729.928 196.383 731.041 196.516C759.139 199.852 759.139 199.852 764 197.026C765.353 194.512 765.353 194.512 765.418 190.837C764.322 187.291 764.322 187.291 762.083 185.583C758.813 184.029 756.222 183.577 752.625 183.217C750.723 183.023 750.723 183.023 748.783 182.824C747.464 182.703 746.146 182.581 744.787 182.456C743.505 182.322 742.222 182.189 740.901 182.051C734.36 181.409 727.822 180.951 721.252 180.759Z"
        fill="black" />
</svg>