<svg width="820" height="820" viewBox="0 0 820 820" fill="none" xmlns="http://www.w3.org/2000/svg">
<g clip-path="url(#clip0_211_138)">
<path d="M486.374 -0.381583C487.674 -0.397269 488.974 -0.412954 490.314 -0.429115C519.063 -0.704446 546.868 -0.479258 574.961 6.40629C576.388 6.74951 577.814 7.09274 579.284 7.44637C660.127 27.4567 729.53 77.6399 773.855 148.145C775.914 151.6 777.949 155.071 779.961 158.555C781.012 160.355 782.062 162.155 783.145 164.01C797.408 189.147 807.097 216.935 813.594 245.039C814.065 246.985 814.065 246.985 814.545 248.971C824.731 292.646 824.48 344.086 813.594 387.578C813.198 389.175 812.803 390.773 812.396 392.418C806.847 414.205 799.549 434.71 789.57 454.844C789.021 455.976 788.473 457.108 787.908 458.274C765.827 503.526 731.184 544.033 690.273 573.36C689.327 574.04 688.38 574.72 687.405 575.421C670.544 587.392 652.089 599.675 632.298 606.091C620.626 609.673 620.626 609.673 611.822 617.715C609.347 623.131 607.376 628.606 605.39 634.219C603.48 638.487 601.398 642.66 599.284 646.831C598.474 648.444 598.474 648.444 597.648 650.089C584.129 676.691 567.491 699.899 546.868 721.461C545.292 723.111 543.723 724.768 542.162 726.433C492.088 779.715 417.479 816.355 344.061 820.181C340.53 820.287 337.002 820.346 333.469 820.382C332.171 820.397 330.873 820.413 329.536 820.429C300.836 820.705 273.083 820.468 245.039 813.594C242.899 813.079 242.898 813.079 240.715 812.554C159.873 792.543 90.4693 742.36 46.1447 671.856C44.0854 668.4 42.0503 664.929 40.0387 661.445C38.9879 659.645 37.9371 657.845 36.8544 655.99C22.5915 630.854 12.9026 603.065 6.40592 574.961C6.09185 573.664 5.77779 572.366 5.45421 571.029C-4.73152 527.355 -4.48074 475.915 6.40592 432.422C6.80102 430.825 7.19611 429.228 7.60318 427.582C13.1515 405.801 20.4356 385.279 30.4294 365.156C30.9865 364.016 31.5437 362.876 32.1177 361.701C66.4766 291.929 125.786 239.566 197.036 209.585C198.078 209.129 199.121 208.673 200.195 208.203C201.321 207.753 202.447 207.303 203.607 206.84C207.442 204.484 208.165 202.573 209.761 198.4C210.299 197.049 210.837 195.698 211.392 194.306C211.958 192.847 212.524 191.388 213.108 189.885C227.684 154.3 248.777 123.653 275.468 96.0938C276.271 95.2499 277.074 94.4061 277.901 93.5366C330.938 37.8557 408.805 0.39444 486.374 -0.381583ZM325.117 81.6797C323.703 82.7347 322.289 83.7897 320.831 84.8766C284.234 113.366 253.955 151.143 235.429 193.789C235.429 194.846 235.429 195.903 235.429 196.992C237.12 196.763 238.811 196.534 240.553 196.298C246.358 195.554 252.144 195.122 257.983 194.734C278.86 193.702 278.86 193.702 296.013 183.423C299.863 178.091 302.872 172.368 305.794 166.487C308.331 161.834 311.684 158.19 315.307 154.351C319.033 150.401 322.663 146.507 326.018 142.239C331.124 136.347 336.719 131.469 342.734 126.523C344.905 124.715 344.905 124.715 347.12 122.87C401.098 79.5225 469.03 62.744 537.412 69.6055C589.768 76.3708 636.925 101.251 675.859 136.133C677.106 137.244 678.353 138.354 679.638 139.499C723.406 180.871 749.781 243.61 751.583 303.421C752.045 325.897 751.762 348.049 746.328 369.961C745.863 371.907 745.863 371.907 745.389 373.893C733.224 423.719 706.506 471.809 666.25 504.492C663.977 506.347 663.977 506.347 661.658 508.24C610.472 549.219 545.251 569.586 479.749 562.956C413.004 555.145 351.402 523.987 309.101 470.859C296.362 453.824 285.788 435.787 277.07 416.406C276.201 414.507 275.332 412.608 274.436 410.651C257.051 370.16 255.675 328.42 256.25 285.078C244.28 288.589 232.658 292.283 221.316 297.49C219.623 298.249 219.623 298.249 217.897 299.023C215.194 300.236 212.499 301.464 209.804 302.695C207.915 373.27 227.074 442.708 272.265 498.086C272.942 498.923 273.619 499.76 274.316 500.622C322.824 560.38 392.328 600.262 469.176 609.388C525.614 614.828 581.674 606.863 632.617 581.367C633.772 580.802 634.927 580.236 636.117 579.653C652.62 571.526 667.774 562.273 682.265 550.938C683.114 550.274 683.963 549.61 684.838 548.926C744.969 501.25 786.673 432.183 796.727 355.541C805.727 276.552 785.751 197.577 736.719 134.531C719.704 113.171 700.907 94.8369 679.062 78.4766C677.712 77.4547 676.362 76.4327 674.971 75.3798C571.215 -0.253258 426.239 4.42479 325.117 81.6797ZM363.554 137.734C361.73 139.196 359.905 140.658 358.08 142.12C347.996 150.342 338.831 159.01 330.322 168.865C329.519 169.792 328.716 170.72 327.888 171.675C323.683 176.71 320.979 181.267 318.711 187.383C319.973 187.486 321.236 187.59 322.537 187.697C386.762 193.125 446.804 207.991 499.687 246.641C500.575 247.282 501.463 247.923 502.378 248.584C569.408 297.32 613.825 370.579 627.469 452.272C629.978 468.527 631.426 484.891 632.617 501.289C639.959 498.981 644.775 494.794 650.234 489.578C651.048 488.819 651.861 488.06 652.699 487.279C656.562 483.658 660.341 479.972 664.085 476.227C666.283 474.03 668.513 471.863 670.817 469.777C705.608 437.668 728.155 382.553 730.596 335.689C731.791 266.502 714.322 207.199 665.872 155.923C625.861 115.078 569.851 90.0014 512.617 89.2187C458.008 88.8729 406.341 102.243 363.554 137.734ZM257.851 214.609C256.558 214.876 255.264 215.142 253.932 215.416C211.914 224.259 171.625 242.664 137.734 269.063C136.326 270.115 134.918 271.168 133.467 272.253C111.528 289.288 90.8549 310.111 75.2731 333.125C74.5188 334.232 73.7645 335.34 72.9873 336.481C41.8699 382.693 23.9456 434.326 20.82 490.078C20.756 491.188 20.692 492.298 20.626 493.442C16.8159 571.988 48.0484 647.795 100.263 705.448C112.725 719.059 126.208 730.493 140.937 741.524C142.287 742.546 143.638 743.567 145.029 744.62C206.843 789.681 286.689 807.591 361.953 795.977C421.829 785.285 474.747 759.448 518.906 717.5C519.75 716.708 520.594 715.916 521.464 715.1C548.082 689.986 569.937 659.895 584.57 626.211C584.57 625.154 584.57 624.097 584.57 623.008C582.877 623.239 581.184 623.47 579.44 623.709C573.655 624.452 567.894 624.856 562.073 625.21C540.928 626.299 540.928 626.299 523.629 636.934C519.428 642.616 516.048 648.701 512.768 654.95C509.276 661.099 504.438 665.822 499.587 670.93C496.359 674.303 496.359 674.303 493.225 678.368C488.522 684.192 483.04 688.714 477.28 693.465C477.275 693.469 477.27 693.473 477.265 693.477C475.816 694.684 474.367 695.892 472.874 697.136C418.889 740.475 350.971 757.256 282.588 750.395C219.664 742.264 161.888 708.485 121.718 659.844C79.2598 603.776 61.2614 536.026 70.1056 466.187C78.9269 409.234 108.652 352.121 153.75 315.508C155.265 314.271 156.78 313.035 158.342 311.761C209.527 270.782 274.749 250.414 340.25 257.045C406.995 264.855 468.597 296.013 510.898 349.141C523.637 366.177 534.211 384.213 542.929 403.594C543.799 405.493 544.668 407.393 545.563 409.349C562.948 449.84 564.325 491.58 563.75 534.922C575.719 531.412 587.342 527.717 598.684 522.51C600.376 521.751 600.376 521.751 602.103 520.977C604.805 519.764 607.501 518.536 610.195 517.305C612.462 432.622 582.988 358.301 525.769 296.389C483.043 252.22 426.614 224.768 366.758 213.008C364.778 212.614 362.798 212.219 360.758 211.813C327.648 206.555 290.573 207.572 257.851 214.609ZM280.273 280.274C265.8 319.853 281.14 374.973 297.89 411.602C309.677 436.52 325.28 457.467 344.336 477.266C345.701 478.783 345.701 478.783 347.095 480.331C381.754 517.739 439.609 540.812 489.978 543.148C503.357 543.491 516.756 543.471 530.104 542.404C531.792 542.27 531.792 542.27 533.513 542.134C537.403 541.093 538.911 539.725 541.328 536.524C542.239 533.45 542.239 533.45 542.404 530.048C542.506 528.77 542.608 527.491 542.714 526.174C545.722 469.533 533.407 413.889 498.086 368.359C496.954 366.875 495.823 365.391 494.657 363.861C457.282 316.47 402.739 285.925 342.934 277.865C310.969 274.04 310.969 274.04 280.273 280.274ZM166.562 333.125C165.369 334.116 164.176 335.107 162.946 336.128C155.363 342.552 148.819 349.453 142.539 357.149C140.681 359.397 140.681 359.397 138.785 361.69C98.783 411.154 84.4141 472.662 90.1681 535.358C97.7483 592.784 130.308 647.457 175.575 683.224C216.25 714.31 263.356 730.67 314.507 730.713C316.232 730.715 316.232 730.715 317.992 730.716C335.248 730.69 351.593 729.963 368.359 725.508C369.404 725.233 370.449 724.958 371.525 724.675C406.209 715.325 436.986 698.887 464.453 675.86C465.844 674.697 467.236 673.535 468.669 672.337C476.544 665.544 483.502 658.285 490.078 650.235C491.129 648.948 492.18 647.662 493.262 646.337C498.981 640.165 498.981 640.165 501.289 632.617C500.026 632.514 498.764 632.41 497.463 632.303C433.238 626.875 373.195 612.009 320.312 573.36C319.424 572.718 318.536 572.077 317.621 571.416C276.971 541.86 245.541 504.313 222.617 459.649C221.844 458.175 221.844 458.175 221.056 456.671C198.836 413.925 190.307 366.36 187.382 318.711C179.839 318.711 172.111 328.434 166.562 333.125Z" fill="black"/>
<path d="M257.851 214.609L253.932 215.416C211.914 224.259 171.625 242.664 137.734 269.063L133.467 272.253C111.528 289.288 90.8549 310.111 75.2731 333.125L72.9873 336.481C41.8699 382.693 23.9456 434.326 20.82 490.078L20.626 493.442C16.8159 571.988 48.0484 647.795 100.263 705.448C112.725 719.059 126.208 730.493 140.937 741.524L145.029 744.62C206.843 789.681 286.689 807.591 361.953 795.977C421.829 785.285 474.747 759.448 518.906 717.5L521.464 715.1C548.082 689.986 569.937 659.895 584.57 626.211V623.008L579.44 623.709C573.655 624.452 567.894 624.856 562.073 625.21C540.928 626.299 540.928 626.299 523.629 636.934C519.428 642.616 516.048 648.701 512.768 654.95C509.276 661.099 504.438 665.822 499.587 670.93C496.359 674.303 496.359 674.303 493.225 678.368C488.522 684.192 483.04 688.714 477.28 693.465L477.265 693.477L472.874 697.136C418.889 740.475 350.971 757.256 282.588 750.395C219.664 742.264 161.888 708.485 121.718 659.844C79.2598 603.776 61.2614 536.026 70.1056 466.187C78.9269 409.234 108.652 352.121 153.75 315.508L158.342 311.761C209.527 270.782 274.749 250.414 340.25 257.045C406.995 264.855 468.597 296.013 510.898 349.141C523.637 366.177 534.211 384.213 542.929 403.594L545.563 409.349C562.948 449.84 564.325 491.58 563.75 534.922C575.719 531.412 587.342 527.717 598.684 522.51L602.103 520.977C604.805 519.764 607.501 518.536 610.195 517.305C612.462 432.622 582.988 358.301 525.769 296.389C483.043 252.22 426.614 224.768 366.758 213.008L360.758 211.813C327.648 206.555 290.573 207.572 257.851 214.609Z" fill="#FFDBBC"/>
<path d="M325.117 81.6797L320.831 84.8766C284.234 113.366 253.955 151.143 235.429 193.789V196.992L240.553 196.298C246.358 195.554 252.144 195.122 257.983 194.734C278.86 193.702 278.86 193.702 296.013 183.423C299.863 178.091 302.872 172.368 305.794 166.487C308.331 161.834 311.684 158.19 315.307 154.351C319.033 150.401 322.663 146.507 326.018 142.239C331.124 136.347 336.719 131.469 342.734 126.523L347.12 122.87C401.098 79.5225 469.03 62.744 537.412 69.6055C589.768 76.3708 636.925 101.251 675.859 136.133L679.638 139.499C723.406 180.871 749.781 243.61 751.583 303.421C752.045 325.897 751.762 348.049 746.328 369.961L745.389 373.893C733.224 423.719 706.506 471.809 666.25 504.492L661.658 508.24C610.472 549.219 545.251 569.586 479.749 562.956C413.004 555.145 351.402 523.987 309.101 470.859C296.362 453.824 285.788 435.787 277.07 416.406L274.436 410.651C257.051 370.16 255.675 328.42 256.25 285.078C244.28 288.589 232.658 292.283 221.316 297.49L217.897 299.023C215.194 300.236 212.499 301.464 209.804 302.695C207.915 373.27 227.074 442.708 272.265 498.086L274.316 500.622C322.824 560.38 392.328 600.262 469.176 609.388C525.614 614.828 581.674 606.863 632.617 581.367L636.117 579.653C652.62 571.526 667.774 562.273 682.265 550.938L684.838 548.926C744.969 501.25 786.673 432.183 796.727 355.541C805.727 276.552 785.751 197.577 736.719 134.531C719.704 113.171 700.907 94.8369 679.062 78.4766L674.971 75.3798C571.215 -0.253258 426.239 4.42479 325.117 81.6797Z" fill="#FFDBBC"/>
<path d="M696.68 680.664C700.527 683.229 700.527 683.229 704.231 686.826C705.608 688.144 706.985 689.461 708.403 690.818C709.82 692.224 711.236 693.63 712.696 695.078C714.102 696.445 715.508 697.811 716.957 699.219C721.209 703.378 725.416 707.579 729.612 711.794C731.775 713.948 731.775 713.948 733.982 716.146C735.35 717.515 736.718 718.885 738.127 720.296C739.358 721.53 740.59 722.763 741.859 724.034C745.861 728.326 746.293 729.819 746.729 735.818C746.329 741.523 746.329 741.523 744.627 744.626C739.533 747.42 736.054 747.04 730.313 746.328C725.744 743.403 722.13 739.68 718.357 735.805C717.271 734.726 716.185 733.647 715.066 732.535C712.782 730.252 710.512 727.954 708.255 725.644C704.797 722.113 701.286 718.642 697.766 715.173C695.551 712.945 693.339 710.713 691.131 708.479C690.08 707.442 689.029 706.406 687.947 705.338C680.867 697.997 680.867 697.997 679.848 691.375C681.706 681.581 687.459 679.662 696.68 680.664Z" fill="black"/>
<path d="M89.6875 73.6718C94.1135 76.4977 97.5956 80.083 101.236 83.8442C102.283 84.8879 103.33 85.9316 104.408 87.0069C106.61 89.2151 108.798 91.4371 110.973 93.6718C114.301 97.0835 117.676 100.441 121.062 103.795C123.198 105.95 125.332 108.109 127.462 110.27C128.469 111.271 129.477 112.273 130.515 113.304C135.998 118.998 139.415 123.006 139.336 131.328C136.133 136.033 136.133 136.033 131.328 139.336C122.44 139.36 118.143 136.865 112.092 130.88C111.179 129.928 110.266 128.975 109.325 127.994C108.354 127.016 107.382 126.038 106.38 125.03C104.338 122.967 102.308 120.892 100.288 118.806C97.1994 115.617 94.0777 112.464 90.9481 109.316C88.964 107.302 86.9817 105.287 85.0017 103.269C84.0725 102.327 83.1433 101.384 82.1859 100.412C73.8812 91.8111 73.8812 91.8111 72.0703 86.4843C72.3706 81.4794 72.3706 81.4794 73.6719 76.8749C79.781 72.8022 82.4357 72.666 89.6875 73.6718Z" fill="black"/>
<path d="M640.625 695.879C646.633 696.88 648.203 698.245 651.835 703.086C652.28 708.147 652.28 708.147 651.735 714.397C651.639 715.54 651.543 716.683 651.443 717.861C651.211 720.483 650.96 723.104 650.694 725.724C650.167 730.978 649.716 736.238 649.258 741.498C648.887 745.411 648.512 749.323 648.132 753.235C647.963 755.135 647.795 757.036 647.622 758.994C647.433 760.787 647.244 762.58 647.05 764.427C646.813 766.834 646.813 766.834 646.572 769.29C645.165 774.542 643.323 776.687 639.023 779.961C633.317 779.961 633.317 779.961 627.812 778.359C624.366 774.88 623.082 772.927 622.705 768.008C622.844 766.547 622.983 765.087 623.126 763.582C623.269 761.943 623.413 760.303 623.56 758.613C623.741 756.871 623.922 755.13 624.108 753.335C624.277 751.553 624.445 749.771 624.619 747.935C624.966 744.315 625.325 740.696 625.695 737.078C626.16 732.416 626.56 727.756 626.93 723.087C627.155 720.524 627.382 717.961 627.612 715.398C627.698 714.233 627.784 713.069 627.873 711.869C628.406 706.556 629.144 703.437 632.429 699.163C635.82 696.68 635.82 696.68 640.625 695.879Z" fill="black"/>
<path d="M778.259 627.212C780.731 632.738 779.854 636.461 778.359 642.227C772.594 646.07 767.628 646.451 760.923 647.144C759.681 647.282 758.438 647.419 757.158 647.561C754.527 647.85 751.895 648.132 749.262 648.408C745.268 648.829 741.276 649.27 737.285 649.715C734.721 649.994 732.157 650.271 729.593 650.547C728.413 650.677 727.233 650.807 726.017 650.941C705.052 653.114 705.052 653.114 699.082 649.233C695.95 644.274 695.718 641.588 696.679 635.82C699.322 632.077 701.527 629.847 706.014 628.601C709.686 628.028 713.334 627.649 717.037 627.331C718.391 627.194 719.746 627.057 721.141 626.916C724.002 626.632 726.864 626.363 729.727 626.106C734.092 625.713 738.452 625.276 742.812 624.831C745.598 624.561 748.384 624.293 751.17 624.028C753.115 623.835 753.115 623.835 755.099 623.639C772.211 622.139 772.211 622.139 778.259 627.212Z" fill="black"/>
<path d="M185.081 39.1382C190.617 40.4158 192.287 41.6174 195.391 46.4453C196.829 59.4531 194.556 73.0557 193.189 85.9839C192.885 89.0574 192.885 89.0574 192.576 92.1931C190.485 112.319 190.485 112.319 187.383 120.117C182.579 123.32 182.579 123.32 176.973 123.22C171.368 121.719 171.368 121.719 168.574 118.55C165.733 111.714 166.472 106.108 167.214 98.8464C167.344 97.4193 167.474 95.9921 167.608 94.5217C167.89 91.5105 168.187 88.5005 168.498 85.492C168.963 80.8982 169.361 76.3018 169.754 71.7012C170.037 68.7709 170.325 65.8409 170.617 62.9114C170.731 61.5415 170.845 60.1716 170.962 58.7603C171.726 51.8874 172.431 48.721 176.864 43.1702C180.977 40.0391 180.977 40.0391 185.081 39.1382Z" fill="black"/>
<path d="M108.513 167.632C110.32 167.577 112.128 167.522 113.99 167.465C118.516 168.164 118.516 168.164 121.556 171.038C124.226 176.382 123.185 180.127 121.719 185.781C116.701 189.127 114.44 189.606 108.6 190.292C106.954 190.491 105.307 190.69 103.611 190.896C101.03 191.188 101.03 191.188 98.3965 191.487C96.7191 191.688 95.0416 191.889 93.3134 192.097C49.6877 197.276 49.6877 197.276 42.1416 192.888C40.0396 188.984 40.0396 188.984 39.9395 183.279C41.6411 177.773 41.6411 177.773 45.1168 175.122C50.1946 172.71 54.2165 172.007 59.8026 171.449C62.7554 171.147 62.7554 171.147 65.7678 170.839C67.8147 170.65 69.8617 170.461 71.9707 170.266C73.9619 170.059 75.9532 169.851 78.0047 169.637C88.1602 168.64 98.3117 167.93 108.513 167.632Z" fill="black"/>
</g>
<defs>
<clipPath id="clip0_211_138">
<rect width="820" height="820" fill="white"/>
</clipPath>
</defs>
</svg>
