<svg width="512" height="512" viewBox="0 0 512 512" fill="none" xmlns="http://www.w3.org/2000/svg">
<g clip-path="url(#clip0_189_117)">
<path d="M253.276 -0.260828C256.326 -0.250038 259.374 -0.260825 262.424 -0.273523C287.387 -0.292947 287.387 -0.292947 294.25 4.06241C296.659 8.10573 296.924 11.4048 296 15.9999C294.206 18.8702 293.017 20.4912 290 21.9999C283.161 22.3385 276.308 21.9455 269.48 21.5414C215.834 18.5447 161.247 33.7486 118 65.9999C117.396 66.4483 116.792 66.8968 116.17 67.3588C107.266 74.0271 99.0182 81.2979 90.9997 88.9999C90.1025 89.8559 89.2053 90.7118 88.281 91.5937C46.321 132.518 22.0876 192.622 20.9685 250.902C20.798 315.337 44.4462 374.615 88.9997 421C89.8557 421.897 90.7116 422.794 91.5935 423.719C133.426 466.61 193.849 489.805 253.187 490.969C307.209 491.462 361.19 473.456 403 439C403.554 438.547 404.109 438.094 404.68 437.627C417.662 426.964 429.8 415.389 440 402C440.434 401.432 440.868 400.863 441.315 400.278C479.465 350.074 497.044 287.769 488.802 225.079C483.498 187.675 470.129 153.335 449 122C448.34 121.01 447.68 120.02 447 119C446.87 120.212 446.87 120.212 446.738 121.449C446.1 126.303 445.586 130.076 442.937 134.25C438.894 136.659 435.595 136.924 431 136C428.129 134.206 426.508 133.017 425 130C424.885 128.552 424.83 127.098 424.807 125.645C424.783 124.293 424.783 124.293 424.758 122.914C424.714 118.784 424.673 114.655 424.65 110.525C424.633 108.349 424.606 106.172 424.568 103.996C424.513 100.856 424.491 97.7181 424.476 94.578C424.454 93.6091 424.431 92.6401 424.408 91.6418C424.421 87.2558 424.507 83.9782 427.22 80.4013C432.161 76.1332 437.53 76.8297 443.773 76.7968C444.615 76.7911 445.457 76.7854 446.325 76.7795C448.101 76.7701 449.878 76.7635 451.655 76.7597C454.359 76.75 457.062 76.7189 459.765 76.6874C461.497 76.6809 463.229 76.6756 464.961 76.6718C465.762 76.6594 466.563 76.6471 467.389 76.6344C472.661 76.6551 476.336 77.4829 481 79.9999C483.478 83.4074 484 85.3505 484 89.5624C482.752 93.8523 481.567 95.3049 478 97.9999C474.704 98.6006 471.523 98.4741 468.187 98.3124C467.304 98.2899 466.42 98.2673 465.509 98.2441C463.339 98.1854 461.169 98.0957 459 97.9999C460.142 99.5797 460.142 99.5797 461.308 101.191C468.023 110.542 474.327 119.982 480 130C480.542 130.941 480.542 130.941 481.095 131.901C496.031 157.993 505.508 187.329 510 217C510.177 218.119 510.354 219.238 510.537 220.39C512.218 232.112 512.357 243.735 512.312 255.562C512.31 256.583 512.308 257.604 512.306 258.656C512.256 273.298 511.946 287.61 509 302C508.806 302.997 508.613 303.993 508.414 305.02C500.295 346.109 482.926 383.203 457 416C456.188 417.038 455.376 418.075 454.539 419.144C441.874 434.706 427.323 449.302 411 461C409.654 461.989 408.309 462.979 406.965 463.969C375.658 486.769 340.1 501.988 302 509C301.199 509.161 300.398 509.322 299.573 509.487C271.506 514.977 237.998 514.749 210 509C208.987 508.801 207.975 508.603 206.931 508.398C165.839 500.181 128.903 482.74 95.9997 457C95.4606 456.581 94.9214 456.162 94.3659 455.73C78.1259 442.967 63.0551 427.776 50.9997 411C50.136 409.83 49.2714 408.661 48.406 407.492C33.2626 386.866 21.1805 364.257 12.9997 340C12.5867 338.777 12.5867 338.777 12.1652 337.53C8.92717 327.759 6.39487 317.878 4.24972 307.812C4.05096 306.888 3.85221 305.963 3.64743 305.01C0.35473 288.804 -0.375582 272.87 -0.31278 256.375C-0.310624 255.357 -0.308469 254.338 -0.306249 253.289C-0.256546 238.665 0.0576406 224.372 2.99972 210C3.28976 208.505 3.28976 208.505 3.58566 206.98C11.2143 168.372 26.9271 132.218 50.9997 101C51.643 100.165 52.2862 99.3293 52.9489 98.4687C67.0518 80.5146 83.4058 63.3263 102 49.9999C102.541 49.608 103.083 49.2162 103.641 48.8124C124.662 33.6608 147.426 21.2876 172 12.9999C173.222 12.5869 173.222 12.5869 174.469 12.1654C184.24 8.92736 194.122 6.39506 204.187 4.24991C205.112 4.05116 206.037 3.8524 206.989 3.64762C222.427 0.51118 237.558 -0.326974 253.276 -0.260828Z" fill="black"/>
<path d="M294 67.9999C294.899 68.1986 295.798 68.3972 296.724 68.6019C324.839 74.9623 350.026 86.6202 373 104C373.959 104.714 374.918 105.428 375.907 106.164C416.109 137.527 439.964 184.153 446.617 234.219C451.641 284.64 438.042 335.889 406.164 375.578C373.02 415.744 327.19 441.546 275.114 446.822C268.858 447.349 262.587 447.346 256.313 447.312C255.574 447.31 254.835 447.308 254.074 447.306C200.523 447.057 153.288 424.773 115.832 387.2C82.194 352.556 64.4572 304.197 64.6878 256.312C64.6896 255.523 64.6914 254.734 64.6933 253.921C64.7406 241.716 65.3509 229.951 68.0003 218C68.2497 216.805 68.2497 216.805 68.5042 215.586C72.2322 197.992 78.4114 181.516 86.6878 165.562C87.1391 164.692 87.5904 163.822 88.0554 162.926C94.2442 151.378 94.2442 151.378 99.0003 149C105.952 148.43 105.952 148.43 109.875 150.562C112.635 153.728 113.444 155.828 114 160C112.23 165.553 109.818 170.229 106.813 175.187C97.6648 190.967 92.5261 208.193 89.0003 226C88.7541 227.199 88.5078 228.398 88.2542 229.633C80.9743 272.91 92.9755 319.299 117.938 355C123.375 362.566 129.491 369.351 136 376C136.685 376.735 137.369 377.469 138.074 378.226C158.19 399.396 187.203 413.671 215.188 420.812C215.946 421.007 216.704 421.202 217.486 421.403C230.084 424.427 242.762 425.385 255.688 425.312C256.73 425.309 256.73 425.309 257.794 425.306C303.173 425.081 343.39 407.058 376 376C376.718 375.335 377.436 374.67 378.176 373.984C406.855 346.628 424.149 303.659 425.336 264.476C425.366 261.859 425.379 259.242 425.375 256.625C425.375 255.59 425.375 255.59 425.375 254.535C425.335 241.414 423.957 228.796 421 216C420.824 215.232 420.647 214.465 420.465 213.674C413.235 183.657 397.038 158.128 376 136C375.382 135.317 374.763 134.633 374.125 133.93C345.063 102.921 301.52 88.1364 260.09 85.7772C227.651 85.0057 193.639 94.1457 166.305 111.734C162.591 113.774 159.116 113.82 155 113C153.079 111.479 151.681 110.197 150.48 108.5C149.958 107.763 149.474 106.947 149 106C148.393 100.652 149.696 98.1679 153 93.9999C155.3 92.2419 157.752 90.9028 160.313 89.5624C161.023 89.1797 161.733 88.797 162.464 88.4027C164.633 87.2472 166.813 86.1195 169 84.9999C169.619 84.6784 170.237 84.357 170.874 84.0258C207.298 65.2927 253.89 58.8574 294 67.9999Z" fill="black"/>
<path d="M133 118C134.084 118.768 134.955 119.46 135.682 120.175C137.2 121.669 138.092 123.265 139 125.875C139 130.043 138.156 132.429 136 136C132.02 138.525 129.986 139.15 125.312 138.437C122.977 137.424 121.671 136.857 120.768 136.272C119.62 135.528 119.125 134.755 118 133C117.153 128.336 117.344 125.05 119.875 121C123.805 117.301 127.791 117.208 133 118Z" fill="black"/>
<path fill-rule="evenodd" clip-rule="evenodd" d="M296 15.9999C294.206 18.8702 293.017 20.4912 290 21.9999C283.161 22.3385 276.308 21.9455 269.48 21.5414C215.834 18.5447 161.247 33.7486 118 65.9999L116.17 67.3588C107.266 74.0271 99.0182 81.2979 90.9997 88.9999L88.281 91.5937C46.321 132.518 22.0876 192.622 20.9685 250.902C20.798 315.337 44.4462 374.615 88.9997 421L91.5935 423.719C133.426 466.61 193.849 489.805 253.187 490.969C307.209 491.462 361.19 473.456 403 439L404.68 437.627C417.662 426.964 429.8 415.389 440 402L441.315 400.278C479.465 350.074 497.044 287.769 488.802 225.079C483.498 187.675 470.129 153.335 449 122L447 119L446.738 121.449C446.1 126.303 445.586 130.076 442.937 134.25C438.894 136.659 435.595 136.924 431 136C428.129 134.206 426.508 133.017 425 130C424.885 128.552 424.83 127.098 424.807 125.645L424.758 122.914C424.714 118.784 424.673 114.655 424.65 110.525C424.633 108.349 424.606 106.172 424.568 103.996C424.513 100.856 424.491 97.7181 424.476 94.578L424.408 91.6418C424.421 87.2558 424.507 83.9782 427.22 80.4013C385.5 42.5 333.5 21.5414 296 15.9999ZM294 67.9999L296.724 68.6019C324.839 74.9623 350.026 86.6202 373 104L375.907 106.164C416.109 137.527 439.964 184.153 446.617 234.219C451.641 284.64 438.042 335.889 406.164 375.578C373.02 415.744 327.19 441.546 275.114 446.822C268.858 447.349 262.587 447.346 256.313 447.312L254.074 447.306C200.523 447.057 153.288 424.773 115.832 387.2C82.194 352.556 64.4572 304.197 64.6878 256.312L64.6933 253.921C64.7406 241.716 65.3509 229.951 68.0003 218L68.5042 215.586C72.2322 197.992 78.4114 181.516 86.6878 165.562L88.0554 162.926C94.2442 151.378 94.2442 151.378 99.0003 149C105.952 148.43 105.952 148.43 109.875 150.562L110.525 149.697C114.46 144.454 117.728 140.101 120.768 136.272C119.62 135.528 119.125 134.755 118 133C117.153 128.336 117.344 125.05 119.875 121C123.805 117.301 127.791 117.208 133 118C134.084 118.768 134.955 119.46 135.682 120.175C139.719 116.571 144.419 112.872 150.48 108.5C149.958 107.763 149.474 106.947 149 106C148.393 100.652 149.696 98.1679 153 93.9999C155.3 92.2419 157.752 90.9028 160.313 89.5624L162.464 88.4027C164.633 87.2472 166.813 86.1195 169 84.9999L170.874 84.0258C207.298 65.2927 253.89 58.8574 294 67.9999Z" fill="#FDEBDC"/>
<path d="M351 154C353.823 155.254 355.463 156.284 357.312 158.75C358.35 162.147 358.474 164.445 358 168C354.649 173.565 350.041 178.243 345.444 182.783C344.819 183.408 344.194 184.034 343.55 184.678C341.509 186.717 339.462 188.749 337.414 190.781C335.987 192.204 334.561 193.628 333.135 195.052C329.401 198.778 325.661 202.498 321.92 206.217C318.396 209.723 314.876 213.233 311.357 216.743C311.057 217.042 310.757 217.341 310.457 217.641C302.977 225.099 295.49 232.552 288 240C288.212 240.735 288.424 241.471 288.643 242.228C288.918 243.203 289.193 244.179 289.477 245.183C289.751 246.146 290.025 247.108 290.307 248.099C292.415 256.925 290.958 265.451 286.711 273.418C280.975 282.574 273.834 287.59 263.562 290.75C251.416 291.935 241.603 289.833 232 282C225.645 276.098 221.46 268.036 220.797 259.336C220.781 258.359 220.766 257.382 220.75 256.375C220.724 255.413 220.698 254.452 220.672 253.461C220.971 250.309 221.591 247.79 222.521 244.784C222.934 243.438 222.934 243.438 223.355 242.066C223.568 241.384 223.781 240.702 224 240C223.593 239.6 223.186 239.2 222.767 238.787C218.524 234.611 214.292 230.424 210.066 226.23C208.488 224.668 206.908 223.108 205.325 221.552C203.047 219.31 200.779 217.058 198.512 214.805C197.805 214.114 197.099 213.423 196.371 212.711C192.739 209.08 189.845 205.897 188 201C188 196.663 188.541 194.621 191.125 191.125C194.659 188.513 196.607 187.924 201 188C206.956 190.829 211.107 194.707 215.684 199.391C216.384 200.095 217.084 200.8 217.806 201.526C220.024 203.76 222.231 206.005 224.438 208.25C225.947 209.774 227.456 211.297 228.967 212.82C232.653 216.539 236.33 220.266 240 224C240.736 223.788 241.472 223.575 242.23 223.357C243.694 222.944 243.694 222.944 245.188 222.523C246.15 222.249 247.113 221.975 248.105 221.693C254.674 220.121 260.359 220.686 266.812 222.523C267.788 222.798 268.764 223.073 269.77 223.357C270.506 223.569 271.242 223.781 272 224C272.828 223.167 273.657 222.334 274.51 221.476C282.317 213.628 290.13 205.786 297.948 197.948C301.967 193.919 305.984 189.887 309.997 185.852C313.87 181.957 317.748 178.067 321.629 174.181C323.109 172.697 324.587 171.212 326.063 169.725C328.132 167.642 330.206 165.566 332.282 163.491C332.891 162.875 333.499 162.259 334.126 161.625C339.374 156.403 343.207 153.165 351 154ZM244.688 247.125C242.391 251.038 241.8 254.482 242 259C243.594 263.693 245.719 266.487 250 269C254.468 270.206 257.91 270.37 262.312 268.875C265.934 266.348 268.386 264.276 269.57 259.887C270.383 254.743 270.07 251.4 267 247C263.482 243.171 260.243 242.245 255.211 241.902C250.652 242.104 247.947 244.129 244.688 247.125Z" fill="black"/>
<path fill-rule="evenodd" clip-rule="evenodd" d="M109.875 150.562C112.635 153.728 113.444 155.828 114 160C112.23 165.553 109.818 170.229 106.813 175.187C97.6648 190.967 92.5261 208.193 89.0003 226L88.2542 229.633C80.9743 272.91 92.9755 319.299 117.938 355C123.375 362.566 129.491 369.351 136 376L138.074 378.226C158.19 399.396 187.203 413.671 215.188 420.812L217.486 421.403C230.084 424.427 242.762 425.385 255.688 425.312L257.794 425.306C303.173 425.081 343.39 407.058 376 376L378.176 373.984C406.855 346.628 424.149 303.659 425.336 264.476C425.366 261.859 425.379 259.242 425.375 256.625L425.375 254.535C425.335 241.414 423.957 228.796 421 216L420.465 213.674C413.235 183.657 397.038 158.128 376 136L374.125 133.93C345.063 102.921 301.52 88.1364 260.09 85.7772C227.651 85.0057 193.639 94.1457 166.305 111.734C162.591 113.774 159.116 113.82 155 113C153.079 111.479 151.681 110.197 150.48 108.5C144.419 112.872 139.719 116.571 135.682 120.175C137.2 121.669 138.092 123.265 139 125.875C139 130.043 138.156 132.429 136 136C132.02 138.525 129.986 139.15 125.312 138.437C122.977 137.424 121.671 136.857 120.768 136.272C117.728 140.101 114.46 144.454 110.525 149.697L109.875 150.562ZM357.312 158.75C355.463 156.284 353.823 155.254 351 154C343.207 153.165 339.374 156.403 334.126 161.625L332.282 163.491C330.206 165.566 328.132 167.642 326.063 169.725C324.587 171.212 323.109 172.697 321.629 174.181C317.748 178.067 313.87 181.957 309.997 185.852C305.984 189.887 301.967 193.919 297.948 197.948C290.13 205.786 282.317 213.628 274.51 221.476L272 224L269.77 223.357L266.812 222.523C260.359 220.686 254.674 220.121 248.105 221.693L245.188 222.523L242.23 223.357L240 224C236.33 220.266 232.653 216.539 228.967 212.82C227.456 211.297 225.947 209.774 224.438 208.25C222.231 206.005 220.024 203.76 217.806 201.526L215.684 199.391C211.107 194.707 206.956 190.829 201 188C196.607 187.924 194.659 188.513 191.125 191.125C188.541 194.621 188 196.663 188 201C189.845 205.897 192.739 209.08 196.371 212.711L198.512 214.805C200.779 217.058 203.047 219.31 205.325 221.552C206.908 223.108 208.488 224.668 210.066 226.23C214.292 230.424 218.524 234.611 222.767 238.787L224 240L223.355 242.066L222.521 244.784C221.591 247.79 220.971 250.309 220.672 253.461L220.75 256.375L220.797 259.336C221.46 268.036 225.645 276.098 232 282C241.603 289.833 251.416 291.935 263.562 290.75C273.834 287.59 280.975 282.574 286.711 273.418C290.958 265.451 292.415 256.925 290.307 248.099L289.477 245.183L288.643 242.228L288 240C295.49 232.552 302.977 225.099 310.457 217.641L311.357 216.743C314.876 213.233 318.396 209.723 321.92 206.217C325.661 202.498 329.401 198.778 333.135 195.052C334.561 193.628 335.987 192.204 337.414 190.781C339.462 188.749 341.509 186.717 343.55 184.678L345.444 182.783C350.041 178.243 354.649 173.565 358 168C358.474 164.445 358.35 162.147 357.312 158.75Z" fill="#FFF4EA"/>
<path d="M244.688 247.125C242.391 251.038 241.8 254.482 242 259C243.594 263.693 245.719 266.487 250 269C254.468 270.206 257.91 270.37 262.312 268.875C265.934 266.348 268.386 264.276 269.57 259.887C270.383 254.743 270.07 251.4 267 247C263.482 243.171 260.243 242.245 255.211 241.902C250.652 242.104 247.947 244.129 244.688 247.125Z" fill="#FDEBDC"/>
<path d="M261 104C264.119 106.577 265.718 108.154 267 112C267.148 114.619 267.231 117.193 267.25 119.813C267.271 120.512 267.291 121.211 267.312 121.932C267.348 126.719 266.6 129.974 264 134C260.039 136.438 257.941 137.128 253.312 136.5C249.403 134.73 248.197 133.681 246 130C245.392 126.489 245.396 123.056 245.438 119.5C245.402 118.094 245.402 118.094 245.365 116.66C245.375 111.985 245.454 109.72 248.348 105.906C252.828 102.687 255.712 102.724 261 104Z" fill="black"/>
<path d="M262 377C265.414 380.045 266.28 382.478 266.566 386.906C266.586 388.771 266.584 390.635 266.563 392.5C266.586 393.437 266.61 394.374 266.635 395.34C266.625 399.974 266.531 402.283 263.711 406.09C260.066 408.658 257.43 409.442 253 409C249.617 407.371 247.632 406.189 245.855 402.848C244.769 399.232 244.67 395.802 244.688 392.062C244.671 391.372 244.655 390.682 244.639 389.971C244.634 385.236 245.441 381.983 248 378C253.211 374.793 256.417 374.472 262 377Z" fill="black"/>
<path d="M392.5 245.437C393.437 245.414 394.374 245.39 395.34 245.365C399.974 245.375 402.283 245.469 406.09 248.289C408.658 251.934 409.442 254.57 409 259C407.371 262.383 406.189 264.368 402.848 266.145C399.232 267.231 395.802 267.33 392.062 267.312C391.027 267.337 391.027 267.337 389.971 267.361C385.236 267.366 381.983 266.559 378 264C375.562 260.039 374.872 257.941 375.5 253.312C379.104 245.353 384.632 245.346 392.5 245.437Z" fill="black"/>
<path d="M119.937 244.688C120.627 244.671 121.317 244.655 122.029 244.639C126.763 244.634 130.016 245.441 133.999 248C136.437 251.961 137.127 254.059 136.499 258.688C134.729 262.597 133.68 263.803 129.999 266C126.489 266.608 123.055 266.604 119.499 266.563C118.094 266.598 118.094 266.598 116.659 266.635C112.025 266.625 109.717 266.531 105.909 263.711C103.341 260.066 102.557 257.43 102.999 253C104.628 249.617 105.81 247.632 109.152 245.855C112.767 244.769 116.197 244.67 119.937 244.688Z" fill="black"/>
<path d="M332.813 12.1251C335.471 15.6189 336 17.6244 336 22.0001C334.485 26.0153 333.595 27.6038 330 30.0001C325.407 30.7397 321.975 30.6097 318 28.1251C314.962 24.8975 314.6 22.5554 314.648 18.1056C315.283 14.3029 317.211 12.5992 320 10.0001C324.541 7.80295 328.963 9.21645 332.813 12.1251Z" fill="black"/>
</g>
<defs>
<clipPath id="clip0_189_117">
<rect width="512" height="512" fill="white"/>
</clipPath>
</defs>
</svg>
