<svg width="512" height="512" viewBox="0 0 512 512" fill="none" xmlns="http://www.w3.org/2000/svg">
    <g clip-path="url(#clip0_467_33)">
        <path
            d="M141.609 -0.734306C143.624 -0.74277 145.639 -0.752414 147.654 -0.763176C151.867 -0.779519 156.079 -0.776904 160.292 -0.76165C165.656 -0.744399 171.018 -0.781468 176.382 -0.833912C180.542 -0.867208 184.701 -0.867557 188.86 -0.858765C190.836 -0.859121 192.812 -0.870223 194.787 -0.892868C207.365 -1.01788 216.303 0.0510087 227 7.00007C228.088 7.69551 228.088 7.69551 229.198 8.40501C230.91 9.54089 232.599 10.7125 234.285 11.8868C242.459 17.1092 249.982 17.1261 259.438 16.8126C279.324 16.3916 296.592 19.2726 311.645 33.5118C329.29 52.1517 329.469 73.175 329.188 97.5001C329.172 99.7878 329.159 102.076 329.147 104.363C329.114 109.909 329.064 115.455 329 121C329.604 120.993 330.208 120.985 330.83 120.977C333.591 120.947 336.352 120.929 339.113 120.91C340.063 120.898 341.013 120.886 341.991 120.874C353.207 120.818 360.601 123.489 368.766 131.367C377.921 142.155 378.193 153.23 378.25 166.688C378.281 168.493 378.281 168.493 378.313 170.334C378.369 183.287 376.298 194.004 367.406 203.746C358.838 211.849 347.882 213.197 336.563 213.063C335.831 213.058 335.099 213.054 334.346 213.049C332.564 213.037 330.782 213.019 329 213C329.023 214.114 329.046 215.228 329.07 216.375C329.427 240.862 325.685 264.62 308.141 282.921C306.777 284.297 305.389 285.649 304 287C302.836 288.143 302.836 288.143 301.648 289.309C289.842 300.344 275.901 305.893 260 308C260 315.26 260 322.52 260 330C262.966 329.984 265.933 329.969 268.989 329.952C278.824 329.903 288.659 329.87 298.493 329.845C304.452 329.829 310.411 329.808 316.37 329.774C322.128 329.741 327.885 329.723 333.643 329.715C335.833 329.71 338.022 329.699 340.212 329.683C354.348 329.582 367.097 329.907 379.938 336.5C380.607 336.841 381.277 337.182 381.967 337.534C395.779 344.901 406.161 356.03 413.313 369.875C413.638 370.499 413.964 371.122 414.3 371.764C420.817 385.069 421.186 399.986 422.48 414.481C422.7 416.863 422.92 419.246 423.14 421.629C423.599 426.603 424.051 431.578 424.499 436.554C425.071 442.916 425.656 449.277 426.244 455.638C426.698 460.551 427.147 465.464 427.595 470.378C427.809 472.723 428.024 475.069 428.24 477.414C428.541 480.694 428.836 483.974 429.13 487.255C429.218 488.213 429.307 489.172 429.399 490.16C430.751 505.468 430.751 505.468 428.5 510.063C425.471 512.41 423.731 512.559 420 512.566C417.108 511.747 415.916 510.289 414 508C413.325 505.439 413.325 505.439 413.074 502.496C412.971 501.381 412.867 500.266 412.76 499.117C412.665 497.903 412.57 496.689 412.473 495.438C412.298 493.482 412.123 491.527 411.948 489.572C411.765 487.486 411.591 485.399 411.42 483.311C411.064 478.98 410.681 474.652 410.293 470.323C409.768 464.424 409.251 458.524 408.744 452.623C407.754 441.124 406.743 429.628 405.678 418.137C405.382 414.888 405.103 411.639 404.824 408.389C403.463 393.176 401.286 380.605 392 368C391.477 367.281 390.953 366.561 390.414 365.82C381.302 354.397 368.551 349.865 355 346C354.863 347.447 354.863 347.447 354.723 348.924C353.117 365.232 350.897 381.464 348.749 397.708C347.925 403.935 347.105 410.163 346.287 416.391C346.004 418.539 345.719 420.686 345.434 422.834C344.942 426.555 344.467 430.277 344 434C343.888 434.879 343.776 435.759 343.661 436.664C342.822 443.959 342.848 451.247 342.824 458.582C342.814 459.968 342.802 461.354 342.79 462.741C342.738 468.579 342.69 474.417 342.674 480.256C342.664 483.847 342.635 487.437 342.593 491.028C342.58 492.388 342.575 493.749 342.578 495.11C342.58 497.009 342.556 498.909 342.53 500.808C342.524 501.886 342.518 502.964 342.512 504.074C341.878 507.696 340.537 509.387 338 512C336 512.664 336 512.664 334 512.625C333.34 512.638 332.68 512.651 332 512.664C328.889 511.631 327.804 509.674 326 507C325.492 504.198 325.492 504.198 325.482 501.097C325.47 499.924 325.458 498.752 325.445 497.544C325.453 496.278 325.461 495.012 325.469 493.707C325.464 492.373 325.459 491.039 325.452 489.705C325.44 486.145 325.457 482.585 325.484 479.025C325.5 476.804 325.51 474.584 325.519 472.363C325.604 453.543 325.981 434.996 328.895 416.359C330.077 408.752 331.038 401.117 332.012 393.481C332.372 390.664 332.733 387.847 333.094 385.03C333.184 384.326 333.274 383.622 333.367 382.896C334.33 375.377 335.304 367.859 336.293 360.344C336.45 359.128 336.607 357.912 336.769 356.659C336.917 355.546 337.064 354.434 337.216 353.287C337.407 351.822 337.407 351.822 337.603 350.328C338 348 338 348 339 346C325.47 346 311.94 346 298 346C298.023 349.545 298.046 353.09 298.07 356.742C298.086 360.238 298.098 363.733 298.11 367.228C298.12 369.627 298.133 372.026 298.151 374.425C298.435 414.398 290.649 443.721 265.762 475.199C261.81 480.21 257.996 485.318 254.188 490.438C241.373 507.627 241.373 507.627 237 512C229.928 512.58 229.928 512.58 226.5 510.438C224.948 507.915 224.169 506.069 224.383 503.078C225.688 498.685 228.781 495.281 231.605 491.749C233.163 489.796 234.696 487.826 236.227 485.852C238.004 483.561 239.783 481.271 241.567 478.985C247.056 471.954 252.452 464.859 257.751 457.684C258.83 456.229 259.924 454.785 261.02 453.344C273.189 436.861 279.199 418.215 281 398C279.996 398.041 278.992 398.083 277.958 398.125C273.823 397.994 270.618 397.219 266.676 395.996C266.007 395.794 265.338 395.592 264.649 395.384C261.816 394.527 258.989 393.648 256.162 392.77C254.086 392.129 252.006 391.5 249.926 390.871C248.693 390.489 247.459 390.107 246.189 389.713C243.189 389.042 241.773 388.786 239 390C238.423 390.619 237.845 391.238 237.25 391.875C233.17 395.729 228.533 397 223 397C223.009 397.705 223.018 398.41 223.027 399.137C223.107 405.787 223.168 412.438 223.207 419.088C223.228 422.508 223.256 425.926 223.302 429.345C223.354 433.277 223.373 437.209 223.391 441.141C223.411 442.367 223.432 443.593 223.453 444.856C223.454 445.997 223.454 447.138 223.454 448.314C223.463 449.317 223.472 450.321 223.481 451.355C222.869 454.72 221.637 455.895 219 458C216.092 458.709 214.057 458.34 211 458C208.326 456.188 208.041 455.122 207 452C206.912 450.205 206.882 448.408 206.886 446.611C206.887 445.51 206.887 444.409 206.887 443.275C206.892 442.087 206.897 440.899 206.902 439.676C206.904 437.851 206.904 437.851 206.907 435.989C206.912 432.097 206.925 428.205 206.938 424.313C206.943 421.676 206.947 419.04 206.951 416.404C206.962 409.936 206.979 403.468 207 397C205.98 396.827 205.98 396.827 204.94 396.65C204.045 396.487 203.149 396.324 202.227 396.156C201.341 396 200.454 395.843 199.542 395.682C195.666 394.642 193.744 392.888 191 390C191 389.34 191 388.68 191 388C189.976 388.303 188.953 388.606 187.898 388.918C184.079 390.046 180.255 391.161 176.431 392.273C174.78 392.754 173.13 393.239 171.482 393.728C169.104 394.431 166.722 395.123 164.34 395.813C163.246 396.141 163.246 396.141 162.129 396.475C157.596 397.772 153.715 398.216 149 398C152.488 420.645 158.389 438.968 172.655 457.269C174.118 459.152 175.566 461.045 177.012 462.941C181.497 468.823 185.992 474.696 190.512 480.551C193.242 484.09 195.953 487.642 198.645 491.21C199.814 492.755 200.998 494.289 202.184 495.82C204.898 499.519 205.987 501.183 206.063 505.875C204.434 510.665 204.434 510.665 202 512C196.534 512.705 196.534 512.705 194 512C190.337 508.788 187.432 505.126 184.5 501.25C183.619 500.09 182.737 498.93 181.855 497.77C181.392 497.157 180.928 496.544 180.451 495.913C178.452 493.277 176.435 490.655 174.419 488.033C172.774 485.887 171.136 483.735 169.5 481.582C167.089 478.412 164.646 475.27 162.188 472.137C138.752 442.007 132.415 414.107 132.794 376.414C132.825 372.974 132.839 369.534 132.854 366.094C132.884 359.396 132.942 352.698 133 346C119.47 346 105.94 346 92 346C92.9826 352.642 92.9826 352.642 93.9746 359.282C95.9504 372.869 95.9504 372.869 93 377C90.3237 379.082 88.8825 378.996 85.4375 378.875C81.5297 377.88 81.0024 377.338 79 374C78.3841 371.729 78.3841 371.729 78.0508 369.262C77.9251 368.359 77.7994 367.456 77.6699 366.525C77.552 365.589 77.434 364.652 77.3125 363.688C77.183 362.763 77.0534 361.838 76.9199 360.885C76.2474 355.878 75.8538 351.05 76 346C57.64 351.056 44.2612 358.4 33.6055 374.738C29.4053 383.272 27.3771 391.967 26.5 401.383C26.3846 402.51 26.2691 403.637 26.1502 404.798C25.7443 408.864 25.3668 412.931 25 417C24.927 417.811 24.8539 418.621 24.7786 419.456C23.8424 429.891 22.9388 440.328 22.0391 450.766C21.9537 451.757 21.8682 452.747 21.7802 453.768C21.3412 458.872 20.9068 463.976 20.4795 469.081C20.059 474.099 19.6262 479.116 19.1853 484.133C19.0212 486.026 18.8618 487.92 18.7071 489.814C18.4922 492.441 18.2616 495.066 18.0274 497.691C17.9681 498.463 17.9088 499.235 17.8476 500.03C17.4005 504.806 16.466 508.534 13 512C11.0391 512.238 11.0391 512.238 8.62502 512.313C7.83354 512.35 7.04205 512.387 6.22659 512.426C4.00002 512 4.00002 512 2.37986 510.338C-3.05037 501.138 1.92871 481.556 2.8633 471.25C3.05819 469.062 3.25278 466.873 3.44709 464.685C3.85401 460.119 4.26563 455.553 4.68044 450.988C5.20832 445.173 5.72267 439.357 6.23327 433.54C6.63127 429.026 7.03737 424.514 7.44575 420.001C7.63856 417.858 7.82874 415.715 8.01608 413.572C10.4329 386.029 15.6983 363.653 37.5625 344.875C41.7653 341.653 46.1789 339.103 50.875 336.688C51.4984 336.362 52.1217 336.036 52.7639 335.701C66.0085 329.209 79.4339 329.599 93.8281 329.707C96.0306 329.713 98.2331 329.717 100.436 329.72C106.196 329.731 111.956 329.761 117.717 329.794C123.609 329.825 129.502 329.838 135.395 329.854C146.93 329.886 158.465 329.938 170 330C170 322.74 170 315.48 170 308C167.68 307.66 167.68 307.66 165.313 307.313C145.375 303.611 127.915 291.969 116.125 275.625C105.613 259.552 101.798 243.982 101.938 225.063C101.942 223.902 101.947 222.741 101.951 221.545C101.963 218.697 101.979 215.848 102 213C100.973 213.023 99.9453 213.046 98.8867 213.07C84.9912 213.294 73.003 212.639 62.25 202.813C55.2774 195.418 52.8616 187.017 52.7617 177.121C52.7537 176.354 52.7456 175.587 52.7373 174.796C52.7235 173.171 52.7127 171.546 52.7049 169.922C52.6934 168.278 52.673 166.634 52.6433 164.991C52.4203 152.629 53.0715 141.8 61.2422 131.781C68.0625 124.87 76.7561 120.884 86.4727 120.707C88.3362 120.727 90.1996 120.762 92.0625 120.813C93.0235 120.826 93.9845 120.84 94.9746 120.854C97.317 120.889 99.6582 120.938 102 121C101.99 119.151 101.99 119.151 101.98 117.264C101.919 105.627 101.874 93.989 101.845 82.3512C101.829 76.3686 101.808 70.3862 101.774 64.4036C101.741 58.6265 101.723 52.8494 101.715 47.0722C101.71 44.8718 101.699 42.6715 101.683 40.4712C101.661 37.3812 101.658 34.2916 101.659 31.2015C101.649 30.2988 101.638 29.3961 101.627 28.466C101.667 20.2186 103.321 12.6469 109.196 6.55677C118.74 -1.67915 129.702 -0.767625 141.609 -0.734306ZM119.084 20.2333C117.713 23.7324 117.64 26.5093 117.659 30.2689C117.659 30.9816 117.659 31.6943 117.658 32.4287C117.66 34.7718 117.683 37.1141 117.707 39.4571C117.713 41.0866 117.717 42.7162 117.72 44.3457C117.731 48.6251 117.761 52.9042 117.794 57.1834C117.825 61.5539 117.838 65.9244 117.854 70.295C117.886 78.8635 117.937 87.4317 118 96.0001C122.065 97.7793 126.175 98.8288 130.493 99.7718C131.23 99.9363 131.968 100.101 132.727 100.27C135.156 100.811 137.586 101.345 140.016 101.879C141.713 102.255 143.411 102.631 145.109 103.007C148.665 103.794 152.223 104.577 155.781 105.359C160.322 106.357 164.862 107.363 169.401 108.372C172.908 109.15 176.415 109.924 179.923 110.696C181.596 111.065 183.269 111.435 184.941 111.807C216.528 118.821 243.69 112.38 274.623 105.435C277.994 104.68 281.367 103.933 284.739 103.185C287.99 102.464 291.239 101.739 294.488 101.013C296.039 100.667 297.59 100.322 299.141 99.9772C301.288 99.5001 303.433 99.0181 305.579 98.5347C307.408 98.1253 307.408 98.1253 309.274 97.7076C311.896 97.2727 311.896 97.2727 313 96.0001C314.405 78.2493 313.672 60.8096 301.813 46.7501C293.326 37.829 283.267 33.1777 270.902 32.8243C267.265 32.786 263.635 32.866 260 33.0001C260.34 33.4873 260.681 33.9746 261.031 34.4766C281.51 64.4328 281.51 64.4328 281 80.0001C279.438 82.5626 279.438 82.5626 277 84.0001C274 84.5001 274 84.5001 271 84.0001C266.295 80.5504 264.78 75.2254 262.688 70.0001C253.808 48.6654 242.224 34.9778 222.313 23.1876C220.622 22.1676 220.622 22.1676 218.896 21.127C211.56 16.7493 207.048 14.8525 198.497 14.8389C197.747 14.834 196.997 14.829 196.224 14.8239C193.747 14.8093 191.27 14.8025 188.793 14.7969C187.067 14.7912 185.34 14.7854 183.614 14.7797C179.995 14.7692 176.376 14.7633 172.758 14.7598C168.131 14.7544 163.504 14.7303 158.878 14.7019C155.311 14.6832 151.745 14.678 148.179 14.6765C146.473 14.6735 144.768 14.6655 143.063 14.6523C140.672 14.6352 138.282 14.6372 135.891 14.6436C134.845 14.6298 134.845 14.6298 133.777 14.6157C127.966 14.6647 122.979 15.6943 119.084 20.2333ZM118 113C118 124.55 118 136.1 118 148C182.35 148 246.7 148 313 148C313 136.45 313 124.9 313 113C303.495 114.557 303.495 114.557 294.108 116.481C292.9 116.754 291.691 117.028 290.446 117.31C289.18 117.6 287.914 117.889 286.609 118.188C285.253 118.494 283.896 118.801 282.538 119.106C276.845 120.389 271.154 121.679 265.464 122.978C261.957 123.778 258.448 124.57 254.938 125.358C252.994 125.796 251.052 126.243 249.11 126.69C216.45 134.009 187.692 128.165 155.743 120.841C149.631 119.441 143.517 118.052 137.402 116.666C135.281 116.184 133.162 115.697 131.042 115.21C129.766 114.919 128.489 114.629 127.174 114.329C125.489 113.943 125.489 113.943 123.77 113.549C120.98 112.903 120.98 112.903 118 113ZM73.1602 142.816C72.798 143.393 72.4357 143.969 72.0625 144.563C71.6822 145.141 71.302 145.72 70.9102 146.316C67.9181 151.851 68.7 158.337 68.6499 164.459C68.6334 165.936 68.6062 167.413 68.5679 168.889C68.1637 180.867 68.1637 180.867 74 191C78.0361 195.036 80.0332 195.295 86 197C91.28 197 96.56 197 102 197C102 177.2 102 157.4 102 137C85.8669 135.635 85.8669 135.635 73.1602 142.816ZM329 137C329 156.8 329 176.6 329 197C343.841 197.59 343.841 197.59 355.813 192.188C362.965 185.035 362.21 176.155 362.25 166.75C362.271 165.547 362.291 164.345 362.313 163.106C362.346 155.38 362.284 148.861 357.063 142.723C356.042 141.901 356.042 141.901 355 141.063C353.979 140.214 353.979 140.214 352.938 139.348C345.745 134.345 338.381 137 329 137ZM118 164C116.584 181.658 116.584 181.658 122 191C126.956 195.956 132.232 197.217 139.141 197.278C140.276 197.272 140.276 197.272 141.434 197.266C142.23 197.268 143.026 197.27 143.846 197.271C145.523 197.273 147.2 197.269 148.876 197.261C151.426 197.25 153.975 197.261 156.525 197.274C158.161 197.272 159.798 197.27 161.434 197.266C162.565 197.272 162.565 197.272 163.72 197.278C169.1 197.231 174.427 196.91 178.897 193.592C182.7 188.992 184.44 184.713 185.813 178.938C186.016 178.161 186.219 177.384 186.428 176.584C187.505 172.386 188.284 168.295 189 164C165.57 164 142.14 164 118 164ZM207 164C206.901 170.46 206.829 176.919 206.78 183.379C206.76 185.576 206.733 187.773 206.698 189.97C206.65 193.13 206.627 196.289 206.609 199.449C206.589 200.43 206.568 201.41 206.547 202.42C206.545 206.745 206.589 209.298 208.81 213.089C211.9 215.785 213.926 216.143 218 216C220.979 213.97 222.741 212.361 223.433 208.729C223.58 205.883 223.562 203.079 223.488 200.231C223.481 199.194 223.474 198.158 223.467 197.091C223.439 193.789 223.376 190.489 223.313 187.188C223.287 184.946 223.265 182.705 223.244 180.463C223.189 174.975 223.103 169.488 223 164C217.72 164 212.44 164 207 164ZM242 164C242.687 169.497 243.437 174.33 244.813 179.625C245.286 181.501 245.286 181.501 245.77 183.414C247.406 188.184 249.384 191.828 253.5 194.813C258.351 197.117 262.891 197.174 268.203 197.203C269 197.209 269.796 197.215 270.617 197.22C272.302 197.23 273.986 197.236 275.67 197.24C278.227 197.25 280.783 197.281 283.34 197.313C284.982 197.319 286.624 197.324 288.266 197.328C289.021 197.341 289.777 197.353 290.555 197.366C297.116 197.339 302.478 195.905 307.813 191.875C314.436 183.17 313 175.381 313 164C289.57 164 266.14 164 242 164ZM239 204C238.902 204.857 238.804 205.715 238.703 206.598C237.644 214.693 236.659 220.341 230.75 226.25C224.156 230.446 217.818 232.067 210 231C203.319 229.193 198.697 225.848 195 220C192.57 215.159 191.558 210.356 191 205C190.429 205.288 189.858 205.575 189.27 205.871C187.085 206.958 184.898 208.03 182.688 209.063C181.97 209.404 181.251 209.746 180.512 210.098C174.66 212.2 168.499 212.159 162.355 212.168C161.546 212.171 160.736 212.175 159.901 212.178C158.196 212.183 156.491 212.186 154.786 212.185C152.205 212.188 149.625 212.206 147.045 212.225C136.797 212.261 127.59 211.978 118 208C117.925 211.892 117.871 215.784 117.835 219.676C117.813 221.634 117.775 223.591 117.736 225.549C117.589 244.866 123.473 260.962 137 275C149.956 287.252 166.026 293.132 183.717 293.161C184.823 293.169 184.823 293.169 185.952 293.176C188.374 293.191 190.797 293.198 193.219 293.203C194.054 293.206 194.89 293.209 195.75 293.212C200.177 293.227 204.603 293.236 209.029 293.24C213.56 293.246 218.09 293.27 222.621 293.298C226.14 293.317 229.66 293.322 233.179 293.324C234.847 293.327 236.515 293.335 238.183 293.348C251.503 293.446 265.156 292.902 277.188 286.5C277.846 286.158 278.505 285.816 279.184 285.464C294.843 276.912 305.317 262.615 310.711 245.781C313.121 236.978 313.137 227.995 313.063 218.938C313.056 217.353 313.056 217.353 313.049 215.736C313.037 213.158 313.021 210.579 313 208C312.432 208.205 311.863 208.41 311.277 208.621C310.505 208.891 309.733 209.16 308.938 209.438C308.183 209.704 307.429 209.971 306.652 210.246C300.675 211.945 294.736 212.159 288.574 212.168C287.393 212.173 287.393 212.173 286.187 212.178C284.529 212.183 282.871 212.186 281.213 212.185C278.705 212.188 276.197 212.206 273.689 212.225C260.661 212.272 250.085 211.39 239 204ZM186 309C186 315.93 186 322.86 186 330C187.65 330 189.3 330 191 330C191.227 329.381 191.454 328.763 191.688 328.125C193.402 325.349 194.941 324.97 198 324C198.99 323.67 199.98 323.34 201 323C205.094 322.773 209.187 322.772 213.287 322.76C215.295 322.75 217.303 322.719 219.311 322.688C220.586 322.682 221.862 322.677 223.176 322.672C224.922 322.658 224.922 322.658 226.704 322.644C231.477 323.16 234.786 324.75 238.125 328.188C240.045 330.463 240.045 330.463 244 330C244 323.07 244 316.14 244 309C224.86 309 205.72 309 186 309ZM205 338C205 352.19 205 366.38 205 381C211.6 381 218.2 381 225 381C226.461 379.768 226.461 379.768 226.114 376.031C226.113 374.259 226.108 372.487 226.098 370.715C226.096 369.319 226.096 369.319 226.093 367.894C226.088 364.909 226.075 361.923 226.063 358.938C226.058 356.919 226.053 354.9 226.049 352.881C226.039 347.921 226.019 342.96 226 338C219.07 338 212.14 338 205 338ZM149 346C149 357.55 149 369.1 149 381C154.163 382.033 157.061 381.437 161.891 379.945C162.636 379.724 163.381 379.503 164.149 379.276C165.717 378.808 167.284 378.336 168.849 377.858C171.253 377.124 173.661 376.406 176.07 375.691C177.594 375.235 179.117 374.778 180.641 374.32C181.364 374.104 182.086 373.887 182.831 373.664C186.185 372.833 186.185 372.833 189 371C189.087 369.146 189.107 367.289 189.098 365.434C189.095 364.421 189.093 363.408 189.09 362.365C189.081 361.069 189.072 359.773 189.063 358.438C189.042 354.333 189.021 350.229 189 346C175.8 346 162.6 346 149 346ZM242 346C242 354.58 242 363.16 242 372C246.89 373.453 251.782 374.899 256.679 376.327C258.344 376.815 260.007 377.307 261.669 377.803C264.062 378.516 266.458 379.215 268.855 379.91C269.595 380.134 270.335 380.358 271.097 380.589C275.08 381.728 278.006 382.265 282 381C282.025 376.176 282.043 371.352 282.055 366.529C282.06 364.886 282.067 363.244 282.075 361.602C282.088 359.246 282.093 356.891 282.098 354.535C282.103 353.797 282.108 353.058 282.113 352.297C282.114 350.531 282.062 348.765 282 347C280.8 345.572 280.8 345.572 277.306 345.887C275.661 345.887 274.016 345.892 272.371 345.902C271.507 345.904 270.643 345.905 269.752 345.907C266.981 345.912 264.209 345.925 261.438 345.938C259.563 345.943 257.689 345.947 255.814 345.951C251.21 345.961 246.605 345.981 242 346Z"
            fill="black" />
        <path
            d="M421.597 229.154C426.046 232.57 429.943 236.512 433.876 240.5C434.716 241.329 435.557 242.158 436.423 243.012C442.578 249.197 446.411 253.77 446.563 262.813C446.627 264.524 446.627 264.524 446.692 266.27C444.873 276.084 436.491 282.888 429.626 289.563C428.236 290.932 428.236 290.932 426.817 292.33C424.552 294.56 422.28 296.783 420.001 299C421.618 303.028 424.46 305.762 427.473 308.778C428.031 309.345 428.589 309.911 429.164 310.494C431.006 312.361 432.857 314.22 434.708 316.078C435.994 317.373 437.279 318.667 438.565 319.962C441.258 322.672 443.957 325.378 446.657 328.082C450.12 331.55 453.565 335.033 457.007 338.52C459.655 341.199 462.315 343.865 464.978 346.529C466.253 347.809 467.525 349.093 468.792 350.381C470.563 352.179 472.35 353.961 474.141 355.739C474.662 356.275 475.183 356.811 475.72 357.364C478.015 359.613 479.497 360.918 482.714 361.441C486.018 360.804 487.476 359.189 489.813 356.813C490.604 356.035 491.394 355.258 492.208 354.457C494.335 351.543 494.49 350.526 494.001 347C492.337 344.666 492.337 344.666 489.962 342.52C489.081 341.666 488.2 340.811 487.292 339.93C486.817 339.48 486.342 339.031 485.852 338.567C484.361 337.154 482.887 335.723 481.416 334.287C477.235 330.209 473.023 326.163 468.8 322.128C466.215 319.656 463.651 317.164 461.097 314.66C460.122 313.713 459.14 312.773 458.15 311.842C449.43 303.637 449.43 303.637 449.267 298.517C450.001 295 450.001 295 452.126 292.5C455.66 290.656 457.075 290.153 461.001 291C467.165 295.556 472.531 301.357 477.954 306.75C479.188 307.975 479.188 307.975 480.447 309.226C482.173 310.942 483.897 312.66 485.62 314.379C488.25 316.999 490.891 319.609 493.532 322.219C495.215 323.895 496.897 325.572 498.579 327.25C499.365 328.023 500.15 328.796 500.959 329.593C505.9 334.553 510.375 339.135 511.532 346.281C511.522 347.343 511.512 348.406 511.501 349.5C511.516 351.093 511.516 351.093 511.532 352.719C510.345 360.053 505.679 364.802 500.563 369.813C499.723 370.67 499.723 370.67 498.866 371.545C493.826 376.549 489.904 378.291 482.688 378.438C474.022 378.31 469.885 374.922 464.001 369C463.999 369.713 463.998 370.425 463.996 371.16C463.959 388.494 463.9 405.828 463.817 423.163C463.777 431.546 463.745 439.928 463.73 448.311C463.717 455.617 463.69 462.922 463.646 470.228C463.624 474.097 463.608 477.966 463.609 481.835C463.61 485.476 463.592 489.117 463.56 492.758C463.547 494.732 463.554 496.707 463.562 498.681C463.541 500.444 463.541 500.444 463.52 502.242C463.514 503.774 463.514 503.774 463.509 505.337C462.861 508.733 461.723 509.924 459.001 512C455.247 512.469 452.962 512.531 449.626 510.688C447.373 508.348 447.007 506.527 446.971 503.319C447.015 502.229 447.06 501.14 447.105 500.017C447.152 498.765 447.198 497.513 447.246 496.223C447.287 495.209 447.287 495.209 447.329 494.174C447.478 490.459 447.607 486.744 447.735 483.028C447.777 481.837 447.777 481.837 447.819 480.622C448.196 469.466 448.37 458.306 448.548 447.146C448.699 438.091 448.921 429.048 449.315 420.001C452.772 374.436 452.772 374.436 435.071 334.295C422.006 319.875 422.006 319.875 404.932 311.638C401.944 311.608 399.427 312.198 396.607 313.148C392.925 314.352 390.505 313.62 387.02 312.145C383.133 309.941 380.175 307.123 377.001 304C375.805 302.899 374.609 301.798 373.411 300.699C363.131 291.07 354.795 281.274 353.763 266.617C353.498 253.269 356.81 242.767 366.001 232.84C381.61 217.927 403.978 217.021 421.597 229.154ZM375.474 245.957C370.632 252.673 368.927 259.843 370.001 268C372.201 276.693 377.2 282.005 383.563 288.063C384.858 289.342 384.858 289.342 386.179 290.646C390.55 295.166 390.55 295.166 396.001 298C400.722 295.837 404.183 292.174 407.833 288.574C408.47 287.949 409.106 287.324 409.762 286.68C411.1 285.36 412.436 284.038 413.768 282.713C415.81 280.691 417.873 278.69 419.936 276.689C421.237 275.402 422.535 274.114 423.833 272.824C424.452 272.23 425.07 271.636 425.708 271.024C428.45 268.252 429.86 266.737 430.606 262.834C429.888 259.472 428.943 258.218 426.493 255.836C425.753 255.106 425.013 254.377 424.251 253.625C423.467 252.883 422.683 252.14 421.876 251.375C421.115 250.625 420.355 249.875 419.571 249.102C412.607 242.329 406.342 237.098 396.251 236.625C388.029 236.835 381.005 239.824 375.474 245.957Z"
            fill="black" />
        <path
            d="M96.0005 399C98.8535 401.122 99.4955 403.035 100.09 406.473C100.246 407.362 100.402 408.252 100.563 409.168C101.297 413.918 101.967 418.668 102.563 423.437C102.689 424.378 102.814 425.318 102.944 426.287C105.084 443.264 105.211 460.378 105.241 477.466C105.251 480.853 105.282 484.24 105.313 487.627C105.32 489.799 105.325 491.972 105.329 494.144C105.341 495.148 105.353 496.151 105.366 497.184C105.349 502.527 105.085 506.416 102.001 511C98.9088 512.546 96.4062 512.294 93.0005 512C90.8077 510.672 90.8077 510.672 89.0005 508C88.3931 504.315 88.4437 500.657 88.4615 496.93C88.4497 495.821 88.4379 494.711 88.4257 493.569C88.3904 490.004 88.3813 486.44 88.3755 482.875C88.3535 478.247 88.3194 473.62 88.274 468.992C88.2628 467.843 88.2517 466.694 88.2402 465.509C88.0264 450.488 86.9981 435.439 84.8755 420.562C82.7154 405.302 82.7154 405.302 85.5005 400.312C89.277 398.33 91.7486 398.527 96.0005 399Z"
            fill="black" />
        <path
            d="M188.999 244C191.946 245.85 193.71 247.582 195.687 250.438C200.196 255.434 206.385 258.04 212.999 259C221.418 259.395 227.166 257.088 233.437 251.5C235.55 249.464 237.615 247.43 239.57 245.242C240.999 244 240.999 244 244.437 243.625C249.627 244.171 249.627 244.171 251.999 247C253.244 250.458 253.524 252.73 252.101 256.176C246.379 265.751 236.532 271.869 225.999 275C214.796 277.318 203.147 275.867 193.011 270.363C187.031 266.311 181.297 261.512 177.999 255C177.516 251.062 177.402 248.932 179.562 245.562C182.956 243.387 185.036 243.444 188.999 244Z"
            fill="black" />
    </g>
    <defs>
        <clipPath id="clip0_467_33">
            <rect width="512" height="512" fill="white" />
        </clipPath>
    </defs>
</svg>