<svg width="1034" height="1034" viewBox="0 0 1034 1034" fill="none"
    xmlns="http://www.w3.org/2000/svg">
    <g clip-path="url(#clip0_225_154)">
        <path
            d="M115.114 153.484C113.838 154.632 112.563 155.781 111.248 156.963C67.9834 197.05 39.0158 263.47 35.9946 321.968C35.0916 374.962 39.9165 423.899 56.5474 474.59C57.054 476.154 57.5607 477.718 58.0827 479.329C82.8806 554.504 126.691 620.999 177.719 680.835C178.603 681.871 179.487 682.908 180.397 683.976C198.158 704.555 216.888 724.123 236.136 743.302C239.719 746.873 243.29 750.455 246.861 754.039C258.478 765.664 270.168 777.01 282.735 787.617C285.236 789.799 287.734 791.984 290.229 794.173C304.31 806.455 318.448 818.58 333.223 830.027C334.413 830.953 335.604 831.878 336.83 832.831C384.223 869.602 433.253 904.066 484.846 934.725C488.576 936.971 492.252 939.286 495.922 941.63C499.108 943.618 499.108 943.618 502.359 945.646C504.14 946.781 505.92 947.916 507.755 949.085C514.654 951.887 517.953 951.298 525.079 949.18C530.326 946.515 535.227 943.791 540.225 940.723C541.693 939.839 543.162 938.955 544.674 938.044C549.605 935.054 554.511 932.025 559.411 928.984C561.186 927.885 562.962 926.785 564.791 925.652C588.505 910.903 611.699 895.581 634.339 879.232C637.974 876.62 641.629 874.041 645.296 871.475C672.249 852.566 698.181 832.291 723.143 810.826C728.562 806.21 734.081 801.765 739.654 797.336C764.324 777.148 786.781 754.325 809.377 731.879C811.667 729.607 813.959 727.337 816.254 725.07C829.096 712.372 841.228 699.549 852.441 685.367C856.126 680.776 859.979 676.439 863.981 672.125C948.655 577.559 1003.66 450.144 998.108 322.536C997.099 306.078 994.249 290.449 989.571 274.656C989.138 273.182 988.705 271.707 988.259 270.187C966.027 196.985 915.868 137.234 848.654 101.194C794.075 74.006 729.73 71.6407 672.252 90.2479C612.39 110.847 563.626 151.732 531.137 205.992C527.069 211.938 519.001 211.5 517.501 211.5C516.001 211.5 506.177 212.051 502.501 205.992C498.825 199.934 502.501 205.992 498.825 199.934C495.844 195.319 492.83 190.868 489.611 186.428C488.71 185.182 487.808 183.935 486.88 182.651C446.763 127.946 388.371 90.9574 321.033 80.3248C241.462 69.5846 171.785 98.9406 115.114 153.484Z"
            fill="#F0CAB7" />
        <path
            d="M349.379 48.4687C351.498 48.9402 351.498 48.9402 353.66 49.4212C415.218 63.8259 479.485 104.551 514.98 157.523C516 159.045 519.755 159.401 520.5 158C546.945 108.256 608.788 71.8554 661.028 55.04C732.425 33.6543 806.253 37.8187 872.69 72.5768C886.93 80.2838 900.193 88.797 912.828 98.9569C914.663 100.386 916.498 101.815 918.389 103.288C948.001 126.804 972.689 155.037 991.59 187.816C992.741 189.801 992.741 189.801 993.916 191.827C1017.3 232.63 1034.1 279.294 1034.41 326.801C1034.42 328.28 1034.44 329.759 1034.45 331.283C1034.49 336.053 1034.5 340.822 1034.5 345.592C1034.51 348.04 1034.51 348.04 1034.51 350.537C1034.47 376.198 1033.21 400.936 1027.94 426.121C1027.61 427.794 1027.27 429.468 1026.92 431.191C1010.88 509.559 976.192 583.842 928.984 648.269C927.987 649.636 926.989 651.002 925.962 652.409C913.34 669.625 900.335 686.472 886.574 702.797C885.626 703.927 884.678 705.057 883.701 706.221C872.827 719.165 861.931 731.86 849.781 743.637C846.15 747.259 842.821 751.025 839.494 754.926C826.791 769.659 812.809 783.343 798.014 795.963C793.61 799.791 789.325 803.733 785.049 807.702C774.64 817.359 764.008 826.575 752.938 835.478C747.876 839.596 742.913 843.808 737.971 848.068C722.112 861.702 705.525 874.219 688.66 886.574C687.209 887.642 685.758 888.71 684.263 889.811C642.588 920.443 599.244 948.215 554.74 974.55C553.401 975.344 552.063 976.139 550.684 976.957C548.14 978.449 545.583 979.92 543.012 981.367C540.411 982.836 537.84 984.361 535.299 985.932C526.335 991.101 519.72 992.657 509.454 990.892C501.269 988.526 494.411 984.454 487.212 979.977C485.579 978.996 483.946 978.015 482.263 977.004C476.991 973.821 471.751 970.591 466.511 967.355C462.894 965.153 459.276 962.952 455.656 960.753C392.554 922.212 332.154 879.079 276.026 830.907C272.455 827.853 268.867 824.821 265.276 821.791C253.676 811.976 242.375 802.128 231.788 791.207C228.209 787.62 224.491 784.337 220.634 781.054C205.127 767.688 190.617 752.93 177.363 737.334C173.647 733.052 169.797 728.913 165.921 724.775C153.781 711.775 142.715 698.14 131.904 684.023C129.422 680.805 126.892 677.623 124.359 674.444C52.242 583.238 -0.192606 470.745 -0.485447 353.011C-0.504929 348.301 -0.56771 343.593 -0.63139 338.883C-0.830046 310.837 3.03347 283.878 11.2334 256.985C11.9834 254.512 11.9834 254.512 12.7485 251.988C21.773 223.722 35.2324 195.807 52.5075 171.66C53.8456 169.752 55.1837 167.844 56.5624 165.878C101.481 103.812 165.743 58.4787 241.839 44.5558C277.289 38.9808 314.426 40.637 349.379 48.4687ZM115.113 153.484C113.837 154.632 112.562 155.78 111.247 156.963C67.9827 197.05 39.015 263.47 35.9938 321.968C35.0908 374.962 39.9157 423.899 56.5466 474.59C57.0533 476.154 57.5599 477.718 58.0819 479.329C82.8798 554.504 126.69 620.999 177.718 680.834C178.602 681.871 179.486 682.908 180.397 683.976C198.157 704.555 216.887 724.123 236.135 743.301C239.718 746.873 243.289 750.455 246.86 754.038C258.477 765.664 270.168 777.009 282.734 787.617C285.236 789.798 287.734 791.984 290.228 794.173C304.309 806.455 318.447 818.58 333.222 830.027C334.413 830.952 335.603 831.878 336.829 832.831C384.222 869.602 433.252 904.066 484.845 934.724C488.575 936.971 492.251 939.286 495.921 941.63C499.107 943.618 499.107 943.618 502.358 945.645C504.139 946.78 505.919 947.916 507.754 949.085C514.653 951.886 517.952 951.298 525.078 949.18C530.325 946.515 535.226 943.791 540.224 940.723C541.693 939.839 543.161 938.955 544.674 938.044C549.605 935.054 554.51 932.025 559.41 928.984C561.185 927.885 562.961 926.785 564.79 925.652C588.505 910.903 611.698 895.581 634.339 879.232C637.973 876.619 641.628 874.041 645.295 871.475C672.248 852.565 698.18 832.291 723.142 810.826C728.561 806.21 734.08 801.765 739.653 797.336C764.323 777.148 786.78 754.324 809.377 731.879C811.666 729.606 813.958 727.336 816.253 725.07C829.095 712.372 841.228 699.548 852.441 685.367C856.125 680.776 859.978 676.439 863.98 672.125C948.654 577.559 1003.66 450.144 998.108 322.536C997.098 306.078 994.248 290.449 989.57 274.656C989.137 273.181 988.704 271.707 988.258 270.187C966.026 196.985 915.867 137.234 848.654 101.193C794.075 74.0059 729.729 71.6405 672.251 90.2477C612.389 110.847 563.625 151.732 531.136 205.992C527.068 211.938 519 211.5 517.5 211.5C516 211.5 506.176 212.051 502.5 205.992C498.824 199.933 502.5 205.992 498.824 199.933C495.843 195.319 492.829 190.867 489.61 186.428C488.709 185.181 487.808 183.935 486.879 182.651C446.762 127.946 388.37 90.9572 321.033 80.3246C241.461 69.5844 171.784 98.9404 115.113 153.484Z"
            fill="#343434" />
    </g>
    <defs>
        <clipPath id="clip0_225_154">
            <rect width="1034" height="1034" fill="white" />
        </clipPath>
    </defs>
</svg>