<svg width="512" height="512" viewBox="0 0 512 512" fill="none" xmlns="http://www.w3.org/2000/svg">
    <path fill-rule="evenodd" clip-rule="evenodd"
        d="M106 266H28C26.8954 266 26 266.895 26 268V463C26 464.105 26.8954 465 28 465H106C107.105 465 108 464.105 108 463V268C108 266.895 107.105 266 106 266ZM28 248C16.9543 248 8 256.954 8 268V463C8 474.046 16.9543 483 28 483H106C117.046 483 126 474.046 126 463V268C126 256.954 117.046 248 106 248H28Z"
        fill="black" />
    <path fill-rule="evenodd" clip-rule="evenodd"
        d="M67 424C75.8366 424 83 416.837 83 408C83 399.163 75.8366 392 67 392C58.1634 392 51 399.163 51 408C51 416.837 58.1634 424 67 424ZM67 440C84.6731 440 99 425.673 99 408C99 390.327 84.6731 376 67 376C49.3269 376 35 390.327 35 408C35 425.673 49.3269 440 67 440Z"
        fill="black" />
    <path fill-rule="evenodd" clip-rule="evenodd"
        d="M66.5 334C72.8513 334 78 328.851 78 322.5C78 316.149 72.8513 311 66.5 311C60.1487 311 55 316.149 55 322.5C55 328.851 60.1487 334 66.5 334ZM66.5 350C81.6878 350 94 337.688 94 322.5C94 307.312 81.6878 295 66.5 295C51.3122 295 39 307.312 39 322.5C39 337.688 51.3122 350 66.5 350Z"
        fill="black" />
    <path fill-rule="evenodd" clip-rule="evenodd"
        d="M28 266H106C107.105 266 108 266.895 108 268V463C108 464.105 107.105 465 106 465H28C26.8954 465 26 464.105 26 463V268C26 266.895 26.8954 266 28 266ZM67 440C84.6731 440 99 425.673 99 408C99 390.327 84.6731 376 67 376C49.3269 376 35 390.327 35 408C35 425.673 49.3269 440 67 440ZM66.5 350C81.6878 350 94 337.688 94 322.5C94 307.312 81.6878 295 66.5 295C51.3122 295 39 307.312 39 322.5C39 337.688 51.3122 350 66.5 350Z"
        fill="black" fill-opacity="0.2" />
    <path fill-rule="evenodd" clip-rule="evenodd"
        d="M117 171.638C117 185.997 105.359 197.638 91 197.638C76.6406 197.638 65 185.997 65 171.638C65 157.279 76.6406 145.638 91 145.638C94.5436 145.638 97.9216 146.347 101 147.631V93.0001C101 90.3985 102.265 87.9594 104.392 86.4607C106.518 84.9621 109.241 84.5911 111.691 85.4661L181.691 110.466C184.875 111.603 187 114.619 187 118V197.638C187 211.997 175.359 223.638 161 223.638C146.641 223.638 135 211.997 135 197.638C135 183.279 146.641 171.638 161 171.638C164.544 171.638 167.922 172.347 171 173.631V123.638L117 104.352V171.638ZM91 181.638C96.5228 181.638 101 177.161 101 171.638C101 166.115 96.5228 161.638 91 161.638C85.4772 161.638 81 166.115 81 171.638C81 177.161 85.4772 181.638 91 181.638ZM161 207.638C166.523 207.638 171 203.161 171 197.638C171 192.115 166.523 187.638 161 187.638C155.477 187.638 151 192.115 151 197.638C151 203.161 155.477 207.638 161 207.638Z"
        fill="black" />
    <path fill-rule="evenodd" clip-rule="evenodd"
        d="M442.309 63.4661C444.759 62.5911 447.482 62.9621 449.608 64.4607C451.735 65.9594 453 68.3985 453 71.0001V82.3521V125.631V149.638C453 163.997 441.359 175.638 427 175.638C412.641 175.638 401 163.997 401 149.638C401 135.279 412.641 123.638 427 123.638C430.544 123.638 433.922 124.347 437 125.631V82.3521L383 98.6378V105.352V148.631V172.638C383 186.997 371.359 198.638 357 198.638C342.641 198.638 331 186.997 331 172.638C331 158.279 342.641 146.638 357 146.638C360.544 146.638 363.922 147.347 367 148.631V93.0001C367 89.6191 369.125 86.6032 372.309 85.4661L442.309 63.4661ZM357 182.638C362.523 182.638 367 178.161 367 172.638C367 167.115 362.523 162.638 357 162.638C351.477 162.638 347 167.115 347 172.638C347 178.161 351.477 182.638 357 182.638ZM427 159.638C432.523 159.638 437 155.161 437 149.638C437 144.115 432.523 139.638 427 139.638C421.477 139.638 417 144.115 417 149.638C417 155.161 421.477 159.638 427 159.638Z"
        fill="black" />
    <path fill-rule="evenodd" clip-rule="evenodd"
        d="M484 266H406C404.895 266 404 266.895 404 268V463C404 464.105 404.895 465 406 465H484C485.105 465 486 464.105 486 463V268C486 266.895 485.105 266 484 266ZM406 248C394.954 248 386 256.954 386 268V463C386 474.046 394.954 483 406 483H484C495.046 483 504 474.046 504 463V268C504 256.954 495.046 248 484 248H406Z"
        fill="black" />
    <path fill-rule="evenodd" clip-rule="evenodd"
        d="M445 424C453.837 424 461 416.837 461 408C461 399.163 453.837 392 445 392C436.163 392 429 399.163 429 408C429 416.837 436.163 424 445 424ZM445 440C462.673 440 477 425.673 477 408C477 390.327 462.673 376 445 376C427.327 376 413 390.327 413 408C413 425.673 427.327 440 445 440Z"
        fill="black" />
    <path fill-rule="evenodd" clip-rule="evenodd"
        d="M444.5 334C450.851 334 456 328.851 456 322.5C456 316.149 450.851 311 444.5 311C438.149 311 433 316.149 433 322.5C433 328.851 438.149 334 444.5 334ZM444.5 350C459.688 350 472 337.688 472 322.5C472 307.312 459.688 295 444.5 295C429.312 295 417 307.312 417 322.5C417 337.688 429.312 350 444.5 350Z"
        fill="black" />
    <path fill-rule="evenodd" clip-rule="evenodd"
        d="M406 266H484C485.105 266 486 266.895 486 268V463C486 464.105 485.105 465 484 465H406C404.895 465 404 464.105 404 463V268C404 266.895 404.895 266 406 266ZM445 440C462.673 440 477 425.673 477 408C477 390.327 462.673 376 445 376C427.327 376 413 390.327 413 408C413 425.673 427.327 440 445 440ZM444.5 350C459.688 350 472 337.688 472 322.5C472 307.312 459.688 295 444.5 295C429.312 295 417 307.312 417 322.5C417 337.688 429.312 350 444.5 350Z"
        fill="black" fill-opacity="0.2" />
    <path fill-rule="evenodd" clip-rule="evenodd"
        d="M256.508 313.576C250.315 306 242.033 300.375 233.143 297.412C216.117 291.738 195.862 295.578 183.013 314.259C171.623 330.818 174.113 352.793 179.801 367.613C191.769 398.803 223.593 422.199 251.109 436.501C254.123 438.299 257.969 438.547 261.316 436.818C288.962 422.544 321.146 399.04 333.198 367.633C338.885 352.813 341.375 330.839 329.985 314.28C317.136 295.599 296.881 291.758 279.855 297.432C270.974 300.393 262.698 306.01 256.508 313.576ZM256.518 420.584C231.698 406.966 204.029 382.559 195.407 360.09C190.862 348.246 190.569 332.515 196.315 324.16C203.168 314.198 215.135 308.212 224.503 311.335C234.314 314.604 244.419 323.234 246.07 333.663C246.613 338.26 250.172 342.107 254.971 342.813C260.708 343.657 266.043 339.691 266.887 333.954C268.44 323.404 278.6 314.653 288.495 311.355C297.864 308.233 309.831 314.218 316.683 324.181C322.43 332.535 322.137 348.267 317.592 360.11C308.974 382.568 281.324 406.967 256.518 420.584Z"
        fill="black" />
    <path
        d="M256.518 420.584C231.698 406.966 204.029 382.559 195.407 360.09C190.862 348.246 190.569 332.515 196.315 324.16C203.168 314.198 215.135 308.212 224.503 311.335C234.314 314.604 244.419 323.234 246.07 333.663C246.613 338.26 250.172 342.107 254.971 342.813C260.708 343.657 266.043 339.691 266.887 333.954C268.44 323.404 278.6 314.653 288.495 311.355C297.864 308.233 309.831 314.218 316.683 324.181C322.43 332.535 322.137 348.267 317.592 360.11C308.974 382.568 281.324 406.967 256.518 420.584Z"
        fill="#F0CAB7" />
    <path fill-rule="evenodd" clip-rule="evenodd"
        d="M266 64.5339C266 61 268.5 57 274 57C275.576 57 277.179 57.4602 278.274 58L304.378 74.8042C308.076 77.2221 309.114 82.18 306.696 85.878C304.278 89.576 299.32 90.6137 295.622 88.1958L282 79.2891V120.165V144.172C282 158.531 270.359 170.172 256 170.172C241.641 170.172 230 158.531 230 144.172C230 129.813 241.641 118.172 256 118.172C259.544 118.172 262.922 118.881 266 120.165V64.5339ZM256 154.172C261.523 154.172 266 149.695 266 144.172C266 138.649 261.523 134.172 256 134.172C250.477 134.172 246 138.649 246 144.172C246 149.695 250.477 154.172 256 154.172Z"
        fill="black" />
</svg>