<svg width="512" height="512" viewBox="0 0 512 512" fill="none" xmlns="http://www.w3.org/2000/svg">
    <path
        d="M333 38.9997C333.796 39.2868 334.593 39.574 335.414 39.8698C359.583 48.7291 382.368 61.2649 402 77.9997C403.131 78.9466 404.262 79.8931 405.394 80.8395C423.565 96.131 423.565 96.131 426 101C427.116 97.6508 427.273 94.8384 427.464 91.3122C427.543 89.9593 427.622 88.6064 427.701 87.2536C427.819 85.139 427.936 83.0243 428.049 80.9093C429.397 56.1311 429.397 56.1311 436 49.9997C440.892 46.9262 446.429 47.3948 452 47.9997C456.462 50.1514 459.235 52.9047 462 56.9997C462.951 59.9294 463.083 62.4547 462.947 65.5197C462.908 66.4248 462.87 67.3298 462.831 68.2623C462.782 69.2507 462.733 70.2391 462.683 71.2575C462.611 72.8308 462.611 72.8308 462.538 74.436C461.93 87.2148 461.145 99.9835 460.325 112.75C460.102 116.223 459.889 119.697 459.677 123.17C459.469 126.549 459.251 129.927 459.035 133.304C458.961 134.534 458.887 135.763 458.81 137.029C457.554 156.08 457.554 156.08 451.828 162.625C447.008 166.25 441.443 166.297 435.643 166.29C434.826 166.297 434.008 166.304 433.167 166.311C430.478 166.329 427.79 166.333 425.101 166.336C423.223 166.342 421.345 166.349 419.467 166.356C415.535 166.368 411.603 166.371 407.671 166.37C402.645 166.37 397.619 166.397 392.594 166.432C388.716 166.454 384.838 166.458 380.96 166.457C379.108 166.459 377.256 166.468 375.404 166.484C372.807 166.503 370.212 166.498 367.615 166.486C366.859 166.497 366.102 166.508 365.323 166.52C359.86 166.456 355.532 165.112 351 162C346.83 156.762 345.452 152.676 346 146C347.81 140.727 350.234 137.054 355 134C357.917 133.027 359.888 132.848 362.93 132.794C363.931 132.774 364.932 132.754 365.963 132.734C367.58 132.709 367.58 132.709 369.23 132.683C370.336 132.662 371.441 132.642 372.58 132.62C376.116 132.555 379.651 132.496 383.187 132.437C385.582 132.394 387.977 132.35 390.373 132.306C396.248 132.199 402.124 132.097 408 132C406.138 129.793 404.271 127.591 402.402 125.39C401.884 124.775 401.365 124.16 400.831 123.526C387.692 108.094 371.399 96.192 354 85.9997C353.345 85.6142 352.691 85.2288 352.017 84.8317C307.42 58.9309 253.6 53.747 204.089 66.5622C153.821 80.3318 111.161 113.955 85.2183 158.984C73.7318 179.502 65.7563 201.768 61.9996 225C61.8839 225.707 61.7682 226.413 61.649 227.142C53.8526 277.356 67.3267 328.781 96.2105 370.168C127.625 413.093 173.404 441.457 226.046 450.035C276.417 457.45 329.052 445.592 370.368 415.48C376.479 410.923 382.316 406.148 387.898 400.949C389.779 399.204 391.706 397.565 393.687 395.937C397.551 392.628 400.76 388.912 404 385C404.644 384.24 404.644 384.24 405.301 383.465C435.405 347.88 450.485 304.174 452.437 257.875C452.844 250.383 454.072 246.854 459.5 241.562C464.67 239.254 469.426 239.242 475 240C479.478 242.159 482.182 244.929 485 249C495.58 280.74 476.225 330.526 462.317 358.852C452.407 378.261 440.311 395.524 425.429 411.382C423.482 413.48 421.629 415.603 419.812 417.812C416.565 421.637 412.827 424.771 409 428C407.594 429.237 407.594 429.237 406.16 430.5C375.094 457.689 335.782 476.396 295 483C293.744 483.21 292.489 483.42 291.195 483.636C287.801 484.16 284.411 484.607 281 485C280.029 485.112 279.058 485.224 278.058 485.34C220.324 490.834 160.471 474.232 115 438C114.126 437.318 113.252 436.636 112.351 435.933C89.2374 417.53 70.5964 395.658 55.9996 370C55.348 368.859 55.348 368.859 54.6832 367.695C25.5706 316.151 17.9667 252.638 33.7223 195.57C51.2064 135.246 89.9465 84.7315 145 53.9997C202.448 23.3056 271.437 16.71 333 38.9997Z"
        fill="white" />
</svg>