<svg width="512" height="512" viewBox="0 0 512 512" fill="none" xmlns="http://www.w3.org/2000/svg">
    <path fill-rule="evenodd" clip-rule="evenodd"
        d="M509.999 249C509.999 344.545 432.544 422 336.999 422C332.685 422 328.407 421.842 324.172 421.532C319.503 429.458 314.139 437.115 308.071 444.42C247.028 517.923 137.958 528.024 64.4549 466.981C-9.04785 405.938 -19.1484 296.867 41.8946 223.364C54.3505 208.366 68.8063 196.007 84.5515 186.355C84.5515 186.355 96.9211 179.072 105.322 175.391C112.853 172.092 125.116 168.216 125.116 168.216C145.42 162.125 166.696 159.803 187.812 161.355C217.884 110.277 273.438 75.9999 336.999 75.9999C356.495 75.9999 375.238 79.225 392.724 85.1706L374.248 42.7285C372.558 38.8457 373.984 34.3109 377.592 32.0938L406.217 14.5041C408.619 13.028 411.597 12.8391 414.167 13.9999L473.901 40.9866C476.471 42.1474 478.297 44.5068 478.777 47.2852L484.499 80.3922C485.22 84.5652 482.76 88.6324 478.729 89.9306L432.594 104.788C479.247 135.775 509.999 188.796 509.999 249ZM336.999 403C422.051 403 490.999 334.052 490.999 249C490.999 163.948 422.051 94.9999 336.999 94.9999C283.309 94.9999 236.037 122.475 208.474 164.132C216.511 165.71 224.469 167.866 232.284 170.608C256.274 138.663 294.474 118 337.499 118C410.125 118 468.999 176.874 468.999 249.5C468.999 320.784 412.279 378.821 341.508 380.94C340.176 380.98 338.84 381 337.499 381C332.232 381 327.038 380.69 321.933 380.088C314.545 379.217 307.344 377.733 300.383 375.689C294.249 373.888 288.3 371.651 282.574 369.015C237.376 348.209 205.999 302.519 205.999 249.5C205.999 241.5 206.713 233.667 208.082 226.062C200.648 223.831 193.046 222.393 185.405 221.738C183.824 230.586 182.999 239.697 182.999 249C182.999 311.43 220.148 365.184 273.546 389.362C279.348 391.988 285.341 394.266 291.5 396.168C304.863 400.295 319.002 402.651 333.645 402.964C334.76 402.988 335.878 403 336.999 403ZM449.999 249.5C449.999 187.368 399.631 137 337.499 137C302.433 137 271.114 153.044 250.482 178.191C262.766 184.159 274.535 191.688 285.511 200.804C334.386 241.394 355.228 303.218 345.761 361.701C404.036 357.471 449.999 308.853 449.999 249.5ZM411.276 31.3484L400.146 38.1877L465.018 67.4956L462.793 54.6228L411.276 31.3484ZM452.53 80.5081L398.636 56.1599L414.558 92.7368L452.53 80.5081ZM56.5112 235.503C2.17238 300.933 11.1636 398.025 76.5938 452.364C142.024 506.703 239.116 497.712 293.455 432.282C297.087 427.908 300.436 423.394 303.504 418.76C295.775 417.243 288.231 415.213 280.908 412.704C279.604 414.44 278.252 416.153 276.85 417.841C230.45 473.712 147.544 481.389 91.6729 434.99C35.8024 388.59 28.1248 305.684 74.5245 249.813C99.2851 219.998 134.442 203.908 170.338 202.435C176.873 202.167 183.433 202.383 189.959 203.089C197.652 203.922 205.298 205.435 212.802 207.639C218.848 209.414 224.801 211.636 230.612 214.311C240.84 219.019 250.627 225.129 259.701 232.665C297.493 264.05 313.235 312.139 305.105 357.266C311.989 359.332 319.151 360.757 326.521 361.471C336.096 308.586 317.667 252.206 273.372 215.421C262.829 206.664 251.463 199.553 239.587 194.057C233.74 191.351 227.77 189.037 221.713 187.111C214.074 184.682 206.298 182.87 198.459 181.669C191.784 180.646 185.062 180.065 178.34 179.923C133.027 178.964 87.7184 197.926 56.5112 235.503ZM89.1412 261.952C49.4456 309.75 56.0138 380.678 103.812 420.373C151.92 460.326 224.137 451.346 262.566 405.213C204.275 377.389 163.999 317.898 163.999 249C163.999 239.722 164.729 230.615 166.136 221.733C137.174 224.202 109.179 237.825 89.1412 261.952ZM247.562 247.281C240.837 241.696 233.653 237.026 226.163 233.258C225.396 238.562 224.999 243.984 224.999 249.5C224.999 293.483 250.239 331.57 287.025 350.069C292.456 312.587 278.832 273.25 247.562 247.281Z"
        fill="black" />
    <path
        d="M76.5938 452.364C11.1636 398.025 2.17238 300.933 56.5112 235.503C87.7184 197.926 133.027 178.964 178.34 179.923C185.062 180.065 191.784 180.646 198.459 181.669C206.298 182.87 214.074 184.682 221.713 187.111C227.77 189.037 233.74 191.351 239.587 194.057C251.463 199.553 262.829 206.664 273.372 215.421C317.667 252.206 336.096 308.586 326.521 361.471C319.151 360.757 311.989 359.332 305.105 357.266C313.235 312.139 297.493 264.05 259.701 232.665C250.627 225.129 240.84 219.019 230.612 214.311C224.801 211.636 218.848 209.414 212.802 207.639C205.298 205.435 197.652 203.922 189.959 203.089C183.433 202.383 176.873 202.167 170.338 202.435C134.442 203.908 99.2851 219.998 74.5245 249.813C28.1248 305.684 35.8024 388.59 91.6729 434.99C147.544 481.389 230.45 473.712 276.85 417.841C278.252 416.153 279.604 414.44 280.908 412.704C288.231 415.213 295.775 417.243 303.504 418.76C300.436 423.394 297.087 427.908 293.455 432.282C239.116 497.712 142.024 506.703 76.5938 452.364Z"
        fill="#FFDBBC" />
    <path
        d="M490.999 249C490.999 334.052 422.051 403 336.999 403C335.878 403 334.76 402.988 333.645 402.964C319.002 402.651 304.863 400.295 291.5 396.168C285.341 394.266 279.348 391.988 273.546 389.362C220.148 365.184 182.999 311.43 182.999 249C182.999 239.697 183.824 230.586 185.405 221.738C193.046 222.393 200.648 223.831 208.082 226.062C206.713 233.667 205.999 241.5 205.999 249.5C205.999 302.519 237.376 348.209 282.574 369.015C288.3 371.651 294.249 373.888 300.383 375.689C307.344 377.733 314.545 379.217 321.933 380.088C327.038 380.69 332.232 381 337.499 381C338.84 381 340.176 380.98 341.508 380.94C412.279 378.821 468.999 320.784 468.999 249.5C468.999 176.874 410.125 118 337.499 118C294.474 118 256.274 138.663 232.284 170.608C224.469 167.866 216.511 165.71 208.474 164.132C236.037 122.475 283.309 94.9999 336.999 94.9999C422.051 94.9999 490.999 163.948 490.999 249Z"
        fill="#FFDBBC" />
    <path d="M400.146 38.1877L411.276 31.3484L462.793 54.6228L465.018 67.4956L400.146 38.1877Z"
        fill="#D1ECFF" />
    <path d="M398.636 56.1599L452.53 80.5081L414.558 92.7368L398.636 56.1599Z" fill="#D1ECFF" />
</svg>