<svg width="512" height="512" viewBox="0 0 512 512" fill="none" xmlns="http://www.w3.org/2000/svg">
    <path fill-rule="evenodd" clip-rule="evenodd"
        d="M255.5 366C316.527 366 366 316.527 366 255.5C366 194.473 316.527 145 255.5 145C194.473 145 145 194.473 145 255.5C145 316.527 194.473 366 255.5 366ZM255.5 382C325.364 382 382 325.364 382 255.5C382 185.636 325.364 129 255.5 129C185.636 129 129 185.636 129 255.5C129 325.364 185.636 382 255.5 382Z"
        fill="black" />
    <path fill-rule="evenodd" clip-rule="evenodd"
        d="M69.9725 59.5C65.9578 59.5 61.9572 59.976 58.0545 60.918L57.2892 61.1028C50.3139 62.7865 43.716 65.7629 37.8375 69.8779L36.9888 70.4719C31.8441 74.0732 27.2678 78.4249 23.4123 83.382L21.4855 85.8593C18.8082 89.3015 16.404 92.9475 14.2948 96.7643L11.4822 101.854C7.87009 108.39 5.14552 115.378 3.38048 122.635C1.79916 129.136 1 135.802 1 142.493V146.63C1 154.132 1.75738 161.614 3.26063 168.963C5.01103 177.521 7.76145 185.843 11.4552 193.758L13.3444 197.806C13.5127 198.167 13.7049 198.516 13.9196 198.851L17.9406 205.134C20.9668 209.863 24.5422 214.216 28.592 218.104C33.6116 222.923 39.3088 226.977 45.5 230.139V289.051L43.0702 313.349L36.1087 357.605C36.0994 357.665 36.0907 357.724 36.0825 357.784L33.0825 379.784C33.0604 379.946 33.0427 380.109 33.0294 380.273L32.1071 391.649C31.6563 397.208 31.9825 402.804 33.0765 408.274L33.8683 412.233C34.974 417.761 37.2141 423 40.4472 427.619L40.6834 427.956C46.0653 435.645 53.9999 441.175 63.0758 443.563L63.379 443.643C70.068 445.403 77.1075 445.329 83.7581 443.429C91.9755 441.081 99.1784 436.067 104.232 429.175L104.454 428.873C108.528 423.318 111.082 416.796 111.864 409.951L112.351 405.688C112.668 402.917 112.776 400.129 112.676 397.345C149.268 434.188 199.97 457 256 457C314.749 457 367.641 431.92 404.552 391.882C404.186 397.2 404.531 402.544 405.576 407.774L406.368 411.733C407.474 417.261 409.714 422.5 412.947 427.119L413.183 427.456C418.565 435.145 426.5 440.675 435.576 443.063L435.879 443.143C442.568 444.903 449.608 444.829 456.258 442.929C464.475 440.581 471.678 435.567 476.732 428.675L476.954 428.373C481.028 422.818 483.582 416.296 484.364 409.451L484.851 405.188C485.319 401.094 485.332 396.96 484.889 392.863L483.448 379.533C483.418 379.253 483.374 378.976 483.318 378.7L478.344 354.329L474.394 331.614L472.434 317.406L470.969 303.731L470 288.71V236C470 232.356 472.187 229.068 475.547 227.659C479.184 226.134 482.5 224.5 485.723 222.331L491.236 217.667C495.248 214.272 498.763 210.331 501.678 205.958C505.852 199.697 508.724 192.66 510.123 185.266L510.738 182.013C511.578 177.577 512 173.071 512 168.556V86C512 77.093 506.513 68.9571 498.082 65.7531C493.202 63.899 487.811 63.9005 482.967 65.6706C474.384 68.8064 468.5 77.0131 468.5 86.2788V147.05C468.5 148 467 148 467 147.05V86.0658C467 77.0214 461.411 68.9181 452.956 65.7054L452.61 65.5739C448.14 63.8751 443.22 63.7733 438.683 65.2856C430.213 68.1088 424.5 76.0352 424.5 84.9632V147.05C424.5 148 423 148 423 147.05V85.1491C423 76.1101 417.216 68.0852 408.641 65.2268C404.33 63.7899 399.67 63.7899 395.359 65.2268C386.784 68.0852 381 76.1101 381 85.1491V96.3104C346.613 69.1862 303.197 53 256 53C207.39 53 162.791 70.17 127.936 98.7761C125.014 93.1935 121.42 87.9879 117.231 83.276L116.981 82.9941C112.636 78.1058 107.665 73.812 102.197 70.2236L99.6039 68.522C94.7206 65.3174 89.3583 62.9106 83.7182 61.3921L83.1772 61.2465C78.8714 60.0872 74.4316 59.5 69.9725 59.5ZM136.839 120.608C138.937 128.372 140 136.379 140 144.422V157C140 157.407 139.972 157.813 139.917 158.216L138.076 171.717C137.207 178.091 135.56 184.334 133.171 190.307C131.058 195.588 128.379 200.624 125.181 205.327L123.731 207.459C121.593 210.603 119.197 213.563 116.566 216.308C111.067 222.046 104.614 226.775 97.5 230.288V289.21L98.4691 304.231L99.9343 317.906L101.894 332.114L105.844 354.829L108.635 368.503C142.647 412.597 196.006 441 256 441C318.724 441 374.196 409.953 407.887 362.388L408.583 357.284C408.591 357.224 408.599 357.165 408.609 357.105L415.57 312.85L418 288.551V234.799C418 231.289 416.146 228.04 413.124 226.254C411.454 225.267 409.891 224.109 408.461 222.798L403.006 217.798C399.093 214.211 395.627 210.166 392.683 205.749C388.718 199.801 385.744 193.249 383.879 186.348L383.553 185.14C381.858 178.871 381 172.405 381 165.911V117.263C347.976 87.2748 304.122 69 256 69C209.682 69 167.318 85.9302 134.76 113.94C135.537 116.134 136.231 118.358 136.839 120.608ZM69.9725 77.5C67.3805 77.5 64.7977 77.8073 62.2781 78.4155L61.5127 78.6002C56.7244 79.756 52.1952 81.7993 48.1598 84.624L47.3112 85.2181C43.639 87.7886 40.3726 90.8947 37.6206 94.4329L35.6938 96.9102C33.5922 99.6123 31.7049 102.474 30.0491 105.471L27.2365 110.56C24.3983 115.696 22.2574 121.187 20.8705 126.889C19.6279 131.997 19 137.236 19 142.493V146.63C19 152.92 19.6351 159.194 20.8955 165.356C22.3632 172.531 24.6694 179.509 27.7665 186.146L29.4028 189.652L33.1015 195.431C35.3619 198.963 38.0326 202.215 41.0576 205.119C45.1223 209.021 49.7818 212.252 54.8615 214.69L58.3946 216.386C61.515 217.884 63.5 221.039 63.5 224.5V289.5C63.5 289.799 63.4851 290.098 63.4553 290.396L60.9553 315.396C60.9383 315.565 60.9165 315.735 60.8899 315.904L53.9053 360.305L50.9507 381.972L50.0482 393.103C49.7326 396.996 49.961 400.914 50.7269 404.743L51.5187 408.703C52.1363 411.79 53.3875 414.717 55.1934 417.296L55.4296 417.634C58.3683 421.832 62.7009 424.852 67.6567 426.156L67.9599 426.236C71.5222 427.173 75.2712 427.134 78.8131 426.122C83.1894 424.871 87.0254 422.201 89.717 418.531L89.9384 418.229C92.1606 415.198 93.5539 411.641 93.9806 407.907L94.4678 403.644C94.7847 400.872 94.7932 398.072 94.4932 395.298L93.0975 382.387L88.1818 358.3C88.1643 358.214 88.1481 358.128 88.1331 358.042L84.1331 335.042C84.115 334.938 84.0988 334.834 84.0844 334.73L82.0844 320.23C82.072 320.14 82.0609 320.049 82.0512 319.959L80.5512 305.959C80.5377 305.833 80.5268 305.706 80.5187 305.579L79.5187 290.079C79.5062 289.887 79.5 289.693 79.5 289.5V224.5C79.5 220.943 81.5946 217.72 84.8448 216.276L87.689 215.012C93.6572 212.359 99.0514 208.569 103.57 203.854C105.507 201.833 107.272 199.653 108.847 197.338L110.296 195.206C112.763 191.578 114.829 187.694 116.458 183.621C118.301 179.015 119.571 174.201 120.241 169.285L122 156.389V144.422C122 138.883 121.372 133.366 120.13 127.974C119.924 127.081 119.702 126.191 119.462 125.304C118.189 120.592 116.447 116.019 114.264 111.653L114.07 111.265L112.486 108.096C110.16 103.445 107.233 99.121 103.778 95.2345L103.527 94.9527C100.234 91.2473 96.4658 87.9925 92.321 85.2725L89.7281 83.5709C86.4422 81.4145 82.8338 79.795 79.0386 78.7732L78.4977 78.6275C75.7178 77.8791 72.8514 77.5 69.9725 77.5ZM402.949 82.3031C402.333 82.0978 401.667 82.0978 401.051 82.3031C399.826 82.7114 399 83.8578 399 85.1491V165.911C399 170.819 399.649 175.705 400.929 180.443L401.256 181.652C402.613 186.672 404.775 191.438 407.66 195.765C409.802 198.978 412.323 201.92 415.169 204.529L420.624 209.529C421.132 209.995 421.687 210.407 422.281 210.758C430.784 215.782 436 224.923 436 234.799V289C436 289.299 435.985 289.598 435.955 289.896L433.455 314.896C433.438 315.065 433.417 315.235 433.39 315.404L426.405 359.805L423.451 381.472L422.548 392.603C422.233 396.496 422.461 400.414 423.227 404.243L424.019 408.203C424.636 411.29 425.888 414.217 427.693 416.796L427.93 417.134C430.868 421.332 435.201 424.352 440.157 425.656L440.46 425.736C444.022 426.673 447.771 426.634 451.313 425.622C455.689 424.371 459.525 421.701 462.217 418.031L462.438 417.729C464.661 414.698 466.054 411.141 466.481 407.407L466.968 403.144C467.285 400.372 467.293 397.572 466.993 394.798L465.597 381.887L460.682 357.8C460.664 357.714 460.648 357.628 460.633 357.542L456.633 334.542C456.615 334.438 456.599 334.334 456.584 334.23L454.584 319.73C454.572 319.64 454.561 319.549 454.551 319.459L453.051 305.459C453.038 305.333 453.027 305.206 453.019 305.079L452.019 289.579C452.006 289.387 452 289.193 452 289V236C452 225.105 458.538 215.273 468.586 211.06L470.108 210.421C473.878 208.84 476.479 206.574 479.609 203.926C482.334 201.62 483.721 198.943 485.701 195.974C488.536 191.721 491.487 186.942 492.437 181.92L493.052 178.667C493.683 175.334 494 171.949 494 168.556V86C494 84.4543 493.027 83.0882 491.688 82.5792C490.911 82.284 489.983 82.2709 489.144 82.5774C487.541 83.1632 486.5 84.7002 486.5 86.2788V147.943C486.5 171.319 449 170.827 449 147.05V86.0658C449 84.4958 448.03 83.0892 446.562 82.5315L446.216 82.4C445.625 82.1754 444.975 82.1619 444.375 82.3619C443.255 82.7351 442.5 83.7829 442.5 84.9632V147.511C442.5 171.906 405 170.023 405 146.596V85.1491C405 83.8578 404.174 82.7114 402.949 82.3031Z"
        fill="black" />
    <path
        d="M401.051 82.3031C401.667 82.0978 402.333 82.0978 402.949 82.3031C404.174 82.7114 405 83.8578 405 85.1491V146.596C405 170.023 442.5 171.906 442.5 147.511V84.9632C442.5 83.7829 443.255 82.7351 444.375 82.3619C444.975 82.1619 445.625 82.1754 446.216 82.4L446.562 82.5315C448.03 83.0892 449 84.4958 449 86.0658V147.05C449 170.827 486.5 171.319 486.5 147.943V86.2788C486.5 84.7002 487.541 83.1632 489.144 82.5774C489.983 82.2709 490.911 82.284 491.688 82.5792C493.027 83.0882 494 84.4543 494 86V168.556C494 171.949 493.683 175.334 493.052 178.667L492.437 181.92C491.487 186.942 488.536 191.721 485.701 195.974C483.721 198.943 482.334 201.62 479.609 203.926C476.479 206.574 473.878 208.84 470.108 210.421L468.586 211.06C458.538 215.273 452 225.105 452 236V289C452 289.193 452.006 289.387 452.019 289.579L453.019 305.079C453.027 305.206 453.038 305.333 453.051 305.459L454.551 319.459C454.561 319.549 454.572 319.64 454.584 319.73L456.584 334.23C456.599 334.334 456.615 334.438 456.633 334.542L460.633 357.542C460.648 357.628 460.664 357.714 460.682 357.8L465.597 381.887L466.993 394.798C467.293 397.572 467.285 400.372 466.968 403.144L466.481 407.407C466.054 411.141 464.661 414.698 462.438 417.729L462.217 418.031C459.525 421.701 455.689 424.371 451.313 425.622C447.771 426.634 444.022 426.673 440.46 425.736L440.157 425.656C435.201 424.352 430.868 421.332 427.93 417.134L427.693 416.796C425.888 414.217 424.636 411.29 424.019 408.203L423.227 404.243C422.461 400.414 422.233 396.496 422.548 392.603L423.451 381.472L426.405 359.805L433.39 315.404C433.417 315.235 433.438 315.065 433.455 314.896L435.955 289.896C435.985 289.598 436 289.299 436 289V234.799C436 224.923 430.784 215.782 422.281 210.758C421.687 210.407 421.132 209.995 420.624 209.529L415.169 204.529C412.323 201.92 409.802 198.978 407.66 195.765C404.775 191.438 402.613 186.672 401.256 181.652L400.929 180.443C399.649 175.705 399 170.819 399 165.911V85.1491C399 83.8578 399.826 82.7114 401.051 82.3031Z"
        fill="black" fill-opacity="0.2" />
    <path
        d="M62.2781 78.4155C64.7977 77.8073 67.3805 77.5 69.9725 77.5C72.8514 77.5 75.7178 77.8791 78.4977 78.6275L79.0386 78.7732C82.8338 79.795 86.4422 81.4145 89.7281 83.5709L92.321 85.2725C96.4658 87.9925 100.234 91.2473 103.527 94.9527L103.778 95.2345C107.233 99.121 110.16 103.445 112.486 108.096L114.07 111.265L114.264 111.653C116.447 116.019 118.189 120.592 119.462 125.304C119.702 126.191 119.924 127.081 120.13 127.974C121.372 133.366 122 138.883 122 144.422V156.389L120.241 169.285C119.571 174.201 118.301 179.015 116.458 183.621C114.829 187.694 112.763 191.578 110.296 195.206L108.847 197.338C107.272 199.653 105.507 201.833 103.57 203.854C99.0514 208.569 93.6572 212.359 87.689 215.012L84.8448 216.276C81.5946 217.72 79.5 220.943 79.5 224.5V289.5C79.5 289.693 79.5062 289.887 79.5187 290.079L80.5187 305.579C80.5268 305.706 80.5377 305.833 80.5512 305.959L82.0512 319.959C82.0609 320.049 82.072 320.14 82.0844 320.23L84.0844 334.73C84.0988 334.834 84.115 334.938 84.1331 335.042L88.1331 358.042C88.1481 358.128 88.1643 358.214 88.1818 358.3L93.0975 382.387L94.4932 395.298C94.7932 398.072 94.7847 400.872 94.4678 403.644L93.9806 407.907C93.5539 411.641 92.1606 415.198 89.9384 418.229L89.717 418.531C87.0254 422.201 83.1894 424.871 78.8131 426.122C75.2712 427.134 71.5222 427.173 67.9599 426.236L67.6567 426.156C62.7009 424.852 58.3683 421.832 55.4296 417.634L55.1934 417.296C53.3875 414.717 52.1363 411.79 51.5187 408.703L50.7269 404.743C49.961 400.914 49.7326 396.996 50.0482 393.103L50.9507 381.972L53.9053 360.305L60.8899 315.904C60.9165 315.735 60.9383 315.565 60.9553 315.396L63.4553 290.396C63.4851 290.098 63.5 289.799 63.5 289.5V224.5C63.5 221.039 61.515 217.884 58.3946 216.386L54.8615 214.69C49.7818 212.252 45.1223 209.021 41.0576 205.119C38.0326 202.215 35.3619 198.963 33.1015 195.431L29.4028 189.652L27.7665 186.146C24.6694 179.509 22.3632 172.531 20.8955 165.356C19.6351 159.194 19 152.92 19 146.63V142.493C19 137.236 19.6279 131.997 20.8705 126.889C22.2574 121.187 24.3983 115.696 27.2365 110.56L30.0491 105.471C31.7049 102.474 33.5922 99.6123 35.6938 96.9102L37.6206 94.4329C40.3726 90.8947 43.639 87.7886 47.3112 85.2181L48.1598 84.624C52.1952 81.7993 56.7244 79.756 61.5127 78.6002L62.2781 78.4155Z"
        fill="black" fill-opacity="0.2" />
</svg>