<svg width="512" height="512" viewBox="0 0 512 512" fill="none" xmlns="http://www.w3.org/2000/svg">
    <path
        d="M232.963 269.592L233.983 270.224C248.125 278.985 266.067 278.739 279.963 269.592V269.592"
        stroke="black" stroke-width="16" stroke-linecap="round" stroke-linejoin="round" />
    <path d="M312 172L311.395 171.622C302.978 166.37 292.269 166.518 284 172V172" stroke="black"
        stroke-width="16" stroke-linecap="round" stroke-linejoin="round" />
    <path d="M215.963 196.592V203.592M297.963 196.592V203.592" stroke="black" stroke-width="21"
        stroke-linecap="round" stroke-linejoin="round" />
    <path d="M230 172L229.395 171.622C220.978 166.37 210.269 166.518 202 172V172" stroke="black"
        stroke-width="16" stroke-linecap="round" stroke-linejoin="round" />
    <path fill-rule="evenodd" clip-rule="evenodd"
        d="M375.963 164.591C375.963 158.491 373.586 152.641 369.356 148.327C367.486 146.422 365.323 144.885 362.974 143.763C363.166 143.182 352.747 141.448 352.747 141.448H343.748V189.591C343.748 256.71 301.629 305.36 255.963 305.36C210.297 305.36 168.178 256.71 168.178 189.591V143.14L150.125 142C150.125 142.336 150.146 142.67 150.187 142.998C147.052 144.137 144.171 145.944 141.765 148.327C137.41 152.641 134.963 158.491 134.963 164.591V183.379C134.963 183.46 134.964 183.542 134.967 183.624L135.691 205.844C135.919 212.852 139.593 219.306 145.528 223.128C149.039 225.388 153.137 226.591 157.324 226.591H159.179C171.632 279.804 210.251 318.591 255.963 318.591C301.675 318.591 340.295 279.804 352.747 226.591H354.24C358.308 226.591 362.289 225.388 365.699 223.128C371.465 219.306 375.034 212.852 375.256 205.844L375.959 183.624C375.962 183.542 375.963 183.46 375.963 183.379V164.591ZM357.577 210.387C359.256 209.274 360.295 207.395 360.36 205.354L361.059 183.256V164.591C361.059 162.521 360.252 160.536 358.817 159.072C358.266 158.511 357.64 158.044 356.963 157.681V189.591C356.963 196.973 356.477 204.209 355.545 211.252C356.265 211.092 356.953 210.8 357.577 210.387ZM153.89 210.387C152.161 209.274 151.092 207.395 151.025 205.354L150.305 183.256V164.591C150.305 162.521 151.136 160.536 152.613 159.072C153.298 158.394 154.096 157.853 154.963 157.469L154.964 189.591C154.964 196.999 155.452 204.26 156.391 211.327C155.503 211.195 154.649 210.876 153.89 210.387Z"
        fill="black" />
    <path
        d="M259.5 9.5C426.5 9.5002 464.392 342.838 472 502M259.5 9.5C92.4993 9.4998 40.1638 340.803 42.5001 502M259.5 9.5C164 44 164 94.5 164 94.5M259.5 9.5C346.5 41.5 346.5 94.5 346.5 94.5"
        stroke="black" stroke-width="16" stroke-linecap="round" />
    <path
        d="M167.5 90.5001C156.325 107.184 156.5 138 156.5 138C223.5 155.5 262.5 148.388 281 134C297.832 120.91 309.048 93.5962 314 90.5001C318.952 87.404 316.999 138 353.999 138C355.341 103.989 339.788 70.67 308 55.5001C279.872 42.0769 244.454 40.4677 215.5 52.0006C194.821 60.237 179.886 72.0068 167.5 90.5001Z"
        stroke="black" stroke-width="16" stroke-linecap="round" />
    <path
        d="M370.5 500L366.324 483.505C363.694 473.115 357.657 464.051 349.361 457.642M145 500L145.947 489.585C146.64 481.963 149.073 474.603 153.059 468.07L153.789 466.874C155.57 463.954 157.648 461.266 159.973 458.84M85.5 500C85.5 500 89.2717 463.925 93 441C97.5312 413.138 116.739 390.216 142.483 379.019M143 214L137.262 247.063C134.16 264.934 136.548 283.325 144.109 299.812L148.298 308.946C157.543 329.103 156.664 352.453 145.93 371.858C144.636 374.196 143.488 376.587 142.483 379.019M202 292C204.959 308.138 213.799 328.105 213.5 344.5C213.209 360.46 200.084 377.178 192.491 391.24L189.509 396.76C181.627 411.357 180 428.416 180 445.005L180.197 446.414M142.483 379.019C133.132 401.659 136.288 427.808 151.264 447.682L159.973 458.84M429 499.5C429 499.5 423.664 464.679 419.5 442.5C414.837 417.664 397.683 397.078 374.456 387.124L373.094 386.54M371 203L375.543 219.152C381.359 239.833 380.361 261.837 372.695 281.907L369.576 290.073C361.437 311.382 360.828 334.833 367.85 356.536L368.258 357.798C371.304 367.211 372.898 376.893 373.094 386.54M310.5 292C307.755 309.191 303.019 326.874 304.089 344.381C304.871 357.177 312.109 368.743 317.666 380.38L328.736 403.557C334.674 415.988 334.987 429.369 335 443.093C335.002 445.355 334.713 447.608 334.145 449.798V449.798M373.094 386.54C373.552 409.089 367.644 433.971 353.5 452.266L349.361 457.642M159.973 458.84L184.44 490.187C185.017 490.954 186.238 490.545 186.238 489.585L180.197 446.414M180.197 446.414C182.166 445.816 184.183 445.343 186.238 445.005C197.973 443.074 210.004 445.669 219.899 452.266L227.126 457.084C246.222 469.815 271.007 470.169 290.459 457.991L295.267 454.981C306.931 447.678 321.12 445.848 334.145 449.798M334.145 449.798L324.532 486.877C324.511 486.959 324.497 487.043 324.507 487.128C324.609 487.989 325.735 488.332 326.291 487.612L349.361 457.642"
        stroke="black" stroke-width="16" stroke-linecap="round" />
    <path
        d="M169.462 105.441C171.638 101.596 170.286 96.7144 166.441 94.5379C162.596 92.3615 157.714 93.7142 155.538 97.5592L169.462 105.441ZM93.5156 363.001C93.24 367.411 96.5913 371.209 101.001 371.484C105.411 371.76 109.209 368.409 109.484 363.999L93.5156 363.001ZM155.538 97.5592C143.722 118.435 133.243 148.148 124.823 176.546L140.163 181.094C148.521 152.905 158.587 124.653 169.462 105.441L155.538 97.5592ZM124.823 176.546C106.915 236.946 97.4272 300.414 93.5156 363.001L109.484 363.999C113.34 302.309 122.675 240.077 140.163 181.094L124.823 176.546Z"
        fill="black" />
    <path d="M346 89C346 89 365.616 115 382 172.5C408.5 265.5 411.92 320.412 419 392.5"
        stroke="black" stroke-width="16" stroke-linecap="round" />
</svg>