<svg width="512" height="512" viewBox="0 0 512 512" fill="none" xmlns="http://www.w3.org/2000/svg">
    <path
        d="M232.963 269.592L233.983 270.224C248.125 278.985 266.067 278.739 279.963 269.592V269.592"
        stroke="black" stroke-width="16" stroke-linecap="round" stroke-linejoin="round" />
    <path d="M312 166L311.395 165.622C302.978 160.37 292.269 160.518 284 166V166" stroke="black"
        stroke-width="16" stroke-linecap="round" stroke-linejoin="round" />
    <path d="M215.963 194.592V201.592M297.963 194.592V201.592" stroke="black" stroke-width="21"
        stroke-linecap="round" stroke-linejoin="round" />
    <path d="M230 166L229.395 165.622C220.978 160.37 210.269 160.518 202 166V166" stroke="black"
        stroke-width="16" stroke-linecap="round" stroke-linejoin="round" />
    <path fill-rule="evenodd" clip-rule="evenodd"
        d="M375.963 164.592C375.963 158.492 373.586 152.642 369.356 148.328C367.486 146.423 365.323 144.886 362.974 143.764C363.166 143.183 363.271 142.591 363.271 142V96.0005C363.271 65.1043 348.074 45.2235 329.314 33.1517C310.948 21.3344 289.223 16.9495 274.761 15.8637C259.427 14.7125 237.148 14.0631 218.439 18.2572C209.091 20.3526 199.894 23.8121 192.899 29.6574C186.869 34.6961 182.675 41.3665 181.399 49.6978C174.508 52.8373 167.482 57.1839 161.814 63.5081C154.671 71.4764 150.125 82.0976 150.125 96.0005V142C150.125 142.337 150.146 142.671 150.187 142.999C147.052 144.138 144.171 145.945 141.765 148.328C137.41 152.642 134.963 158.492 134.963 164.592V183.38C134.963 183.461 134.964 183.543 134.967 183.624L135.691 205.845C135.919 212.853 139.593 219.307 145.528 223.128C149.039 225.389 153.137 226.592 157.324 226.592H159.179C171.632 279.804 210.251 318.592 255.963 318.592C301.675 318.592 340.295 279.804 352.747 226.592H354.24C358.308 226.592 362.289 225.389 365.699 223.128C371.465 219.307 375.034 212.853 375.256 205.845L375.959 183.624C375.962 183.543 375.963 183.461 375.963 183.38V164.592ZM357.577 210.388C359.256 209.275 360.295 207.396 360.36 205.355L361.059 183.257V164.592C361.059 162.522 360.252 160.537 358.817 159.073C358.266 158.512 357.64 158.045 356.963 157.682V189.592C356.963 196.973 356.477 204.21 355.545 211.253C356.265 211.093 356.953 210.801 357.577 210.388ZM153.89 210.388C152.161 209.275 151.092 207.396 151.025 205.355L150.305 183.257V164.592C150.305 162.522 151.136 160.537 152.613 159.073C153.298 158.395 154.096 157.854 154.963 157.469L154.964 189.592C154.964 196.999 155.452 204.261 156.391 211.327C155.503 211.196 154.649 210.877 153.89 210.388ZM255.963 305.361C301.629 305.361 343.748 256.711 343.748 189.592V141.449L323.601 120.112C321.205 120.824 318.066 121.721 314.532 122.643C306.739 124.675 296.486 126.971 287.984 127.486C264.989 128.878 248.309 129.807 225.699 116.242C213.77 109.085 205.301 102.221 198.875 94.3123C198.193 96.5041 197.422 98.8359 196.581 101.36C192.832 112.603 184.279 124.358 177.288 132.82C173.697 137.167 170.654 140.521 168.178 143.141V189.592C168.178 256.711 210.297 305.361 255.963 305.361ZM323.513 103.397C326.456 102.434 329.691 103.256 331.817 105.508L347.271 121.876V96.0005C347.271 71.3966 335.605 56.2258 320.656 46.6069C305.312 36.7336 286.483 32.7888 273.563 31.8188C258.528 30.69 238.222 30.2194 221.938 33.8697C213.789 35.6965 207.388 38.4003 203.159 41.9349C199.506 44.9872 197.312 48.7542 197.024 53.9798C197.607 55.7361 198.152 57.3989 198.653 58.9873C201.815 68.3044 204.794 75.189 209.032 81.2306C214.072 88.4152 221.28 94.9325 233.93 102.522C252.038 113.386 264.351 112.887 287.016 111.515C293.883 111.099 302.88 109.146 310.495 107.16C314.231 106.186 317.505 105.239 319.842 104.536C321.01 104.186 321.939 103.897 322.571 103.697C322.686 103.661 322.79 103.628 322.885 103.598L322.916 103.589C323.068 103.54 323.193 103.5 323.288 103.47L323.465 103.413L323.513 103.397ZM184.126 66.2083C180.138 68.392 176.585 70.9999 173.728 74.1875C169.295 79.1327 166.125 85.9192 166.125 96.0005V121.196C172.545 113.257 178.809 104.075 181.402 96.2987C184.942 85.6833 186.166 81.211 186.166 77.004C186.166 74.1438 185.6 71.1609 184.126 66.2083Z"
        fill="black" />
    <path
        d="M269.047 500.592L253.946 480.286M253.946 480.286C253.946 480.286 216.633 432.156 206.755 402.37C195.079 367.161 204.374 315.455 206.391 305.276C206.545 304.498 205.805 303.863 205.066 304.15C195.861 307.723 151.973 325.177 146.353 335.314M253.946 480.286C253.946 480.286 293.874 434.594 306.798 402.37C320.543 368.098 311.872 316.088 309.879 305.443C309.727 304.63 310.55 304.003 311.294 304.363C320.055 308.608 358.076 327.382 362.011 335.314M362.011 335.314C369.271 349.953 362.011 406.147 362.011 406.147L336.056 423.147L348.325 434.481L294.057 500.592M362.011 335.314L427.557 361.388C434.282 364.063 439.884 369.047 442.868 375.641C468.603 432.512 471.963 500.592 471.963 500.592M146.353 335.314C139.283 348.064 146.353 406.147 146.353 406.147L170.892 423.147L154.375 434.481L214.778 500.592M146.353 335.314L70.055 361.585C62.6948 364.119 56.5176 369.376 53.4535 376.531C30.6674 429.746 26.9629 500.592 26.9629 500.592"
        stroke="black" stroke-width="16" stroke-linecap="round" />
    <path
        d="M256.804 371.928L269.058 343.575C270.485 340.274 268.065 336.592 264.468 336.592H246.854C243.114 336.592 240.698 340.548 242.405 343.875L256.804 371.928ZM256.804 371.928L284.963 434.592M256.804 371.928L221.963 434.592"
        stroke="black" stroke-width="16" stroke-linecap="round" />
</svg>