<svg width="512" height="512" viewBox="0 0 512 512" fill="none" xmlns="http://www.w3.org/2000/svg">
    <g clip-path="url(#clip0_492_174)">
        <path fill-rule="evenodd" clip-rule="evenodd"
            d="M256 288C317.345 288 368 236.806 368 172.5C368 108.194 317.345 57 256 57C194.655 57 144 108.194 144 172.5C144 236.806 194.655 288 256 288ZM256 309C329.454 309 389 247.887 389 172.5C389 97.1131 329.454 36 256 36C182.546 36 123 97.1131 123 172.5C123 247.887 182.546 309 256 309Z"
            fill="black" />
        <path
            d="M304.812 401.5C304.008 402.729 303.202 403.956 302.394 405.182C300.599 407.907 298.813 410.64 297.033 413.375C292.637 420.103 288.129 426.756 283.621 433.41L283.619 433.413L283.618 433.414L283.617 433.415L283.617 433.416L283.616 433.417C283.259 433.944 282.902 434.472 282.544 434.999C282.138 435.598 281.733 436.198 281.327 436.797C279.515 439.476 277.707 442.159 275.901 444.842L274.179 447.397C273.109 448.985 272.039 450.574 270.97 452.164C269.086 454.957 266 459 266 459C262.5 464 259 464.5 256 464.5C253 464.5 249.5 463.5 245.999 459C245.999 459 243.897 456 242.456 454.059C238.072 448.153 233.986 442.078 229.932 435.944C228.654 434.014 227.37 432.087 226.085 430.162C222.021 424.074 217.975 417.977 213.994 411.835C212.292 409.215 210.574 406.606 208.852 403.998C208.037 402.755 207.23 401.507 206.43 400.254L203.038 395.679C175.39 398.56 150.964 403.612 131.598 410.085C116.001 415.298 104.676 421.108 97.6198 426.684C90.3659 432.416 90 435.867 90 436.5C90 437.133 90.3659 440.584 97.6198 446.316C104.676 451.892 116.001 457.702 131.598 462.915C162.606 473.28 206.59 480 256 480C305.41 480 349.394 473.28 380.402 462.915C395.999 457.702 407.324 451.892 414.38 446.316C421.634 440.584 422 437.133 422 436.5C422 435.867 421.634 432.416 414.38 426.684C407.324 421.108 395.999 415.298 380.402 410.085C361.005 403.601 336.531 398.544 308.828 395.666L306.005 399.624L304.812 401.5Z"
            fill="#BCBDAD" />
        <path fill-rule="evenodd" clip-rule="evenodd"
            d="M214.735 376.553L226.352 393.821C222.47 388.071 218.597 382.315 214.735 376.553Z"
            fill="black" />
        <path fill-rule="evenodd" clip-rule="evenodd"
            d="M247.568 -0.267893L245.222 -0.238352C222.752 -0.00372276 199.817 6.88988 179.873 17.0317L177.999 17.9999C173.939 20.0947 169.927 22.2567 165.98 24.5585C128.99 46.817 101.084 84.8717 90.5665 126.714L89.9991 129C86.6209 141.876 85.6356 154.486 85.5698 167.75L85.5616 170.25C85.4453 185.215 86.7809 199.732 90.7347 214.219L91.3116 216.187C97.0953 236.332 106.434 254.326 118.171 271.589C119.285 273.225 120.394 274.864 121.501 276.506C124.449 280.889 127.404 285.268 130.368 289.641C133.375 294.076 136.374 298.517 139.37 302.959C143.427 308.976 147.485 314.992 151.548 321.005C157.122 329.25 162.69 337.499 168.221 345.774L170.249 348.812C174.929 355.815 179.5 362.879 183.999 370L190.664 378.99C121.298 387.799 72 410.225 72 436.5C72 470.466 154.38 498 256 498C357.62 498 440 470.466 440 436.5C440 410.154 390.434 387.677 320.769 378.918L328.1 368.637C328.279 368.212 328.676 367.712 329.498 366.675L331.644 363.527C332.46 362.326 333.276 361.125 334.092 359.924C335.944 357.21 337.793 354.494 339.64 351.777L342.62 347.391C349.228 337.672 355.803 327.931 362.374 318.187L363.466 316.568C369.27 307.959 375.074 299.35 380.917 290.768C382.492 288.455 384.065 286.141 385.638 283.827C386.633 282.364 387.628 280.9 388.624 279.437C389.321 278.418 390.021 277.398 390.722 276.377C398.219 265.449 405.829 254.356 411.33 242.3L412.187 240.312C415.971 231.606 418.965 222.735 421.35 213.548L421.999 211C426.354 194.607 426.436 178.414 426.267 161.569L426.237 159.223C426.003 136.752 419.109 113.818 408.967 93.874L407.999 91.9999C405.904 87.9398 403.742 83.9274 401.44 79.9804C379.182 42.9913 341.127 15.0847 299.285 4.56731L296.999 3.99993C280.585 -0.306393 264.423 -0.436412 247.568 -0.267893ZM106.766 176.341C106.533 135.292 118.612 95.8864 147.999 65.9999C197.403 17.2644 272.807 5.51774 333.175 41.5741C366.889 62.523 391.853 95.3083 401.495 133.966L401.999 136C404.854 146.753 405.236 157.236 405.251 168.304L405.249 170.625C405.235 188.718 402.683 205.839 396.228 222.833L395.249 225.312C389.229 240.823 379.802 254.63 370.472 268.294C369.218 270.131 367.966 271.969 366.716 273.809C364.092 277.678 361.468 281.546 358.839 285.412C353.437 293.349 348.061 301.303 342.694 309.264C339.915 313.386 337.134 317.507 334.352 321.627L331.01 326.577L329.342 329.048C326.543 333.194 323.744 337.34 320.946 341.486L319.257 343.988L318.478 345.142L314.076 351.664L310.824 356.482L310.308 357.247C305.964 363.683 301.62 370.119 297.274 376.553L295.415 379.306C293.608 381.981 291.8 384.655 289.994 387.33L287.898 390.434C287.135 391.562 286.373 392.691 285.611 393.819C284.727 395.127 283.844 396.434 282.96 397.741L282.328 398.675L281.511 399.883C277.102 406.4 272.692 412.917 268.376 419.497L267.3 421.141C266.031 423.072 264.764 425.004 263.499 426.937L261.865 429.483L258 436C257 437 256 437 254.999 436C254.999 436 237.417 410.203 228.679 397.268L226.937 394.687L226.352 393.821C222.47 388.071 218.597 382.315 214.735 376.553C210.247 369.857 205.772 363.152 201.312 356.437C195.916 348.314 190.498 340.214 184.909 332.222C177.586 321.786 170.43 311.254 163.384 300.629L160.596 296.421L159.159 294.254C155.938 289.394 152.699 284.547 149.424 279.722C146.915 276.03 144.411 272.335 141.912 268.636C140.672 266.798 139.43 264.961 138.187 263.125C128.088 248.378 118.432 233.361 113.226 216.087L112.624 213.875C111.92 211.359 111.234 208.843 110.585 206.312L109.999 204C107.515 194.74 106.86 185.901 106.766 176.341ZM302.394 405.182C303.202 403.956 304.008 402.729 304.812 401.5L306.005 399.624L308.828 395.666C336.531 398.544 361.005 403.601 380.402 410.085C395.999 415.298 407.324 421.108 414.38 426.684C421.634 432.416 422 435.867 422 436.5C422 437.133 421.634 440.584 414.38 446.316C407.324 451.892 395.999 457.702 380.402 462.915C349.394 473.28 305.41 480 256 480C206.59 480 162.606 473.28 131.598 462.915C116.001 457.702 104.676 451.892 97.6198 446.316C90.3659 440.584 90 437.133 90 436.5C90 435.867 90.3659 432.416 97.6198 426.684C104.676 421.108 116.001 415.298 131.598 410.085C150.964 403.612 175.39 398.56 203.038 395.679L206.43 400.254C207.23 401.507 208.037 402.755 208.852 403.998C210.574 406.606 212.292 409.215 213.994 411.835C217.975 417.977 222.021 424.074 226.085 430.162C227.37 432.087 228.654 434.014 229.932 435.944C233.986 442.078 238.072 448.153 242.456 454.059C243.897 456 245.999 459 245.999 459C249.5 463.5 253 464.5 256 464.5C259 464.5 262.5 464 266 459C266 459 269.086 454.957 270.97 452.164C272.039 450.574 273.109 448.985 274.179 447.397L275.901 444.842C277.707 442.159 279.515 439.476 281.327 436.797C281.733 436.198 282.138 435.598 282.544 434.999L283.616 433.417L283.617 433.416L283.617 433.415L283.618 433.414L283.619 433.413L283.621 433.41C288.129 426.756 292.637 420.103 297.033 413.375C298.813 410.64 300.599 407.907 302.394 405.182Z"
            fill="black" />
        <path fill-rule="evenodd" clip-rule="evenodd"
            d="M256.008 126.088C249.815 118.511 241.533 112.887 232.643 109.924C215.617 104.249 195.362 108.09 182.513 126.771C171.123 143.33 173.613 165.305 179.301 180.125C191.269 211.315 223.093 234.71 250.609 249.013C253.623 250.811 257.469 251.058 260.816 249.33C288.462 235.055 320.646 211.552 332.698 180.145C338.385 165.325 340.875 143.35 329.485 126.791C316.636 108.11 296.381 104.27 279.355 109.944C270.474 112.904 262.198 118.522 256.008 126.088ZM256.018 228.095C231.198 214.477 207.529 195.07 198.907 172.601C194.362 160.758 194.069 147.027 199.815 138.672C206.668 128.709 216.635 126.724 226.003 129.846C235.814 133.116 243.919 141.746 245.57 152.175C246.113 156.771 249.672 160.619 254.471 161.325C260.208 162.169 265.543 158.203 266.387 152.465C267.94 141.916 276.1 133.165 285.995 129.867C295.364 126.744 305.331 128.73 312.183 138.692C317.93 147.047 317.637 160.778 313.092 172.622C304.474 195.08 280.824 214.478 256.018 228.095Z"
            fill="black" />
        <path
            d="M256.018 228.095C231.198 214.477 207.529 195.07 198.907 172.601C194.362 160.758 194.069 147.027 199.815 138.672C206.668 128.709 216.635 126.724 226.003 129.846C235.814 133.116 243.919 141.746 245.57 152.175C246.113 156.771 249.672 160.619 254.471 161.325C260.208 162.169 265.543 158.203 266.387 152.465C267.94 141.916 276.1 133.165 285.995 129.867C295.364 126.744 305.331 128.73 312.183 138.692C317.93 147.047 317.637 160.778 313.092 172.622C304.474 195.08 280.824 214.478 256.018 228.095Z"
            fill="#F0CAB7" />
    </g>
    <defs>
        <clipPath id="clip0_492_174">
            <rect width="512" height="512" fill="white" />
        </clipPath>
    </defs>
</svg>