<svg width="512" height="512" viewBox="0 0 512 512" fill="none" xmlns="http://www.w3.org/2000/svg">
    <path fill-rule="evenodd" clip-rule="evenodd"
        d="M256.5 491C386.011 491 491 386.011 491 256.5C491 126.989 386.011 22 256.5 22C126.989 22 22 126.989 22 256.5C22 386.011 126.989 491 256.5 491ZM256.5 509C395.952 509 509 395.952 509 256.5C509 117.048 395.952 4 256.5 4C117.048 4 4 117.048 4 256.5C4 395.952 117.048 509 256.5 509Z"
        fill="black" />
    <path fill-rule="evenodd" clip-rule="evenodd"
        d="M256.5 445C359.93 445 444 360.505 444 256C444 151.495 359.93 67 256.5 67C153.07 67 69 151.495 69 256C69 360.505 153.07 445 256.5 445ZM256.5 463C369.995 463 462 370.323 462 256C462 141.677 369.995 49 256.5 49C143.005 49 51 141.677 51 256C51 370.323 143.005 463 256.5 463Z"
        fill="black" />
    <path fill-rule="evenodd" clip-rule="evenodd"
        d="M256 394C260.971 394 265 398.029 265 403V426C265 430.971 260.971 435 256 435C251.029 435 247 430.971 247 426V403C247 398.029 251.029 394 256 394Z"
        fill="black" />
    <path fill-rule="evenodd" clip-rule="evenodd"
        d="M256 394C260.971 394 265 398.029 265 403V426C265 430.971 260.971 435 256 435C251.029 435 247 430.971 247 426V403C247 398.029 251.029 394 256 394Z"
        fill="black" />
    <path fill-rule="evenodd" clip-rule="evenodd"
        d="M433 256C433 260.971 428.971 265 424 265H401C396.029 265 392 260.971 392 256C392 251.029 396.029 247 401 247H424C428.971 247 433 251.029 433 256Z"
        fill="black" />
    <path fill-rule="evenodd" clip-rule="evenodd"
        d="M433 256C433 260.971 428.971 265 424 265H401C396.029 265 392 260.971 392 256C392 251.029 396.029 247 401 247H424C428.971 247 433 251.029 433 256Z"
        fill="black" />
    <path fill-rule="evenodd" clip-rule="evenodd"
        d="M119 256C119 260.971 114.971 265 110 265H87C82.0294 265 78 260.971 78 256C78 251.029 82.0294 247 87 247H110C114.971 247 119 251.029 119 256Z"
        fill="black" />
    <path fill-rule="evenodd" clip-rule="evenodd"
        d="M119 256C119 260.971 114.971 265 110 265H87C82.0294 265 78 260.971 78 256C78 251.029 82.0294 247 87 247H110C114.971 247 119 251.029 119 256Z"
        fill="black" />
    <path fill-rule="evenodd" clip-rule="evenodd"
        d="M256 77C260.971 77 265 81.0294 265 86V109C265 113.971 260.971 118 256 118C251.029 118 247 113.971 247 109V86C247 81.0294 251.029 77 256 77Z"
        fill="black" />
    <path fill-rule="evenodd" clip-rule="evenodd"
        d="M256 77C260.971 77 265 81.0294 265 86V109C265 113.971 260.971 118 256 118C251.029 118 247 113.971 247 109V86C247 81.0294 251.029 77 256 77Z"
        fill="black" />
    <path fill-rule="evenodd" clip-rule="evenodd"
        d="M276 256C276 267.046 267.046 276 256 276C244.954 276 236 267.046 236 256C236 255.502 236.018 255.008 236.054 254.519L200.008 230.488C195.872 227.731 194.754 222.143 197.512 218.008C200.269 213.872 205.857 212.754 209.992 215.512L245.338 239.076C245.876 238.737 246.43 238.422 247 238.135V159C247 154.029 251.029 150 256 150C260.971 150 265 154.029 265 159V238.135C271.525 241.428 276 248.192 276 256ZM256 258C257.105 258 258 257.105 258 256C258 254.895 257.105 254 256 254C254.895 254 254 254.895 254 256C254 257.105 254.895 258 256 258Z"
        fill="black" />
    <path fill-rule="evenodd" clip-rule="evenodd"
        d="M276 256C276 267.046 267.046 276 256 276C244.954 276 236 267.046 236 256C236 255.502 236.018 255.008 236.054 254.519L200.008 230.488C195.872 227.731 194.754 222.143 197.512 218.008C200.269 213.872 205.857 212.754 209.992 215.512L245.338 239.076C245.876 238.737 246.43 238.422 247 238.135V159C247 154.029 251.029 150 256 150C260.971 150 265 154.029 265 159V238.135C271.525 241.428 276 248.192 276 256ZM256 258C257.105 258 258 257.105 258 256C258 254.895 257.105 254 256 254C254.895 254 254 254.895 254 256C254 257.105 254.895 258 256 258Z"
        fill="black" />
    <path fill-rule="evenodd" clip-rule="evenodd"
        d="M491 256.5C491 386.011 386.011 491 256.5 491C126.989 491 22 386.011 22 256.5C22 126.989 126.989 22 256.5 22C386.011 22 491 126.989 491 256.5ZM256.5 463C369.995 463 462 370.323 462 256C462 141.677 369.995 49 256.5 49C143.005 49 51 141.677 51 256C51 370.323 143.005 463 256.5 463Z"
        fill="black" />
    <path fill-rule="evenodd" clip-rule="evenodd"
        d="M491 256.5C491 386.011 386.011 491 256.5 491C126.989 491 22 386.011 22 256.5C22 126.989 126.989 22 256.5 22C386.011 22 491 126.989 491 256.5ZM256.5 463C369.995 463 462 370.323 462 256C462 141.677 369.995 49 256.5 49C143.005 49 51 141.677 51 256C51 370.323 143.005 463 256.5 463Z"
        fill="#FFDBBC" />
</svg>