<svg width="512" height="512" viewBox="0 0 512 512" fill="none" xmlns="http://www.w3.org/2000/svg">
    <g clip-path="url(#clip0_507_51)">
        <path
            d="M275.433 53.4332L416.845 194.845M385.019 329.572C368.052 318.307 348.409 317.226 329.31 322.683C317.634 326.019 307.001 332.275 298.415 340.862L166.499 472.777C156.247 483.029 142.58 489.409 128.148 490.793C109.841 492.548 91.4901 486.054 78.4856 473.05C72.154 466.718 67.3844 459.67 64.376 451.187C58.0676 433.399 59.9521 419.506 69.2986 403.109C73.098 396.444 77.0117 392.559 81.6995 387.871L101.319 368.605M353.855 213.142L155.935 372.464C155.537 372.782 154.963 372.751 154.602 372.39L149.934 367.722M353.855 213.142L257.239 118.29M353.855 213.142C381.216 214.271 409.41 204.411 430.301 183.52C469.939 143.882 469.939 79.6156 430.301 39.9774C390.662 0.339181 326.396 0.339181 286.758 39.9774C265.73 61.0052 255.957 90.7535 257.239 118.29M257.239 118.29L97.4546 313.989C97.1383 314.387 97.1708 314.959 97.5303 315.318L102.558 320.346M102.558 320.346L95.8394 363.125L106.8 374.085L149.934 367.722M102.558 320.346L149.934 367.722M210.623 240.163L229.715 259.255C230.106 259.645 230.739 259.645 231.129 259.255L255.171 235.213C255.561 234.823 255.561 234.19 255.171 233.799L236.079 214.707C235.689 214.317 235.055 214.317 234.665 214.707L210.623 238.749C210.233 239.139 210.233 239.772 210.623 240.163Z"
            stroke="black" stroke-width="20" stroke-linecap="round" />
    </g>
    <defs>
        <clipPath id="clip0_507_51">
            <rect width="512" height="512" fill="white" />
        </clipPath>
    </defs>
</svg>